<svg xmlns="http://www.w3.org/2000/svg" xmlns:xlink="http://www.w3.org/1999/xlink" contentStyleType="text/css" data-diagram-type="DESCRIPTION" height="666px" preserveAspectRatio="none" style="width:614px;height:666px;background:#FFFFFF;" version="1.1" viewBox="0 0 614 666" width="614px" zoomAndPan="magnify"><title>Level 2.1: &#29992;&#25143;&#19982;&#31038;&#20132;&#20114;&#21160;&#29992;&#20363;&#22270;</title><defs/><g><g class="title" data-source-line="1"><text fill="#000000" font-family="sans-serif" font-size="14" font-weight="bold" lengthAdjust="spacing" textLength="209.665" x="195.3775" y="24.3555">Level 2.1: &#29992;&#25143;&#19982;&#31038;&#20132;&#20114;&#21160;&#29992;&#20363;&#22270;</text></g><!--cluster ???????--><g class="cluster" data-entity="......." data-source-line="7" data-uid="ent0004" id="cluster_......."><rect fill="none" height="480" rx="2.5" ry="2.5" style="stroke:#181818;stroke-width:1;" width="410.42" x="198" y="180.4434"/><text fill="#000000" font-family="sans-serif" font-size="14" font-weight="bold" lengthAdjust="spacing" textLength="101.0625" x="352.6788" y="196.7989">&#29992;&#25143;&#19982;&#31038;&#20132;&#27169;&#22359;</text></g><!--entity UC_Register--><g class="entity" data-entity="UC_Register" data-source-line="10" data-uid="ent0005" id="entity_UC_Register"><ellipse cx="276.398" cy="402.4412" fill="#F1F1F1" rx="42.598" ry="15.5677" style="stroke:#181818;stroke-width:0.5;"/><text fill="#000000" font-family="sans-serif" font-size="14" lengthAdjust="spacing" textLength="56" x="248.398" y="407.8279">&#29992;&#25143;&#27880;&#20876;</text></g><!--entity UC_Login--><g class="entity" data-entity="UC_Login" data-source-line="11" data-uid="ent0006" id="entity_UC_Login"><ellipse cx="276.398" cy="336.4412" fill="#F1F1F1" rx="42.598" ry="15.5677" style="stroke:#181818;stroke-width:0.5;"/><text fill="#000000" font-family="sans-serif" font-size="14" lengthAdjust="spacing" textLength="56" x="248.398" y="341.8279">&#29992;&#25143;&#30331;&#24405;</text></g><!--entity UC_Profile--><g class="entity" data-entity="UC_Profile" data-source-line="12" data-uid="ent0007" id="entity_UC_Profile"><ellipse cx="276.397" cy="270.4412" fill="#F1F1F1" rx="62.397" ry="15.5677" style="stroke:#181818;stroke-width:0.5;"/><text fill="#000000" font-family="sans-serif" font-size="14" lengthAdjust="spacing" textLength="84" x="234.397" y="275.8279">&#26356;&#26032;&#20010;&#20154;&#36164;&#26009;</text></g><!--entity UC_Avatar--><g class="entity" data-entity="UC_Avatar" data-source-line="13" data-uid="ent0008" id="entity_UC_Avatar"><ellipse cx="526.1141" cy="430.4463" fill="#F1F1F1" rx="66.3141" ry="15.6628" style="stroke:#181818;stroke-width:0.5;"/><text fill="#000000" font-family="sans-serif" font-size="14" lengthAdjust="spacing" textLength="90.207" x="481.0106" y="435.833">&#19978;&#20256;&#22836;&#20687;/&#32972;&#26223;</text></g><!--entity UC_Browse--><g class="entity" data-entity="UC_Browse" data-source-line="16" data-uid="ent0009" id="entity_UC_Browse"><ellipse cx="276.3975" cy="534.4412" fill="#F1F1F1" rx="52.4975" ry="15.5677" style="stroke:#181818;stroke-width:0.5;"/><text fill="#000000" font-family="sans-serif" font-size="14" lengthAdjust="spacing" textLength="70" x="241.3975" y="539.8279">&#27983;&#35272;&#26102;&#38388;&#32447;</text></g><!--entity UC_ViewTweet--><g class="entity" data-entity="UC_ViewTweet" data-source-line="17" data-uid="ent0010" id="entity_UC_ViewTweet"><ellipse cx="276.397" cy="600.4412" fill="#F1F1F1" rx="62.397" ry="15.5677" style="stroke:#181818;stroke-width:0.5;"/><text fill="#000000" font-family="sans-serif" font-size="14" lengthAdjust="spacing" textLength="84" x="234.397" y="605.8279">&#26597;&#30475;&#24086;&#23376;&#35814;&#24773;</text></g><!--entity UC_Filter--><g class="entity" data-entity="UC_Filter" data-source-line="18" data-uid="ent0011" id="entity_UC_Filter"><ellipse cx="526.1075" cy="562.4412" fill="#F1F1F1" rx="52.4975" ry="15.5677" style="stroke:#181818;stroke-width:0.5;"/><text fill="#000000" font-family="sans-serif" font-size="14" lengthAdjust="spacing" textLength="70" x="491.1075" y="567.8279">&#25353;&#26631;&#31614;&#31579;&#36873;</text></g><!--entity UC_Sort--><g class="entity" data-entity="UC_Sort" data-source-line="19" data-uid="ent0012" id="entity_UC_Sort"><ellipse cx="526.1075" cy="496.4412" fill="#F1F1F1" rx="52.4975" ry="15.5677" style="stroke:#181818;stroke-width:0.5;"/><text fill="#000000" font-family="sans-serif" font-size="14" lengthAdjust="spacing" textLength="70" x="491.1075" y="501.8279">&#25353;&#26102;&#38388;&#25490;&#24207;</text></g><!--entity UC_ViewProfile--><g class="entity" data-entity="UC_ViewProfile" data-source-line="20" data-uid="ent0013" id="entity_UC_ViewProfile"><ellipse cx="276.397" cy="468.4412" fill="#F1F1F1" rx="62.397" ry="15.5677" style="stroke:#181818;stroke-width:0.5;"/><text fill="#000000" font-family="sans-serif" font-size="14" lengthAdjust="spacing" textLength="84" x="234.397" y="473.8279">&#26597;&#30475;&#29992;&#25143;&#36164;&#26009;</text></g><!--entity UC_Follow--><g class="entity" data-entity="UC_Follow" data-source-line="23" data-uid="ent0014" id="entity_UC_Follow"><ellipse cx="526.108" cy="232.4412" fill="#F1F1F1" rx="42.598" ry="15.5677" style="stroke:#181818;stroke-width:0.5;"/><text fill="#000000" font-family="sans-serif" font-size="14" lengthAdjust="spacing" textLength="56" x="498.108" y="237.8279">&#20851;&#27880;&#29992;&#25143;</text></g><!--entity UC_Msg--><g class="entity" data-entity="UC_Msg" data-source-line="24" data-uid="ent0015" id="entity_UC_Msg"><ellipse cx="526.108" cy="298.4412" fill="#F1F1F1" rx="42.598" ry="15.5677" style="stroke:#181818;stroke-width:0.5;"/><text fill="#000000" font-family="sans-serif" font-size="14" lengthAdjust="spacing" textLength="56" x="498.108" y="303.8279">&#21457;&#36865;&#31169;&#20449;</text></g><!--entity UC_Like--><g class="entity" data-entity="UC_Like" data-source-line="25" data-uid="ent0016" id="entity_UC_Like"><ellipse cx="526.108" cy="364.4412" fill="#F1F1F1" rx="42.598" ry="15.5677" style="stroke:#181818;stroke-width:0.5;"/><text fill="#000000" font-family="sans-serif" font-size="14" lengthAdjust="spacing" textLength="56" x="498.108" y="369.8279">&#28857;&#36190;&#24086;&#23376;</text></g><!--entity UC_Share--><g class="entity" data-entity="UC_Share" data-source-line="26" data-uid="ent0017" id="entity_UC_Share"><ellipse cx="526.108" cy="628.4412" fill="#F1F1F1" rx="42.598" ry="15.5677" style="stroke:#181818;stroke-width:0.5;"/><text fill="#000000" font-family="sans-serif" font-size="14" lengthAdjust="spacing" textLength="56" x="498.108" y="633.8279">&#20998;&#20139;&#24086;&#23376;</text></g><!--entity Guest--><g class="entity" data-entity="Guest" data-source-line="4" data-uid="ent0002" id="entity_Guest"><ellipse cx="20" cy="443.0534" fill="#F1F1F1" rx="8" ry="8" style="stroke:#181818;stroke-width:0.5;"/><path d="M20,451.0534 L20,478.0534 M7,459.0534 L33,459.0534 M20,478.0534 L7,493.0534 M20,478.0534 L33,493.0534" fill="none" style="stroke:#181818;stroke-width:0.5;"/><text fill="#000000" font-family="sans-serif" font-size="14" lengthAdjust="spacing" textLength="28" x="6" y="508.9089">&#35775;&#23458;</text></g><!--entity User--><g class="entity" data-entity="User" data-source-line="5" data-uid="ent0003" id="entity_User"><ellipse cx="123" cy="198.0534" fill="#F1F1F1" rx="8" ry="8" style="stroke:#181818;stroke-width:0.5;"/><path d="M123,206.0534 L123,233.0534 M110,214.0534 L136,214.0534 M123,233.0534 L110,248.0534 M123,233.0534 L136,248.0534" fill="none" style="stroke:#181818;stroke-width:0.5;"/><text fill="#000000" font-family="sans-serif" font-size="14" lengthAdjust="spacing" textLength="56" x="95" y="263.9089">&#26222;&#36890;&#29992;&#25143;</text></g><!--reverse link Guest to User--><g class="link" data-entity-1="Guest" data-entity-2="User" data-source-line="30" data-uid="lnk18" id="link_Guest_User"><path d="M41.2702,424.272 C59.7302,379.492 86.06,315.6134 105.86,267.5934" fill="none" id="Guest-backto-User" style="stroke:#181818;stroke-width:1;"/><polygon fill="none" points="34.41,440.9134,46.8174,426.5587,35.7231,421.9853,34.41,440.9134" style="stroke:#181818;stroke-width:1;"/></g><!--link Guest to UC_Register--><g class="link" data-entity-1="Guest" data-entity-2="UC_Register" data-source-line="32" data-uid="lnk19" id="link_Guest_UC_Register"><path d="M34.47,468.4434 C42.9,465.3934 54.02,461.5034 64,458.4434 C125.35,439.6434 192.0023,422.691 234.1723,412.361" fill="none" id="Guest-to-UC_Register" style="stroke:#181818;stroke-width:1;"/><polygon fill="#181818" points="240,410.9334,230.3067,409.1896,235.1436,412.1231,232.2102,416.9599,240,410.9334" style="stroke:#181818;stroke-width:1;"/></g><!--link Guest to UC_Browse--><g class="link" data-entity-1="Guest" data-entity-2="UC_Browse" data-source-line="33" data-uid="lnk20" id="link_Guest_UC_Browse"><path d="M34.32,476.6334 C71.23,485.4834 170.1054,509.1943 228.6554,523.2343" fill="none" id="Guest-to-UC_Browse" style="stroke:#181818;stroke-width:1;"/><polygon fill="#181818" points="234.49,524.6334,226.6708,518.645,229.6278,523.4675,224.8054,526.4245,234.49,524.6334" style="stroke:#181818;stroke-width:1;"/></g><!--link Guest to UC_ViewTweet--><g class="link" data-entity-1="Guest" data-entity-2="UC_ViewTweet" data-source-line="34" data-uid="lnk21" id="link_Guest_UC_ViewTweet"><path d="M34.25,481.6534 C62.32,498.8434 130.11,539.3834 190,567.4434 C205.69,574.7934 217.8784,579.7664 233.1584,585.4664" fill="none" id="Guest-to-UC_ViewTweet" style="stroke:#181818;stroke-width:1;"/><polygon fill="#181818" points="238.78,587.5634,231.7456,580.6701,234.0953,585.8159,228.9496,588.1656,238.78,587.5634" style="stroke:#181818;stroke-width:1;"/></g><!--link Guest to UC_ViewProfile--><g class="link" data-entity-1="Guest" data-entity-2="UC_ViewProfile" data-source-line="35" data-uid="lnk22" id="link_Guest_UC_ViewProfile"><path d="M23.53,512.8234 C27.58,542.6434 38.05,577.3834 65,570.4434 C126.45,554.6134 132.49,528.2734 190,501.4434 C205.84,494.0534 218.218,489.0094 233.588,483.2794" fill="none" id="Guest-to-UC_ViewProfile" style="stroke:#181818;stroke-width:1;"/><polygon fill="#181818" points="239.21,481.1834,229.3797,480.5793,234.525,482.93,232.1742,488.0753,239.21,481.1834" style="stroke:#181818;stroke-width:1;"/></g><!--link User to UC_Login--><g class="link" data-entity-1="User" data-entity-2="UC_Login" data-source-line="37" data-uid="lnk23" id="link_User_UC_Login"><path d="M151.48,266.6134 C162.33,279.6334 175.63,293.4234 190,303.4434 C205.38,314.1734 219.0252,320.1648 235.4152,325.5048" fill="none" id="User-to-UC_Login" style="stroke:#181818;stroke-width:1;"/><polygon fill="#181818" points="241.12,327.3634,233.8019,320.7722,236.366,325.8145,231.3236,328.3786,241.12,327.3634" style="stroke:#181818;stroke-width:1;"/></g><!--link User to UC_Profile--><g class="link" data-entity-1="User" data-entity-2="UC_Profile" data-source-line="38" data-uid="lnk24" id="link_User_UC_Profile"><path d="M151.42,236.0534 C174.25,242.3834 201.3684,249.9095 227.5384,257.1695" fill="none" id="User-to-UC_Profile" style="stroke:#181818;stroke-width:1;"/><polygon fill="#181818" points="233.32,258.7734,225.7168,252.5131,228.502,257.4368,223.5782,260.222,233.32,258.7734" style="stroke:#181818;stroke-width:1;"/></g><!--link User to UC_Follow--><g class="link" data-entity-1="User" data-entity-2="UC_Follow" data-source-line="39" data-uid="lnk25" id="link_User_UC_Follow"><path d="M130.54,189.1734 C137.63,160.3034 152.08,122.9834 181,104.4434 C274.1,44.7734 330.98,54.8234 429.79,104.4434 C477.33,128.3134 504.8627,182.849 516.8127,211.389" fill="none" id="User-to-UC_Follow" style="stroke:#181818;stroke-width:1;"/><polygon fill="#181818" points="519.13,216.9234,519.3436,207.0769,517.1989,212.3114,511.9644,210.1667,519.13,216.9234" style="stroke:#181818;stroke-width:1;"/></g><!--link User to UC_Msg--><g class="link" data-entity-1="User" data-entity-2="UC_Msg" data-source-line="40" data-uid="lnk26" id="link_User_UC_Msg"><path d="M151.42,195.2734 C159.97,187.2434 170.06,179.7434 181,175.4434 C283.91,134.9934 340.09,110.7934 429.79,175.4434 C464,200.0934 432.24,233.5334 459.79,265.4434 C468.6,275.6334 475.8125,280.6397 487.6825,285.8297" fill="none" id="User-to-UC_Msg" style="stroke:#181818;stroke-width:1;"/><polygon fill="#181818" points="493.18,288.2334,486.5363,280.9629,488.5988,286.2304,483.3313,288.2929,493.18,288.2334" style="stroke:#181818;stroke-width:1;"/></g><!--link User to UC_Like--><g class="link" data-entity-1="User" data-entity-2="UC_Like" data-source-line="41" data-uid="lnk27" id="link_User_UC_Like"><path d="M151.09,217.9934 C208.94,197.6034 346.1,159.8234 429.79,223.4434 C469.46,253.5934 428.2,292.9234 459.79,331.4434 C468.33,341.8534 475.4928,346.9221 487.4028,352.0721" fill="none" id="User-to-UC_Like" style="stroke:#181818;stroke-width:1;"/><polygon fill="#181818" points="492.91,354.4534,486.2368,347.2099,488.3207,352.469,483.0616,354.5529,492.91,354.4534" style="stroke:#181818;stroke-width:1;"/></g><!--link UC_Profile to UC_Avatar--><g class="link" data-entity-1="UC_Profile" data-entity-2="UC_Avatar" data-source-line="44" data-uid="lnk28" id="link_UC_Profile_UC_Avatar"><path d="M311.66,283.7234 C350.8,299.3734 411.76,325.4234 429.79,342.4434 C450.05,361.5534 439.8,378.0634 459.79,397.4434 C468.1,405.4934 473.3606,409.3464 483.6406,414.3764" fill="none" id="UC_Profile-to-UC_Avatar" style="stroke:#181818;stroke-width:1;stroke-dasharray:7,7;"/><polygon fill="#181818" points="489.03,417.0134,482.7039,409.4649,484.5388,414.8159,479.1878,416.6508,489.03,417.0134" style="stroke:#181818;stroke-width:1;"/><text fill="#000000" font-family="sans-serif" font-size="13" lengthAdjust="spacing" textLength="59.5474" x="369.79" y="306.1235">&#171;include&#187;</text></g><!--reverse link UC_Browse to UC_Filter--><g class="link" data-entity-1="UC_Browse" data-entity-2="UC_Filter" data-source-line="45" data-uid="lnk29" id="link_UC_Browse_UC_Filter"><path d="M332.7484,529.3198 C362.7184,527.4498 395.66,527.2034 429.79,532.4434 C451.57,535.7934 475.2,543.2034 493.48,549.8134" fill="none" id="UC_Browse-backto-UC_Filter" style="stroke:#181818;stroke-width:1;stroke-dasharray:7,7;"/><polygon fill="#181818" points="326.76,529.6934,335.9916,533.1252,331.7503,529.3821,335.4934,525.1407,326.76,529.6934" style="stroke:#181818;stroke-width:1;"/><text fill="#000000" font-family="sans-serif" font-size="13" lengthAdjust="spacing" textLength="57.3257" x="370.79" y="524.6735">&#171;extend&#187;</text></g><!--reverse link UC_Browse to UC_Sort--><g class="link" data-entity-1="UC_Browse" data-entity-2="UC_Sort" data-source-line="46" data-uid="lnk30" id="link_UC_Browse_UC_Sort"><path d="M312.8135,519.2317 C330.3735,512.2317 347.65,506.4534 368.79,502.4434 C403.35,495.8834 442.94,494.4234 473.64,494.5834" fill="none" id="UC_Browse-backto-UC_Sort" style="stroke:#181818;stroke-width:1;stroke-dasharray:7,7;"/><polygon fill="#181818" points="307.24,521.4534,317.0814,521.8364,311.8846,519.602,314.119,514.4051,307.24,521.4534" style="stroke:#181818;stroke-width:1;"/><text fill="#000000" font-family="sans-serif" font-size="13" lengthAdjust="spacing" textLength="57.3257" x="370.79" y="491.9835">&#171;extend&#187;</text></g><!--reverse link UC_ViewTweet to UC_Like--><g class="link" data-entity-1="UC_ViewTweet" data-entity-2="UC_Like" data-source-line="47" data-uid="lnk31" id="link_UC_ViewTweet_UC_Like"><path d="M335.627,590.9866 C374.147,583.7566 416.19,573.2434 429.79,558.4434 C479.04,504.8434 416.12,455.6734 459.79,397.4434 C467.8,386.7734 480.22,379.3034 492.1,374.2034" fill="none" id="UC_ViewTweet-backto-UC_Like" style="stroke:#181818;stroke-width:1;stroke-dasharray:7,7;"/><polygon fill="#181818" points="329.73,592.0934,339.3134,594.3645,334.6442,591.1711,337.8376,586.5018,329.73,592.0934" style="stroke:#181818;stroke-width:1;"/><text fill="#000000" font-family="sans-serif" font-size="13" lengthAdjust="spacing" textLength="57.3257" x="370.79" y="554.7735">&#171;extend&#187;</text></g><!--reverse link UC_ViewTweet to UC_Share--><g class="link" data-entity-1="UC_ViewTweet" data-entity-2="UC_Share" data-source-line="48" data-uid="lnk32" id="link_UC_ViewTweet_UC_Share"><path d="M337.9302,608.6449 C350.0402,610.2149 356.87,611.0534 368.79,612.4434 C408.08,617.0334 453.01,621.5534 484.59,624.6134" fill="none" id="UC_ViewTweet-backto-UC_Share" style="stroke:#181818;stroke-width:1;stroke-dasharray:7,7;"/><polygon fill="#181818" points="331.98,607.8734,340.391,612.9974,336.9385,608.5163,341.4196,605.0638,331.98,607.8734" style="stroke:#181818;stroke-width:1;"/><text fill="#000000" font-family="sans-serif" font-size="13" lengthAdjust="spacing" textLength="57.3257" x="370.79" y="608.7735">&#171;extend&#187;</text></g><!--reverse link UC_ViewProfile to UC_Follow--><g class="link" data-entity-1="UC_ViewProfile" data-entity-2="UC_Follow" data-source-line="49" data-uid="lnk33" id="link_UC_ViewProfile_UC_Follow"><path d="M318.8387,452.9165 C328.3387,447.9565 332.39,444.1034 338.79,435.4434 C379.71,380.0534 323.12,334.9734 368.79,283.4434 C397.76,250.7534 447.94,238.9234 483.62,234.6934" fill="none" id="UC_ViewProfile-backto-UC_Follow" style="stroke:#181818;stroke-width:1;stroke-dasharray:7,7;"/><polygon fill="#181818" points="313.52,455.6934,323.3493,455.0739,317.9523,453.3793,319.6468,447.9822,313.52,455.6934" style="stroke:#181818;stroke-width:1;"/><text fill="#000000" font-family="sans-serif" font-size="13" lengthAdjust="spacing" textLength="57.3257" x="370.79" y="243.1735">&#171;extend&#187;</text></g><!--reverse link UC_ViewProfile to UC_Msg--><g class="link" data-entity-1="UC_ViewProfile" data-entity-2="UC_Msg" data-source-line="50" data-uid="lnk34" id="link_UC_ViewProfile_UC_Msg"><path d="M311.0002,451.5202 C321.5702,445.9602 328.26,442.1034 338.79,435.4434 C381.24,408.6034 393.46,403.1234 429.79,368.4434 C445.11,353.8234 443.31,344.7334 459.79,331.4434 C470.67,322.6734 484.26,315.3434 496.22,309.8434" fill="none" id="UC_ViewProfile-backto-UC_Msg" style="stroke:#181818;stroke-width:1;stroke-dasharray:7,7;"/><polygon fill="#181818" points="305.69,454.3134,315.5174,453.6637,310.1151,451.9857,311.7931,446.5835,305.69,454.3134" style="stroke:#181818;stroke-width:1;"/><text fill="#000000" font-family="sans-serif" font-size="13" lengthAdjust="spacing" textLength="57.3257" x="370.79" y="364.7735">&#171;extend&#187;</text></g><!--SRC=[ZPBVRX915CRlvoactFGAcdhP418rQangOgnwQpOmtKxSiCdkK4pKX8f5sfA2ZK8eLKk3bcYW9e3YLk5bTcQMjt3_CB2xaEXUxCKtlpddc-ySWec2u0RQGGgy5bjRX_nTcnL_ciCZtXgPHiiqZkb1snRDqI5jZ822jWWaAjIml4rW2cieIR2Q1a1A4bM34Qixfjtp29HqU2U3T29qLkzESYTUSVVqaOuq09phKbgsBKH2ZLcxIJ_K8l0vWFRd_bQcvdYtoIi5LyheA2dfizkirwQ5abV_vfC7ICOwiTii8NdzYlvvByWDLSRf8COQVLRzRWw_cePX3LwpQbt0zpLr2oieY9l30_Ft6MtrQRwyQkLBh7uf-Eix4f4q_pDOvPJtpzcWR5qKGrrTZTL-J6fzRen5YHkQcjL37Tcdp_pqa0whj5EnBh-m_9wW7sEKVPX5Y8GkbFRPsHlU6V5EOvBR5_Hjh2navA2k1tPqJ8soG3TLZImpuKKQJCanuKzAJD2tLS5ITAzdZy-_8ROtLL7KR8WhlvtaTld5hZbk2kwUBeU6_EgNDVZeXJCRCduQYf0M2wRnBKXjRaiQ0Yy1M86s8zwx0kuUm_YBQ7Iwj9uGZIO2InPGfmCBQFEnBCWYAE0q40VUKleLWVcrQKH-oKaZKCXvkFsUk-caaaaXk0flFICedGBpaZ0MIynt5Qx3U1nxT281Pk-1yLXilZ8kXTnAoo1dMHQGMGQ2ShpzctA7iXGJ_eKpDut_8UsGWjXV]--></g></svg>