<svg xmlns="http://www.w3.org/2000/svg" xmlns:xlink="http://www.w3.org/1999/xlink" contentStyleType="text/css" data-diagram-type="DESCRIPTION" height="399px" preserveAspectRatio="none" style="width:609px;height:399px;background:#FFFFFF;" version="1.1" viewBox="0 0 609 399" width="609px" zoomAndPan="magnify"><title>Level 2.2: &#20869;&#23481;&#31649;&#29702;&#19982;&#21457;&#24067;&#29992;&#20363;&#22270;</title><defs/><g><g class="title" data-source-line="1"><text fill="#000000" font-family="sans-serif" font-size="14" font-weight="bold" lengthAdjust="spacing" textLength="209.665" x="193.1625" y="24.3555">Level 2.2: &#20869;&#23481;&#31649;&#29702;&#19982;&#21457;&#24067;&#29992;&#20363;&#22270;</text></g><!--cluster ??????--><g class="cluster" data-entity="......" data-source-line="7" data-uid="ent0004" id="cluster_......"><rect fill="none" height="348" rx="2.5" ry="2.5" style="stroke:#181818;stroke-width:1;" width="362.99" x="109" y="45.7734"/><text fill="#000000" font-family="sans-serif" font-size="14" font-weight="bold" lengthAdjust="spacing" textLength="86.625" x="247.1825" y="62.1289">&#20869;&#23481;&#31649;&#29702;&#27169;&#22359;</text></g><!--entity UC_Create--><g class="entity" data-entity="UC_Create" data-source-line="8" data-uid="ent0005" id="entity_UC_Create"><ellipse cx="167.598" cy="97.7712" fill="#F1F1F1" rx="42.598" ry="15.5677" style="stroke:#181818;stroke-width:0.5;"/><text fill="#000000" font-family="sans-serif" font-size="14" lengthAdjust="spacing" textLength="56" x="139.598" y="103.1579">&#21457;&#24067;&#24086;&#23376;</text></g><!--entity UC_Media--><g class="entity" data-entity="UC_Media" data-source-line="9" data-uid="ent0006" id="entity_UC_Media"><ellipse cx="393.5875" cy="164.7712" fill="#F1F1F1" rx="52.4975" ry="15.5677" style="stroke:#181818;stroke-width:0.5;"/><text fill="#000000" font-family="sans-serif" font-size="14" lengthAdjust="spacing" textLength="70" x="358.5875" y="170.1579">&#19978;&#20256;&#22810;&#23186;&#20307;</text></g><!--entity UC_Tags--><g class="entity" data-entity="UC_Tags" data-source-line="10" data-uid="ent0007" id="entity_UC_Tags"><ellipse cx="393.588" cy="98.7712" fill="#F1F1F1" rx="42.598" ry="15.5677" style="stroke:#181818;stroke-width:0.5;"/><text fill="#000000" font-family="sans-serif" font-size="14" lengthAdjust="spacing" textLength="56" x="365.588" y="104.1579">&#28155;&#21152;&#26631;&#31614;</text></g><!--entity UC_Edit--><g class="entity" data-entity="UC_Edit" data-source-line="11" data-uid="ent0008" id="entity_UC_Edit"><ellipse cx="167.598" cy="163.7712" fill="#F1F1F1" rx="42.598" ry="15.5677" style="stroke:#181818;stroke-width:0.5;"/><text fill="#000000" font-family="sans-serif" font-size="14" lengthAdjust="spacing" textLength="56" x="139.598" y="169.1579">&#32534;&#36753;&#24086;&#23376;</text></g><!--entity UC_Delete--><g class="entity" data-entity="UC_Delete" data-source-line="12" data-uid="ent0009" id="entity_UC_Delete"><ellipse cx="167.598" cy="229.7712" fill="#F1F1F1" rx="42.598" ry="15.5677" style="stroke:#181818;stroke-width:0.5;"/><text fill="#000000" font-family="sans-serif" font-size="14" lengthAdjust="spacing" textLength="56" x="139.598" y="235.1579">&#21024;&#38500;&#24086;&#23376;</text></g><!--entity UC_Comment--><g class="entity" data-entity="UC_Comment" data-source-line="14" data-uid="ent0010" id="entity_UC_Comment"><ellipse cx="167.598" cy="295.7712" fill="#F1F1F1" rx="42.598" ry="15.5677" style="stroke:#181818;stroke-width:0.5;"/><text fill="#000000" font-family="sans-serif" font-size="14" lengthAdjust="spacing" textLength="56" x="139.598" y="301.1579">&#28155;&#21152;&#35780;&#35770;</text></g><!--entity UC_Reply--><g class="entity" data-entity="UC_Reply" data-source-line="15" data-uid="ent0011" id="entity_UC_Reply"><ellipse cx="167.598" cy="361.7712" fill="#F1F1F1" rx="42.598" ry="15.5677" style="stroke:#181818;stroke-width:0.5;"/><text fill="#000000" font-family="sans-serif" font-size="14" lengthAdjust="spacing" textLength="56" x="139.598" y="367.1579">&#22238;&#22797;&#35780;&#35770;</text></g><!--entity UC_TriggerMod--><g class="entity" data-entity="UC_TriggerMod" data-source-line="17" data-uid="ent0012" id="entity_UC_TriggerMod"><ellipse cx="393.587" cy="273.7712" fill="#F1F1F1" rx="62.397" ry="15.5677" style="stroke:#181818;stroke-width:0.5;"/><text fill="#000000" font-family="sans-serif" font-size="14" lengthAdjust="spacing" textLength="84" x="351.587" y="279.1579">&#35302;&#21457;&#20869;&#23481;&#23457;&#26680;</text></g><!--entity User--><g class="entity" data-entity="User" data-source-line="4" data-uid="ent0002" id="entity_User"><ellipse cx="34" cy="199.3834" fill="#F1F1F1" rx="8" ry="8" style="stroke:#181818;stroke-width:0.5;"/><path d="M34,207.3834 L34,234.3834 M21,215.3834 L47,215.3834 M34,234.3834 L21,249.3834 M34,234.3834 L47,249.3834" fill="none" style="stroke:#181818;stroke-width:0.5;"/><text fill="#000000" font-family="sans-serif" font-size="14" lengthAdjust="spacing" textLength="56" x="6" y="265.2389">&#26222;&#36890;&#29992;&#25143;</text></g><!--entity SysMod--><g class="entity" data-entity="SysMod" data-source-line="5" data-uid="ent0003" id="entity_SysMod"><ellipse cx="560.99" cy="243.3834" fill="#F1F1F1" rx="8" ry="8" style="stroke:#181818;stroke-width:0.5;"/><path d="M560.99,251.3834 L560.99,278.3834 M547.99,259.3834 L573.99,259.3834 M560.99,278.3834 L547.99,293.3834 M560.99,278.3834 L573.99,293.3834" fill="none" style="stroke:#181818;stroke-width:0.5;"/><text fill="#000000" font-family="sans-serif" font-size="14" lengthAdjust="spacing" textLength="84" x="518.99" y="309.2389">&#31995;&#32479;&#23457;&#26680;&#26381;&#21153;</text></g><!--link User to UC_Create--><g class="link" data-entity-1="User" data-entity-2="UC_Create" data-source-line="20" data-uid="lnk13" id="link_User_UC_Create"><path d="M54.81,190.5234 C66.25,170.7434 82.13,147.4734 101,130.7734 C111.41,121.5634 119.3685,116.6756 131.3685,111.2756" fill="none" id="User-to-UC_Create" style="stroke:#181818;stroke-width:1;"/><polygon fill="#181818" points="136.84,108.8134,126.9912,108.859,132.2804,110.8653,130.2742,116.1544,136.84,108.8134" style="stroke:#181818;stroke-width:1;"/></g><!--link User to UC_Edit--><g class="link" data-entity-1="User" data-entity-2="UC_Edit" data-source-line="21" data-uid="lnk14" id="link_User_UC_Edit"><path d="M62.27,216.0934 C85.61,204.3934 113.5672,190.3743 136.2272,179.0043" fill="none" id="User-to-UC_Edit" style="stroke:#181818;stroke-width:1;"/><polygon fill="#181818" points="141.59,176.3134,131.7519,176.7745,137.121,178.5558,135.3397,183.9249,141.59,176.3134" style="stroke:#181818;stroke-width:1;"/></g><!--link User to UC_Delete--><g class="link" data-entity-1="User" data-entity-2="UC_Delete" data-source-line="22" data-uid="lnk15" id="link_User_UC_Delete"><path d="M62.27,229.7734 C80.26,229.7734 98.19,229.7734 118.59,229.7734" fill="none" id="User-to-UC_Delete" style="stroke:#181818;stroke-width:1;"/><polygon fill="#181818" points="124.59,229.7734,115.59,225.7734,119.59,229.7734,115.59,233.7734,124.59,229.7734" style="stroke:#181818;stroke-width:1;"/></g><!--link User to UC_Comment--><g class="link" data-entity-1="User" data-entity-2="UC_Comment" data-source-line="23" data-uid="lnk16" id="link_User_UC_Comment"><path d="M62.27,243.4534 C85.61,255.1534 113.5672,269.1726 136.2272,280.5426" fill="none" id="User-to-UC_Comment" style="stroke:#181818;stroke-width:1;"/><polygon fill="#181818" points="141.59,283.2334,135.3397,275.622,137.121,280.9911,131.7519,282.7723,141.59,283.2334" style="stroke:#181818;stroke-width:1;"/></g><!--link User to UC_Reply--><g class="link" data-entity-1="User" data-entity-2="UC_Reply" data-source-line="24" data-uid="lnk17" id="link_User_UC_Reply"><path d="M54.81,269.0234 C66.25,288.8034 82.13,312.0734 101,328.7734 C111.41,337.9834 119.3685,342.8712 131.3685,348.2712" fill="none" id="User-to-UC_Reply" style="stroke:#181818;stroke-width:1;"/><polygon fill="#181818" points="136.84,350.7334,130.2742,343.3925,132.2804,348.6816,126.9912,350.6878,136.84,350.7334" style="stroke:#181818;stroke-width:1;"/></g><!--link UC_Create to UC_Media--><g class="link" data-entity-1="UC_Create" data-entity-2="UC_Media" data-source-line="27" data-uid="lnk18" id="link_UC_Create_UC_Media"><path d="M197.27,109.3634 C210.27,114.4134 225.89,120.2134 240.2,124.7734 C277.33,136.6134 314.5191,146.2492 345.3591,153.7292" fill="none" id="UC_Create-to-UC_Media" style="stroke:#181818;stroke-width:1;stroke-dasharray:7,7;"/><polygon fill="#181818" points="351.19,155.1434,343.3864,149.1348,346.3309,153.9649,341.5008,156.9094,351.19,155.1434" style="stroke:#181818;stroke-width:1;"/><text fill="#000000" font-family="sans-serif" font-size="13" lengthAdjust="spacing" textLength="59.5474" x="241.2" y="121.1035">&#171;include&#187;</text></g><!--link UC_Create to UC_Tags--><g class="link" data-entity-1="UC_Create" data-entity-2="UC_Tags" data-source-line="28" data-uid="lnk19" id="link_UC_Create_UC_Tags"><path d="M210.47,97.9634 C250.48,98.1434 304.4801,98.3765 344.5501,98.5565" fill="none" id="UC_Create-to-UC_Tags" style="stroke:#181818;stroke-width:1;stroke-dasharray:7,7;"/><polygon fill="#181818" points="350.55,98.5834,341.5681,94.543,345.5501,98.561,341.5321,102.543,350.55,98.5834" style="stroke:#181818;stroke-width:1;"/><text fill="#000000" font-family="sans-serif" font-size="13" lengthAdjust="spacing" textLength="59.5474" x="241.2" y="94.4235">&#171;include&#187;</text></g><!--link UC_Create to UC_TriggerMod--><g class="link" data-entity-1="UC_Create" data-entity-2="UC_TriggerMod" data-source-line="29" data-uid="lnk20" id="link_UC_Create_UC_TriggerMod"><path d="M187.97,111.7234 C195.24,117.3234 203.38,124.0334 210.2,130.7734 C225.25,145.6634 224.69,153.3634 240.2,167.7734 C280.81,205.5034 330.4853,237.3128 362.0953,256.1428" fill="none" id="UC_Create-to-UC_TriggerMod" style="stroke:#181818;stroke-width:1;stroke-dasharray:7,7;"/><polygon fill="#181818" points="367.25,259.2134,361.565,251.171,362.9544,256.6546,357.4708,258.0439,367.25,259.2134" style="stroke:#181818;stroke-width:1;"/><text fill="#000000" font-family="sans-serif" font-size="13" lengthAdjust="spacing" textLength="59.5474" x="241.2" y="164.1035">&#171;include&#187;</text></g><!--link UC_Edit to UC_TriggerMod--><g class="link" data-entity-1="UC_Edit" data-entity-2="UC_TriggerMod" data-source-line="30" data-uid="lnk21" id="link_UC_Edit_UC_TriggerMod"><path d="M190.07,177.3034 C197.23,182.6534 204.77,189.3234 210.2,196.7734 C232.55,227.4734 208.98,255.1434 240.2,276.7734 C273.26,299.6834 314.9526,295.7622 348.1126,287.6322" fill="none" id="UC_Edit-to-UC_TriggerMod" style="stroke:#181818;stroke-width:1;stroke-dasharray:7,7;"/><polygon fill="#181818" points="353.94,286.2034,344.2464,284.4616,349.0838,287.394,346.1514,292.2315,353.94,286.2034" style="stroke:#181818;stroke-width:1;"/><text fill="#000000" font-family="sans-serif" font-size="13" lengthAdjust="spacing" textLength="59.5474" x="241.2" y="273.1035">&#171;include&#187;</text></g><!--link UC_Comment to UC_TriggerMod--><g class="link" data-entity-1="UC_Comment" data-entity-2="UC_TriggerMod" data-source-line="31" data-uid="lnk22" id="link_UC_Comment_UC_TriggerMod"><path d="M187.85,309.7234 C201.66,318.8334 221.13,329.9134 240.2,334.7734 C266.47,341.4634 275.25,342.6334 301.2,334.7734 C330.59,325.8634 354.6387,307.9777 371.7987,293.0077" fill="none" id="UC_Comment-to-UC_TriggerMod" style="stroke:#181818;stroke-width:1;stroke-dasharray:7,7;"/><polygon fill="#181818" points="376.32,289.0634,366.9085,291.9657,372.5522,292.3504,372.1675,297.9941,376.32,289.0634" style="stroke:#181818;stroke-width:1;"/><text fill="#000000" font-family="sans-serif" font-size="13" lengthAdjust="spacing" textLength="59.5474" x="241.2" y="331.1035">&#171;include&#187;</text></g><!--link UC_TriggerMod to SysMod--><g class="link" data-entity-1="UC_TriggerMod" data-entity-2="SysMod" data-source-line="33" data-uid="lnk23" id="link_UC_TriggerMod_SysMod"><path d="M456.18,273.7734 C477.12,273.7734 494,273.7734 512.93,273.7734" fill="none" id="UC_TriggerMod-to-SysMod" style="stroke:#181818;stroke-width:1;"/><polygon fill="#181818" points="518.93,273.7734,509.93,269.7734,513.93,273.7734,509.93,277.7734,518.93,273.7734" style="stroke:#181818;stroke-width:1;"/></g><!--SRC=[ZPBDJi9058NtynGJDgvWuP8GDkXEDlwiJKD7R5AeQGSJOan852GO59HW07_QX2WneIvOK0LvcavBty8EbAO393ZBEz_SUywvWmKi8hY7pf48joFRKKXAHQ9_sxfcrqgcSKVkwyIuiXizSt9BEXCWeXCCiGHb8NsA8I_8A8K5AGi0byAI34DMItSARPUtoiCGv1Huf21vSMaFHlReZUYQfHhMSvLKj1boa5UI4Wy0xSLbqwwUK525rTF8orC8NW3edfo2Kfn2aPaoOZH9lpQVb3XEo8Z3YELCesAELT9jayy7y_TnWIOHBt0iQGr7fA9QwetTdoomGowji9GzRaudTNRkBY_W9NLbrMbrMMe7YSXJjsxmzEjwgl_uLgHC1cMNktPUIRVAWlleJColQJhzUASHpOASH-vxSfUNHZBD_180kY0O3iS3-GLBCsl1WkU2UUPf3TRcii0M9CM1qz1De-sksocCQ7R5WViJW3yFHY9nVoKm2cCn8PiISpoAnrSXkf2DZ6zmbQH-_iDvdZQYWBsaxht__0S0]--></g></svg>