<svg xmlns="http://www.w3.org/2000/svg" xmlns:xlink="http://www.w3.org/1999/xlink" contentStyleType="text/css" data-diagram-type="ACTIVITY" height="1115px" preserveAspectRatio="none" style="width:797px;height:1115px;background:#FFFFFF;" version="1.1" viewBox="0 0 797 1115" width="797px" zoomAndPan="magnify"><title>&#27963;&#21160;&#22270;&#65306;&#20030;&#25253;&#31649;&#29702;</title><defs/><g><g class="title" data-source-line="1"><text fill="#000000" font-family="sans-serif" font-size="14" font-weight="bold" lengthAdjust="spacing" textLength="115.5" x="339.6206" y="34.3555">&#27963;&#21160;&#22270;&#65306;&#20030;&#25253;&#31649;&#29702;</text></g><rect fill="none" height="22.8516" style="stroke:none;stroke-width:1;" width="764.7412" x="15" y="51.668"/><ellipse cx="97" cy="89.5195" fill="#222222" rx="10" ry="10" style="stroke:#222222;stroke-width:1;"/><rect fill="#F1F1F1" height="35.2344" rx="12.5" ry="12.5" style="stroke:#181818;stroke-width:0.5;" width="121.3203" x="36.3398" y="119.5195"/><text fill="#000000" font-family="sans-serif" font-size="12" lengthAdjust="spacing" textLength="101.3203" x="46.3398" y="141.8242">&#21457;&#29616;&#36829;&#35268;&#24086;&#23376;/&#35780;&#35770;</text><rect fill="#F1F1F1" height="35.2344" rx="12.5" ry="12.5" style="stroke:#181818;stroke-width:0.5;" width="92" x="51" y="174.7539"/><text fill="#000000" font-family="sans-serif" font-size="12" lengthAdjust="spacing" textLength="72" x="61" y="197.0586">&#28857;&#20987;&#20030;&#25253;&#25353;&#38062;</text><rect fill="#F1F1F1" height="35.2344" rx="12.5" ry="12.5" style="stroke:#181818;stroke-width:0.5;" width="152" x="21" y="229.9883"/><text fill="#000000" font-family="sans-serif" font-size="12" lengthAdjust="spacing" textLength="132" x="31" y="252.293">&#36873;&#25321;&#36829;&#35268;&#31867;&#22411;&#24182;&#22635;&#20889;&#29702;&#30001;</text><rect fill="#F1F1F1" height="35.2344" rx="12.5" ry="12.5" style="stroke:#181818;stroke-width:0.5;" width="68" x="63" y="285.2227"/><text fill="#000000" font-family="sans-serif" font-size="12" lengthAdjust="spacing" textLength="48" x="73" y="307.5273">&#25552;&#20132;&#20030;&#25253;</text><line style="stroke:#000000;stroke-width:1.5;" x1="15" x2="15" y1="51.668" y2="1103.2695"/><rect fill="#F1F1F1" height="35.2344" rx="12.5" ry="12.5" style="stroke:#181818;stroke-width:0.5;" width="92" x="307.4478" y="340.457"/><text fill="#000000" font-family="sans-serif" font-size="12" lengthAdjust="spacing" textLength="72" x="317.4478" y="362.7617">&#29983;&#25104;&#20030;&#25253;&#24037;&#21333;</text><rect fill="#F1F1F1" height="35.2344" rx="12.5" ry="12.5" style="stroke:#181818;stroke-width:0.5;" width="104" x="301.4478" y="395.6914"/><text fill="#000000" font-family="sans-serif" font-size="12" lengthAdjust="spacing" textLength="84" x="311.4478" y="417.9961">&#23384;&#20837;&#20030;&#25253;&#25968;&#25454;&#24211;</text><rect fill="#F1F1F1" height="35.2344" rx="12.5" ry="12.5" style="stroke:#181818;stroke-width:0.5;" width="116" x="295.4478" y="450.9258"/><text fill="#000000" font-family="sans-serif" font-size="12" lengthAdjust="spacing" textLength="96" x="305.4478" y="473.2305">&#25552;&#31034;&#29992;&#25143;&#25552;&#20132;&#25104;&#21151;</text><rect fill="#F1F1F1" height="35.2344" rx="12.5" ry="12.5" style="stroke:#181818;stroke-width:0.5;" width="140" x="283.4478" y="506.1602"/><text fill="#000000" font-family="sans-serif" font-size="12" lengthAdjust="spacing" textLength="120" x="293.4478" y="528.4648">&#25512;&#36865;&#21040;&#31649;&#29702;&#21592;&#24453;&#21150;&#38431;&#21015;</text><rect fill="#F1F1F1" height="35.2344" rx="12.5" ry="12.5" style="stroke:#181818;stroke-width:0.5;" width="92" x="215.7451" y="826.332"/><text fill="#000000" font-family="sans-serif" font-size="12" lengthAdjust="spacing" textLength="72" x="225.7451" y="848.6367">&#25191;&#34892;&#22788;&#32602;&#25805;&#20316;</text><rect fill="#F1F1F1" height="35.2344" rx="12.5" ry="12.5" style="stroke:#181818;stroke-width:0.5;" width="157.4902" x="183" y="881.5664"/><text fill="#000000" font-family="sans-serif" font-size="12" lengthAdjust="spacing" textLength="137.4902" x="193" y="903.8711">&#26356;&#26032;&#20869;&#23481;&#29366;&#24577; (&#23631;&#34109;/&#21024;&#38500;)</text><rect fill="#F1F1F1" height="35.2344" rx="12.5" ry="12.5" style="stroke:#181818;stroke-width:0.5;" width="152" x="185.7451" y="936.8008"/><text fill="#000000" font-family="sans-serif" font-size="12" lengthAdjust="spacing" textLength="132" x="195.7451" y="959.1055">&#21521;&#36829;&#35268;&#29992;&#25143;&#21457;&#36865;&#22788;&#32602;&#36890;&#30693;</text><rect fill="#F1F1F1" height="35.2344" rx="12.5" ry="12.5" style="stroke:#181818;stroke-width:0.5;" width="140" x="191.7451" y="992.0352"/><text fill="#000000" font-family="sans-serif" font-size="12" lengthAdjust="spacing" textLength="120" x="201.7451" y="1014.3398">&#21521;&#20030;&#25253;&#20154;&#21457;&#36865;&#21453;&#39304;&#36890;&#30693;</text><rect fill="#F1F1F1" height="35.2344" rx="12.5" ry="12.5" style="stroke:#181818;stroke-width:0.5;" width="133.3203" x="378.4902" y="771.0977"/><text fill="#000000" font-family="sans-serif" font-size="12" lengthAdjust="spacing" textLength="113.3203" x="388.4902" y="793.4023">&#26631;&#35760;&#20026;&#26080;&#25928;&#20030;&#25253;/&#24573;&#30053;</text><rect fill="#F1F1F1" height="35.2344" rx="12.5" ry="12.5" style="stroke:#181818;stroke-width:0.5;" width="140" x="375.1504" y="826.332"/><text fill="#000000" font-family="sans-serif" font-size="12" lengthAdjust="spacing" textLength="120" x="385.1504" y="848.6367">&#26356;&#26032;&#24037;&#21333;&#29366;&#24577;&#20026;&#24050;&#32467;&#26696;</text><ellipse cx="353.4478" cy="1092.2695" fill="none" rx="11" ry="11" style="stroke:#222222;stroke-width:1;"/><ellipse cx="353.4478" cy="1092.2695" fill="#222222" rx="6" ry="6" style="stroke:#222222;stroke-width:1;"/><line style="stroke:#000000;stroke-width:1.5;" x1="177" x2="177" y1="51.668" y2="1103.2695"/><rect fill="#F1F1F1" height="35.2344" rx="12.5" ry="12.5" style="stroke:#181818;stroke-width:0.5;" width="128" x="646.2583" y="561.3945"/><text fill="#000000" font-family="sans-serif" font-size="12" lengthAdjust="spacing" textLength="108" x="656.2583" y="583.6992">&#26597;&#30475;&#24453;&#22788;&#29702;&#20030;&#25253;&#21015;&#34920;</text><rect fill="#F1F1F1" height="35.2344" rx="12.5" ry="12.5" style="stroke:#181818;stroke-width:0.5;" width="116" x="652.2583" y="616.6289"/><text fill="#000000" font-family="sans-serif" font-size="12" lengthAdjust="spacing" textLength="96" x="662.2583" y="638.9336">&#26597;&#30475;&#36829;&#35268;&#20869;&#23481;&#35814;&#24773;</text><rect fill="#F1F1F1" height="35.2344" rx="12.5" ry="12.5" style="stroke:#181818;stroke-width:0.5;" width="92" x="664.2583" y="671.8633"/><text fill="#000000" font-family="sans-serif" font-size="12" lengthAdjust="spacing" textLength="72" x="674.2583" y="694.168">&#21028;&#26029;&#26159;&#21542;&#36829;&#35268;</text><polygon fill="#F1F1F1" points="685.8494,727.0977,734.6672,727.0977,746.6672,739.0977,734.6672,751.0977,685.8494,751.0977,673.8494,739.0977,685.8494,727.0977" style="stroke:#181818;stroke-width:0.5;"/><text fill="#000000" font-family="sans-serif" font-size="11" lengthAdjust="spacing" textLength="48.8179" x="685.8494" y="743.3945">&#30830;&#35748;&#36829;&#35268;?</text><text fill="#000000" font-family="sans-serif" font-size="11" lengthAdjust="spacing" textLength="11" x="662.8494" y="736.4121">&#26159;</text><text fill="#000000" font-family="sans-serif" font-size="11" lengthAdjust="spacing" textLength="11" x="746.6672" y="736.4121">&#21542;</text><rect fill="#F1F1F1" height="35.2344" rx="12.5" ry="12.5" style="stroke:#181818;stroke-width:0.5;" width="186.8105" x="525.1504" y="771.0977"/><text fill="#000000" font-family="sans-serif" font-size="12" lengthAdjust="spacing" textLength="166.8105" x="535.1504" y="793.4023">&#36873;&#25321;&#22788;&#32602;&#25514;&#26045; (&#21024;&#38500;/&#31105;&#35328;/&#23553;&#21495;)</text><polygon fill="#F1F1F1" points="710.2583,1037.2695,722.2583,1049.2695,710.2583,1061.2695,698.2583,1049.2695,710.2583,1037.2695" style="stroke:#181818;stroke-width:0.5;"/><line style="stroke:#000000;stroke-width:1.5;" x1="519.1504" x2="519.1504" y1="51.668" y2="1103.2695"/><line style="stroke:#000000;stroke-width:1.5;" x1="778.2583" x2="778.2583" y1="51.668" y2="1103.2695"/><line style="stroke:#181818;stroke-width:1;" x1="97" x2="97" y1="99.5195" y2="119.5195"/><polygon fill="#181818" points="93,109.5195,97,119.5195,101,109.5195,97,113.5195" style="stroke:#181818;stroke-width:1;"/><line style="stroke:#181818;stroke-width:1;" x1="97" x2="97" y1="154.7539" y2="174.7539"/><polygon fill="#181818" points="93,164.7539,97,174.7539,101,164.7539,97,168.7539" style="stroke:#181818;stroke-width:1;"/><line style="stroke:#181818;stroke-width:1;" x1="97" x2="97" y1="209.9883" y2="229.9883"/><polygon fill="#181818" points="93,219.9883,97,229.9883,101,219.9883,97,223.9883" style="stroke:#181818;stroke-width:1;"/><line style="stroke:#181818;stroke-width:1;" x1="97" x2="97" y1="265.2227" y2="285.2227"/><polygon fill="#181818" points="93,275.2227,97,285.2227,101,275.2227,97,279.2227" style="stroke:#181818;stroke-width:1;"/><line style="stroke:#181818;stroke-width:1;" x1="353.4478" x2="353.4478" y1="375.6914" y2="395.6914"/><polygon fill="#181818" points="349.4478,385.6914,353.4478,395.6914,357.4478,385.6914,353.4478,389.6914" style="stroke:#181818;stroke-width:1;"/><line style="stroke:#181818;stroke-width:1;" x1="353.4478" x2="353.4478" y1="430.9258" y2="450.9258"/><polygon fill="#181818" points="349.4478,440.9258,353.4478,450.9258,357.4478,440.9258,353.4478,444.9258" style="stroke:#181818;stroke-width:1;"/><line style="stroke:#181818;stroke-width:1;" x1="353.4478" x2="353.4478" y1="486.1602" y2="506.1602"/><polygon fill="#181818" points="349.4478,496.1602,353.4478,506.1602,357.4478,496.1602,353.4478,500.1602" style="stroke:#181818;stroke-width:1;"/><line style="stroke:#181818;stroke-width:1;" x1="261.7451" x2="261.7451" y1="861.5664" y2="881.5664"/><polygon fill="#181818" points="257.7451,871.5664,261.7451,881.5664,265.7451,871.5664,261.7451,875.5664" style="stroke:#181818;stroke-width:1;"/><line style="stroke:#181818;stroke-width:1;" x1="261.7451" x2="261.7451" y1="916.8008" y2="936.8008"/><polygon fill="#181818" points="257.7451,926.8008,261.7451,936.8008,265.7451,926.8008,261.7451,930.8008" style="stroke:#181818;stroke-width:1;"/><line style="stroke:#181818;stroke-width:1;" x1="261.7451" x2="261.7451" y1="972.0352" y2="992.0352"/><polygon fill="#181818" points="257.7451,982.0352,261.7451,992.0352,265.7451,982.0352,261.7451,986.0352" style="stroke:#181818;stroke-width:1;"/><line style="stroke:#181818;stroke-width:1;" x1="445.1504" x2="445.1504" y1="806.332" y2="826.332"/><polygon fill="#181818" points="441.1504,816.332,445.1504,826.332,449.1504,816.332,445.1504,820.332" style="stroke:#181818;stroke-width:1;"/><line style="stroke:#181818;stroke-width:1;" x1="710.2583" x2="710.2583" y1="596.6289" y2="616.6289"/><polygon fill="#181818" points="706.2583,606.6289,710.2583,616.6289,714.2583,606.6289,710.2583,610.6289" style="stroke:#181818;stroke-width:1;"/><line style="stroke:#181818;stroke-width:1;" x1="710.2583" x2="710.2583" y1="651.8633" y2="671.8633"/><polygon fill="#181818" points="706.2583,661.8633,710.2583,671.8633,714.2583,661.8633,710.2583,665.8633" style="stroke:#181818;stroke-width:1;"/><line style="stroke:#181818;stroke-width:1;" x1="673.8494" x2="618.5557" y1="739.0977" y2="739.0977"/><line style="stroke:#181818;stroke-width:1;" x1="618.5557" x2="618.5557" y1="739.0977" y2="771.0977"/><polygon fill="#181818" points="614.5557,761.0977,618.5557,771.0977,622.5557,761.0977,618.5557,765.0977" style="stroke:#181818;stroke-width:1;"/><line style="stroke:#181818;stroke-width:1;" x1="710.2583" x2="710.2583" y1="707.0977" y2="727.0977"/><polygon fill="#181818" points="706.2583,717.0977,710.2583,727.0977,714.2583,717.0977,710.2583,721.0977" style="stroke:#181818;stroke-width:1;"/><line style="stroke:#181818;stroke-width:1;" x1="97" x2="97" y1="320.457" y2="325.457"/><line style="stroke:#181818;stroke-width:1;" x1="97" x2="353.4478" y1="325.457" y2="325.457"/><line style="stroke:#181818;stroke-width:1;" x1="353.4478" x2="353.4478" y1="325.457" y2="340.457"/><polygon fill="#181818" points="349.4478,330.457,353.4478,340.457,357.4478,330.457,353.4478,334.457" style="stroke:#181818;stroke-width:1;"/><line style="stroke:#181818;stroke-width:1;" x1="353.4478" x2="353.4478" y1="541.3945" y2="546.3945"/><line style="stroke:#181818;stroke-width:1;" x1="353.4478" x2="710.2583" y1="546.3945" y2="546.3945"/><line style="stroke:#181818;stroke-width:1;" x1="710.2583" x2="710.2583" y1="546.3945" y2="561.3945"/><polygon fill="#181818" points="706.2583,551.3945,710.2583,561.3945,714.2583,551.3945,710.2583,555.3945" style="stroke:#181818;stroke-width:1;"/><line style="stroke:#181818;stroke-width:1;" x1="618.5557" x2="618.5557" y1="806.332" y2="811.332"/><line style="stroke:#181818;stroke-width:1;" x1="618.5557" x2="261.7451" y1="811.332" y2="811.332"/><line style="stroke:#181818;stroke-width:1;" x1="261.7451" x2="261.7451" y1="811.332" y2="826.332"/><polygon fill="#181818" points="257.7451,816.332,261.7451,826.332,265.7451,816.332,261.7451,820.332" style="stroke:#181818;stroke-width:1;"/><line style="stroke:#181818;stroke-width:1;" x1="746.6672" x2="758.6672" y1="739.0977" y2="739.0977"/><line style="stroke:#181818;stroke-width:1;" x1="758.6672" x2="758.6672" y1="739.0977" y2="757.0977"/><line style="stroke:#181818;stroke-width:1;" x1="758.6672" x2="445.1504" y1="757.0977" y2="757.0977"/><line style="stroke:#181818;stroke-width:1;" x1="445.1504" x2="445.1504" y1="757.0977" y2="771.0977"/><polygon fill="#181818" points="441.1504,761.0977,445.1504,771.0977,449.1504,761.0977,445.1504,765.0977" style="stroke:#181818;stroke-width:1;"/><line style="stroke:#181818;stroke-width:1;" x1="261.7451" x2="261.7451" y1="1027.2695" y2="1049.2695"/><line style="stroke:#181818;stroke-width:1;" x1="261.7451" x2="698.2583" y1="1049.2695" y2="1049.2695"/><polygon fill="#181818" points="688.2583,1045.2695,698.2583,1049.2695,688.2583,1053.2695,692.2583,1049.2695" style="stroke:#181818;stroke-width:1;"/><line style="stroke:#181818;stroke-width:1;" x1="445.1504" x2="445.1504" y1="861.5664" y2="1031.2695"/><line style="stroke:#181818;stroke-width:1;" x1="445.1504" x2="740.2583" y1="1031.2695" y2="1031.2695"/><line style="stroke:#181818;stroke-width:1;" x1="740.2583" x2="740.2583" y1="1031.2695" y2="1049.2695"/><line style="stroke:#181818;stroke-width:1;" x1="740.2583" x2="722.2583" y1="1049.2695" y2="1049.2695"/><polygon fill="#181818" points="732.2583,1045.2695,722.2583,1049.2695,732.2583,1053.2695,728.2583,1049.2695" style="stroke:#181818;stroke-width:1;"/><line style="stroke:#181818;stroke-width:1;" x1="710.2583" x2="710.2583" y1="1061.2695" y2="1066.2695"/><line style="stroke:#181818;stroke-width:1;" x1="710.2583" x2="353.4478" y1="1066.2695" y2="1066.2695"/><line style="stroke:#181818;stroke-width:1;" x1="353.4478" x2="353.4478" y1="1066.2695" y2="1081.2695"/><polygon fill="#181818" points="349.4478,1071.2695,353.4478,1081.2695,357.4478,1071.2695,353.4478,1075.2695" style="stroke:#181818;stroke-width:1;"/><text fill="#000000" font-family="sans-serif" font-size="18" lengthAdjust="spacing" textLength="36" x="78" y="70.125">&#29992;&#25143;</text><text fill="#000000" font-family="sans-serif" font-size="18" lengthAdjust="spacing" textLength="36" x="330.0752" y="70.125">&#31995;&#32479;</text><text fill="#000000" font-family="sans-serif" font-size="18" lengthAdjust="spacing" textLength="54" x="621.7043" y="70.125">&#31649;&#29702;&#21592;</text><!--SRC=[RLAzSjf04Exr52gXeeV2HPw4n3XcJC03ogIX00Um08D4-3LsB3GZOIKUX4Wy1gI0NuRTErLvXPnq8ccYylRxssybPQLSHiHd3reMtEr__veUDdjicSJMYTeGIXVP_6MwcFuWlas_ktXVB7pCdxufv0f5yTDvLie8GfaCB9JNPQ4afOkIa0IbHxeEVVrA7skm6S52JT1bZTfkIaYIgorSUrmVRvh-5viz-fKcjhzn0bbvyD26xGleJz2uPG78OCKmgAW7r-34LE3vqoEULcQA0mrbbGzWRK9doD2mc43TZ6o63dPiSFjSXHWkpyiL6HTQMZ3gMdwb2hB3ruRU1FPrQ3tu4mtaSMXv731Nr4notmuGHeqzHlRocEfMwZYD6cZKmTxIvHm_ruDaie6Z1KwMeCuvW4bdpyGOqMrg6_pf92vAvvcy66Euk22oB-eeSDjDiViTHpin1lBClpKIP5wbLYK1JXMKTJmLul_s4vAn-KZrcuZSxnnszwbeSFUC8uT79AqNh5IPwagXWrs2YqToIL1xqNt2xjY9Wx92GRyo9Phv3yUxEBXk158w_bm-WZAvKePPgFDeBPnTKzivR5mSpt0eSsu2NdTaQFvt4nuul3CFpBYm_a6yFkeoqy-VPiy4zYSMBly0]--></g></svg>