<svg xmlns="http://www.w3.org/2000/svg" xmlns:xlink="http://www.w3.org/1999/xlink" contentStyleType="text/css" data-diagram-type="SEQUENCE" height="778px" preserveAspectRatio="none" style="width:1209px;height:778px;background:#FFFFFF;" version="1.1" viewBox="0 0 1209 778" width="1209px" zoomAndPan="magnify"><title>&#29992;&#25143;&#22312;&#25351;&#23450;&#26495;&#22359;&#21457;&#24067;&#22270;&#25991;&#24086;&#39034;&#24207;&#22270;</title><defs/><g><text fill="#000000" font-family="sans-serif" font-size="14" font-weight="bold" lengthAdjust="spacing" textLength="216.5625" x="497.426" y="29.3555">&#29992;&#25143;&#22312;&#25351;&#23450;&#26495;&#22359;&#21457;&#24067;&#22270;&#25991;&#24086;&#39034;&#24207;&#22270;</text><rect fill="none" height="326.9688" style="stroke:#000000;stroke-width:1.5;" width="948.4766" x="253.938" y="321.5703"/><rect fill="none" height="186.9883" style="stroke:#000000;stroke-width:1.5;" width="928.4766" x="263.938" y="408.082"/><g><title>User</title><rect fill="#000000" fill-opacity="0.00000" height="574.4961" width="8" x="18.7144" y="121.5469"/><line style="stroke:#181818;stroke-width:0.5;stroke-dasharray:5,5;" x1="22" x2="22" y1="121.5469" y2="696.043"/></g><g><title>PostUI</title><rect fill="#000000" fill-opacity="0.00000" height="574.4961" width="8" x="298.6011" y="121.5469"/><line style="stroke:#181818;stroke-width:0.5;stroke-dasharray:5,5;" x1="301.938" x2="301.938" y1="121.5469" y2="696.043"/></g><g><title>PostController</title><rect fill="#000000" fill-opacity="0.00000" height="574.4961" width="8" x="548.5586" y="121.5469"/><line style="stroke:#181818;stroke-width:0.5;stroke-dasharray:5,5;" x1="551.9531" x2="551.9531" y1="121.5469" y2="696.043"/></g><g><title>UserStatusChecker</title><rect fill="#000000" fill-opacity="0.00000" height="574.4961" width="8" x="743.5137" y="121.5469"/><line style="stroke:#181818;stroke-width:0.5;stroke-dasharray:5,5;" x1="747.1304" x2="747.1304" y1="121.5469" y2="696.043"/></g><g><title>ContentReviewSystem</title><rect fill="#000000" fill-opacity="0.00000" height="574.4961" width="8" x="902.4517" y="121.5469"/><line style="stroke:#181818;stroke-width:0.5;stroke-dasharray:5,5;" x1="905.897" x2="905.897" y1="121.5469" y2="696.043"/></g><g><title>PostDB</title><rect fill="#000000" fill-opacity="0.00000" height="574.4961" width="8" x="1020.0381" y="121.5469"/><line style="stroke:#181818;stroke-width:0.5;stroke-dasharray:5,5;" x1="1024.0063" x2="1024.0063" y1="121.5469" y2="696.043"/></g><g><title>SectionManager</title><rect fill="#000000" fill-opacity="0.00000" height="574.4961" width="8" x="1117.7422" y="121.5469"/><line style="stroke:#181818;stroke-width:0.5;stroke-dasharray:5,5;" x1="1121.0698" x2="1121.0698" y1="121.5469" y2="696.043"/></g><g class="participant participant-head" data-participant="User"><text fill="#000000" font-family="sans-serif" font-size="14" lengthAdjust="spacing" textLength="29.4287" x="5" y="118.1289">User</text><ellipse cx="22.7144" cy="52.2734" fill="#E2E2F0" rx="8" ry="8" style="stroke:#181818;stroke-width:0.5;"/><path d="M22.7144,60.2734 L22.7144,87.2734 M9.7144,68.2734 L35.7144,68.2734 M22.7144,87.2734 L9.7144,102.2734 M22.7144,87.2734 L35.7144,102.2734" fill="none" style="stroke:#181818;stroke-width:0.5;"/></g><g class="participant participant-tail" data-participant="User"><text fill="#000000" font-family="sans-serif" font-size="14" lengthAdjust="spacing" textLength="29.4287" x="5" y="709.3984">User</text><ellipse cx="22.7144" cy="721.3164" fill="#E2E2F0" rx="8" ry="8" style="stroke:#181818;stroke-width:0.5;"/><path d="M22.7144,729.3164 L22.7144,756.3164 M9.7144,737.3164 L35.7144,737.3164 M22.7144,756.3164 L9.7144,771.3164 M22.7144,756.3164 L35.7144,771.3164" fill="none" style="stroke:#181818;stroke-width:0.5;"/></g><g class="participant participant-head" data-participant="PostUI"><rect fill="#E2E2F0" height="31.7734" rx="2.5" ry="2.5" style="stroke:#181818;stroke-width:0.5;" width="57.3262" x="273.938" y="88.7734"/><text fill="#000000" font-family="sans-serif" font-size="14" lengthAdjust="spacing" textLength="43.3262" x="280.938" y="110.1289">PostUI</text></g><g class="participant participant-tail" data-participant="PostUI"><rect fill="#E2E2F0" height="31.7734" rx="2.5" ry="2.5" style="stroke:#181818;stroke-width:0.5;" width="57.3262" x="273.938" y="695.043"/><text fill="#000000" font-family="sans-serif" font-size="14" lengthAdjust="spacing" textLength="43.3262" x="280.938" y="716.3984">PostUI</text></g><g class="participant participant-head" data-participant="PostController"><rect fill="#E2E2F0" height="31.7734" rx="2.5" ry="2.5" style="stroke:#181818;stroke-width:0.5;" width="109.2109" x="497.9531" y="88.7734"/><text fill="#000000" font-family="sans-serif" font-size="14" lengthAdjust="spacing" textLength="95.2109" x="504.9531" y="110.1289">PostController</text></g><g class="participant participant-tail" data-participant="PostController"><rect fill="#E2E2F0" height="31.7734" rx="2.5" ry="2.5" style="stroke:#181818;stroke-width:0.5;" width="109.2109" x="497.9531" y="695.043"/><text fill="#000000" font-family="sans-serif" font-size="14" lengthAdjust="spacing" textLength="95.2109" x="504.9531" y="716.3984">PostController</text></g><g class="participant participant-head" data-participant="UserStatusChecker"><rect fill="#E2E2F0" height="31.7734" rx="2.5" ry="2.5" style="stroke:#181818;stroke-width:0.5;" width="136.7666" x="679.1304" y="88.7734"/><text fill="#000000" font-family="sans-serif" font-size="14" lengthAdjust="spacing" textLength="122.7666" x="686.1304" y="110.1289">UserStatusChecker</text></g><g class="participant participant-tail" data-participant="UserStatusChecker"><rect fill="#E2E2F0" height="31.7734" rx="2.5" ry="2.5" style="stroke:#181818;stroke-width:0.5;" width="136.7666" x="679.1304" y="695.043"/><text fill="#000000" font-family="sans-serif" font-size="14" lengthAdjust="spacing" textLength="122.7666" x="686.1304" y="716.3984">UserStatusChecker</text></g><g class="participant participant-head" data-participant="ContentReviewSystem"><rect fill="#E2E2F0" height="31.7734" rx="2.5" ry="2.5" style="stroke:#181818;stroke-width:0.5;" width="161.1094" x="825.897" y="88.7734"/><text fill="#000000" font-family="sans-serif" font-size="14" lengthAdjust="spacing" textLength="147.1094" x="832.897" y="110.1289">ContentReviewSystem</text></g><g class="participant participant-tail" data-participant="ContentReviewSystem"><rect fill="#E2E2F0" height="31.7734" rx="2.5" ry="2.5" style="stroke:#181818;stroke-width:0.5;" width="161.1094" x="825.897" y="695.043"/><text fill="#000000" font-family="sans-serif" font-size="14" lengthAdjust="spacing" textLength="147.1094" x="832.897" y="716.3984">ContentReviewSystem</text></g><g class="participant participant-head" data-participant="PostDB"><text fill="#000000" font-family="sans-serif" font-size="14" lengthAdjust="spacing" textLength="48.0635" x="997.0063" y="118.1289">PostDB</text><path d="M1006.0381,67.7734 C1006.0381,57.7734 1024.0381,57.7734 1024.0381,57.7734 C1024.0381,57.7734 1042.0381,57.7734 1042.0381,67.7734 L1042.0381,93.7734 C1042.0381,103.7734 1024.0381,103.7734 1024.0381,103.7734 C1024.0381,103.7734 1006.0381,103.7734 1006.0381,93.7734 L1006.0381,67.7734" fill="#E2E2F0" style="stroke:#181818;stroke-width:0.5;"/><path d="M1006.0381,67.7734 C1006.0381,77.7734 1024.0381,77.7734 1024.0381,77.7734 C1024.0381,77.7734 1042.0381,77.7734 1042.0381,67.7734" fill="none" style="stroke:#181818;stroke-width:0.5;"/></g><g class="participant participant-tail" data-participant="PostDB"><text fill="#000000" font-family="sans-serif" font-size="14" lengthAdjust="spacing" textLength="48.0635" x="997.0063" y="709.3984">PostDB</text><path d="M1006.0381,722.8164 C1006.0381,712.8164 1024.0381,712.8164 1024.0381,712.8164 C1024.0381,712.8164 1042.0381,712.8164 1042.0381,722.8164 L1042.0381,748.8164 C1042.0381,758.8164 1024.0381,758.8164 1024.0381,758.8164 C1024.0381,758.8164 1006.0381,758.8164 1006.0381,748.8164 L1006.0381,722.8164" fill="#E2E2F0" style="stroke:#181818;stroke-width:0.5;"/><path d="M1006.0381,722.8164 C1006.0381,732.8164 1024.0381,732.8164 1024.0381,732.8164 C1024.0381,732.8164 1042.0381,732.8164 1042.0381,722.8164" fill="none" style="stroke:#181818;stroke-width:0.5;"/></g><g class="participant participant-head" data-participant="SectionManager"><rect fill="#E2E2F0" height="31.7734" rx="2.5" ry="2.5" style="stroke:#181818;stroke-width:0.5;" width="121.3447" x="1061.0698" y="88.7734"/><text fill="#000000" font-family="sans-serif" font-size="14" lengthAdjust="spacing" textLength="107.3447" x="1068.0698" y="110.1289">SectionManager</text></g><g class="participant participant-tail" data-participant="SectionManager"><rect fill="#E2E2F0" height="31.7734" rx="2.5" ry="2.5" style="stroke:#181818;stroke-width:0.5;" width="121.3447" x="1061.0698" y="695.043"/><text fill="#000000" font-family="sans-serif" font-size="14" lengthAdjust="spacing" textLength="107.3447" x="1068.0698" y="716.3984">SectionManager</text></g><g class="message" data-participant-1="User" data-participant-2="PostUI"><polygon fill="#181818" points="290.6011,150.0508,300.6011,154.0508,290.6011,158.0508,294.6011,154.0508" style="stroke:#181818;stroke-width:1;"/><line style="stroke:#181818;stroke-width:1;" x1="22.7144" x2="296.6011" y1="154.0508" y2="154.0508"/><text fill="#000000" font-family="sans-serif" font-size="13" lengthAdjust="spacing" textLength="255.8867" x="29.7144" y="148.877">1. inputPostContent(title, content, media)</text></g><g class="message" data-participant-1="User" data-participant-2="PostUI"><polygon fill="#181818" points="290.6011,180.5547,300.6011,184.5547,290.6011,188.5547,294.6011,184.5547" style="stroke:#181818;stroke-width:1;"/><line style="stroke:#181818;stroke-width:1;" x1="22.7144" x2="296.6011" y1="184.5547" y2="184.5547"/><text fill="#000000" font-family="sans-serif" font-size="13" lengthAdjust="spacing" textLength="186.5259" x="29.7144" y="179.3809">2. selectPostSection(sectionId)</text></g><g class="message" data-participant-1="User" data-participant-2="PostUI"><polygon fill="#181818" points="290.6011,211.0586,300.6011,215.0586,290.6011,219.0586,294.6011,215.0586" style="stroke:#181818;stroke-width:1;"/><line style="stroke:#181818;stroke-width:1;" x1="22.7144" x2="296.6011" y1="215.0586" y2="215.0586"/><text fill="#000000" font-family="sans-serif" font-size="13" lengthAdjust="spacing" textLength="203.106" x="29.7144" y="209.8848">3. submitPost(content, sectionId)</text></g><g class="message" data-participant-1="PostUI" data-participant-2="PostController"><polygon fill="#181818" points="540.5586,241.5625,550.5586,245.5625,540.5586,249.5625,544.5586,245.5625" style="stroke:#181818;stroke-width:1;"/><line style="stroke:#181818;stroke-width:1;" x1="302.6011" x2="546.5586" y1="245.5625" y2="245.5625"/><text fill="#000000" font-family="sans-serif" font-size="13" lengthAdjust="spacing" textLength="188.519" x="309.6011" y="240.3887">submitPost(content, sectionId)</text></g><g class="message" data-participant-1="PostController" data-participant-2="UserStatusChecker"><polygon fill="#181818" points="735.5137,272.0664,745.5137,276.0664,735.5137,280.0664,739.5137,276.0664" style="stroke:#181818;stroke-width:1;"/><line style="stroke:#181818;stroke-width:1;" x1="552.5586" x2="741.5137" y1="276.0664" y2="276.0664"/><text fill="#000000" font-family="sans-serif" font-size="13" lengthAdjust="spacing" textLength="168.9365" x="559.5586" y="270.8926">4. checkLoginStatus(userId)</text></g><g class="message" data-participant-1="UserStatusChecker" data-participant-2="PostController"><polygon fill="#181818" points="563.5586,302.5703,553.5586,306.5703,563.5586,310.5703,559.5586,306.5703" style="stroke:#181818;stroke-width:1;"/><line style="stroke:#181818;stroke-width:1;stroke-dasharray:2,2;" x1="557.5586" x2="746.5137" y1="306.5703" y2="306.5703"/><text fill="#000000" font-family="sans-serif" font-size="13" lengthAdjust="spacing" textLength="170.9551" x="569.5586" y="301.3965">5. returnLoginStatus(status)</text></g><path d="M253.938,321.5703 L314.6865,321.5703 L314.6865,330.0742 L304.6865,340.0742 L253.938,340.0742 L253.938,321.5703" fill="#EEEEEE" style="stroke:#000000;stroke-width:1.5;"/><rect fill="none" height="326.9688" style="stroke:#000000;stroke-width:1.5;" width="948.4766" x="253.938" y="321.5703"/><text fill="#000000" font-family="sans-serif" font-size="13" font-weight="bold" lengthAdjust="spacing" textLength="15.7485" x="268.938" y="335.9004">alt</text><text fill="#000000" font-family="sans-serif" font-size="11" font-weight="bold" lengthAdjust="spacing" textLength="42.1523" x="329.6865" y="334.8496">[&#24050;&#30331;&#24405;]</text><g class="message" data-participant-1="PostController" data-participant-2="ContentReviewSystem"><polygon fill="#181818" points="894.4517,358.5781,904.4517,362.5781,894.4517,366.5781,898.4517,362.5781" style="stroke:#181818;stroke-width:1;"/><line style="stroke:#181818;stroke-width:1;" x1="552.5586" x2="900.4517" y1="362.5781" y2="362.5781"/><text fill="#000000" font-family="sans-serif" font-size="13" lengthAdjust="spacing" textLength="187.2495" x="559.5586" y="357.4043">6. reviewPostContent(content)</text></g><g class="message" data-participant-1="ContentReviewSystem" data-participant-2="PostController"><polygon fill="#181818" points="563.5586,389.082,553.5586,393.082,563.5586,397.082,559.5586,393.082" style="stroke:#181818;stroke-width:1;"/><line style="stroke:#181818;stroke-width:1;stroke-dasharray:2,2;" x1="557.5586" x2="905.4517" y1="393.082" y2="393.082"/><text fill="#000000" font-family="sans-serif" font-size="13" lengthAdjust="spacing" textLength="178.4136" x="569.5586" y="387.9082">7. returnReviewResult(result)</text></g><path d="M263.938,408.082 L324.6865,408.082 L324.6865,416.5859 L314.6865,426.5859 L263.938,426.5859 L263.938,408.082" fill="#EEEEEE" style="stroke:#000000;stroke-width:1.5;"/><rect fill="none" height="186.9883" style="stroke:#000000;stroke-width:1.5;" width="928.4766" x="263.938" y="408.082"/><text fill="#000000" font-family="sans-serif" font-size="13" font-weight="bold" lengthAdjust="spacing" textLength="15.7485" x="278.938" y="422.4121">alt</text><text fill="#000000" font-family="sans-serif" font-size="11" font-weight="bold" lengthAdjust="spacing" textLength="53.4961" x="339.6865" y="421.3613">[&#23457;&#26680;&#36890;&#36807;]</text><g class="message" data-participant-1="PostController" data-participant-2="PostDB"><polygon fill="#181818" points="1012.0381,445.0898,1022.0381,449.0898,1012.0381,453.0898,1016.0381,449.0898" style="stroke:#181818;stroke-width:1;"/><line style="stroke:#181818;stroke-width:1;" x1="552.5586" x2="1018.0381" y1="449.0898" y2="449.0898"/><text fill="#000000" font-family="sans-serif" font-size="13" lengthAdjust="spacing" textLength="302.3643" x="559.5586" y="443.916">8. savePostInfo(userId, content, sectionId, media)</text></g><g class="message" data-participant-1="PostController" data-participant-2="SectionManager"><polygon fill="#181818" points="1109.7422,475.5938,1119.7422,479.5938,1109.7422,483.5938,1113.7422,479.5938" style="stroke:#181818;stroke-width:1;"/><line style="stroke:#181818;stroke-width:1;" x1="552.5586" x2="1115.7422" y1="479.5938" y2="479.5938"/><text fill="#000000" font-family="sans-serif" font-size="13" lengthAdjust="spacing" textLength="198.2183" x="559.5586" y="474.4199">9. updateSectionStats(sectionId)</text></g><g class="message" data-participant-1="PostDB" data-participant-2="PostController"><polygon fill="#181818" points="563.5586,506.0977,553.5586,510.0977,563.5586,514.0977,559.5586,510.0977" style="stroke:#181818;stroke-width:1;"/><line style="stroke:#181818;stroke-width:1;stroke-dasharray:2,2;" x1="557.5586" x2="1023.0381" y1="510.0977" y2="510.0977"/><text fill="#000000" font-family="sans-serif" font-size="13" lengthAdjust="spacing" textLength="173.3545" x="569.5586" y="504.9238">10. returnPostResult(postId)</text></g><g class="message" data-participant-1="PostController" data-participant-2="PostUI"><polygon fill="#181818" points="313.6011,536.6016,303.6011,540.6016,313.6011,544.6016,309.6011,540.6016" style="stroke:#181818;stroke-width:1;"/><line style="stroke:#181818;stroke-width:1;" x1="307.6011" x2="551.5586" y1="540.6016" y2="540.6016"/><text fill="#000000" font-family="sans-serif" font-size="13" lengthAdjust="spacing" textLength="225.9575" x="319.6011" y="535.4277">11. showPostSuccess(postId, section)</text></g><line style="stroke:#000000;stroke-width:1;stroke-dasharray:2,2;" x1="263.938" x2="1192.4146" y1="549.6016" y2="549.6016"/><text fill="#000000" font-family="sans-serif" font-size="11" font-weight="bold" lengthAdjust="spacing" textLength="42.1523" x="268.938" y="560.8809">[&#38656;&#20462;&#25913;]</text><g class="message" data-participant-1="PostController" data-participant-2="PostUI"><polygon fill="#181818" points="313.6011,583.0703,303.6011,587.0703,313.6011,591.0703,309.6011,587.0703" style="stroke:#181818;stroke-width:1;"/><line style="stroke:#181818;stroke-width:1;" x1="307.6011" x2="551.5586" y1="587.0703" y2="587.0703"/><text fill="#000000" font-family="sans-serif" font-size="13" lengthAdjust="spacing" textLength="91" x="319.6011" y="581.8965">&#25552;&#31034;&#20869;&#23481;&#38656;&#20462;&#25913;</text></g><line style="stroke:#000000;stroke-width:1;stroke-dasharray:2,2;" x1="253.938" x2="1202.4146" y1="603.0703" y2="603.0703"/><text fill="#000000" font-family="sans-serif" font-size="11" font-weight="bold" lengthAdjust="spacing" textLength="42.1523" x="258.938" y="614.3496">[&#26410;&#30331;&#24405;]</text><g class="message" data-participant-1="PostController" data-participant-2="PostUI"><polygon fill="#181818" points="313.6011,636.5391,303.6011,640.5391,313.6011,644.5391,309.6011,640.5391" style="stroke:#181818;stroke-width:1;"/><line style="stroke:#181818;stroke-width:1;" x1="307.6011" x2="551.5586" y1="640.5391" y2="640.5391"/><text fill="#000000" font-family="sans-serif" font-size="13" lengthAdjust="spacing" textLength="91" x="319.6011" y="635.3652">&#25552;&#31034;&#29992;&#25143;&#20808;&#30331;&#24405;</text></g><g class="message" data-participant-1="PostUI" data-participant-2="User"><polygon fill="#181818" points="33.7144,674.043,23.7144,678.043,33.7144,682.043,29.7144,678.043" style="stroke:#181818;stroke-width:1;"/><line style="stroke:#181818;stroke-width:1;stroke-dasharray:2,2;" x1="27.7144" x2="301.6011" y1="678.043" y2="678.043"/><text fill="#000000" font-family="sans-serif" font-size="13" lengthAdjust="spacing" textLength="181.9365" x="39.7144" y="672.8691">&#26174;&#31034;&#21457;&#24086;&#32467;&#26524; / &#36339;&#36716;&#24086;&#23376;&#35814;&#24773;&#39029;</text></g><!--SRC=[ZPJTRjCm5CVlynI-JAKjC3x7BhXWt5G22QtQ0tY9sI9I9ugT8UucJQMxGEeGMzb7XwY4fWb1aK2eNQUjBuFTzYquJjoGDW6M6yl7v__p_zZ7uIxt21hkdScThcYToJTrqJcI9mDnybuqtehUjZY-aisww3N7xRxeDs1g6DZcVeXM6GcD08VSjTq0KuwU-OolbdEXPP_oqFUycMmbht3C8xQyGUmNCwjAH2XV8PikULbvnJYf6WxcU0qp4bCVFvhAhn2RkpvzYYbU1vIXw6Z-eVQ4bj22XLmQH7pY2E0cLyNF8JkPpg4gSLnSocjlMOWH3tPG4RsJoPAnx9GAThiDYcYjwiOACzqWgz6vMlNda41z7Mb608ZSOGBbZeLiDNdYhxiqMJGZo5E8VFvyaP6x5We9ZqAQPR1u01lOuqXqlmyFByJble7Wonihk4VWtbDS5SdUXYwr59EAT8KMxqyi9gahX4KUDyDu08-A5VlijEN7tdZhQ3Ieny5Ykqbd0NOHBX1l4ZKlq-U-FhXChwJtaRRDtwdJpGdq1nQA0cXdebVKoR9iHsLPuAUmyeMRazBLaYuyK8QTqdzAJ5u4F0csuSTtK8bicp2cvMbr2OTuyER6hQrVWuxSExyEMZPsXv_wudLDTCwdXOGwHioJhS__R9mPblv3rNQqI77I9wGVW4e-k58RgpzNStZnJdveeHjerFqnklm24V5rT_JjL6xNnksVncy0]--></g></svg>