<svg xmlns="http://www.w3.org/2000/svg" xmlns:xlink="http://www.w3.org/1999/xlink" contentStyleType="text/css" data-diagram-type="STATE" height="1242.6696px" preserveAspectRatio="none" style="width:600px;height:1242px;background:#FFFFFF;" version="1.1" viewBox="0 0 600 1242" width="600.6059px" zoomAndPan="magnify"><title>&#29992;&#25143;&#36134;&#21495;&#29983;&#21629;&#21608;&#26399;&#29366;&#24577;&#22270;</title><defs/><g><g class="title" data-source-line="1"><text fill="#000000" font-family="sans-serif" font-size="14.8823" font-weight="bold" lengthAdjust="spacing" textLength="168.8208" x="208.68" y="25.8903">&#29992;&#25143;&#36134;&#21495;&#29983;&#21629;&#21608;&#26399;&#29366;&#24577;&#22270;</text></g><path d="M253.647,151.7709 L357.4084,151.7709 A13.2877,13.2877 0 0 1 370.6961,165.0587 L370.6961,181.2946 L240.3593,181.2946 L240.3593,165.0587 A13.2877,13.2877 0 0 1 253.647,151.7709" fill="#F1F1F1"/><rect fill="none" height="294.2155" rx="13.2877" ry="13.2877" style="stroke:#181818;stroke-width:0.5315;" width="130.3368" x="240.3593" y="151.7709"/><line style="stroke:#181818;stroke-width:0.5315;" x1="240.3593" x2="370.6961" y1="181.2946" y2="181.2946"/><text fill="#000000" font-family="sans-serif" font-size="14.8823" lengthAdjust="spacing" textLength="90.7615" x="260.1469" y="172.3462">Unregistered</text><ellipse cx="303.7259" cy="203.618" fill="#222222" rx="10.6302" ry="10.6302" style="stroke:#222222;stroke-width:1.063;"/><g id="Unregistered.Guest"><rect fill="#F1F1F1" height="53.151" rx="13.2877" ry="13.2877" style="stroke:#181818;stroke-width:0.5315;" width="61.2347" x="273.1109" y="271.6513"/><line style="stroke:#181818;stroke-width:0.5315;" x1="273.1109" x2="334.3456" y1="301.175" y2="301.175"/><text fill="#000000" font-family="sans-serif" font-size="14.8823" lengthAdjust="spacing" textLength="39.9743" x="283.7411" y="292.2265">Guest</text></g><g id="Unregistered.Registering"><rect fill="#F1F1F1" height="53.151" rx="13.2877" ry="13.2877" style="stroke:#181818;stroke-width:0.5315;" width="101.2308" x="253.1155" y="382.2053"/><line style="stroke:#181818;stroke-width:0.5315;" x1="253.1155" x2="354.3463" y1="411.729" y2="411.729"/><text fill="#000000" font-family="sans-serif" font-size="14.8823" lengthAdjust="spacing" textLength="79.9704" x="263.7457" y="402.7805">Registering</text></g><!--link *start*Unregistered to Guest--><g class="link" data-entity-1=".start.Unregistered" data-entity-2="Guest" data-source-line="7" data-uid="lnk6" id="link_.start.Unregistered_Guest"><path d="M303.7259,214.5778 C303.7259,228.0037 303.7259,246.075 303.7259,264.9011" fill="none" id="*start*Unregistered-to-Guest" style="stroke:#181818;stroke-width:1.063;"/><polygon fill="#181818" points="303.7259,271.2792,307.978,261.712,303.7259,265.9641,299.4738,261.712,303.7259,271.2792" style="stroke:#181818;stroke-width:1.063;"/><text fill="#000000" font-family="sans-serif" font-size="13.8193" lengthAdjust="spacing" textLength="55.277" x="304.7889" y="248.6157">&#28216;&#23458;&#27983;&#35272;</text></g><!--link Guest to Registering--><g class="link" data-entity-1="Guest" data-entity-2="Registering" data-source-line="8" data-uid="lnk8" id="link_Guest_Registering"><path d="M275.6622,325.0361 C271.0487,330.7658 266.956,337.1758 264.3942,343.9366 C259.3873,357.2031 261.7773,365.7664 270.7598,376.9281" fill="none" id="Guest-to-Registering" style="stroke:#181818;stroke-width:1.063;"/><polygon fill="#181818" points="274.7586,381.897,272.073,371.7778,271.4263,377.7562,265.4478,377.1095,274.7586,381.897" style="stroke:#181818;stroke-width:1.063;"/><text fill="#000000" font-family="sans-serif" font-size="13.8193" lengthAdjust="spacing" textLength="55.277" x="265.4572" y="359.1697">&#28857;&#20987;&#27880;&#20876;</text></g><!--link Registering to Guest--><g class="link" data-entity-1="Registering" data-entity-2="Guest" data-source-line="9" data-uid="lnk9" id="link_Registering_Guest"><path d="M316.7904,381.8864 C321.1169,370.3739 324.2634,356.5865 321.7972,343.9366 C320.5854,337.6967 320.8126,337.1783 318.4739,331.1616" fill="none" id="Registering-to-Guest" style="stroke:#181818;stroke-width:1.063;"/><polygon fill="#181818" points="316.1632,325.2168,315.6661,335.6745,318.0888,330.1708,323.5925,332.5936,316.1632,325.2168" style="stroke:#181818;stroke-width:1.063;"/><text fill="#000000" font-family="sans-serif" font-size="13.8193" lengthAdjust="spacing" textLength="27.6385" x="323.7319" y="359.1697">&#21462;&#28040;</text></g><path d="M204.6206,528.8983 L406.435,528.8983 A13.2877,13.2877 0 0 1 419.7228,542.186 L419.7228,558.422 L191.3328,558.422 L191.3328,542.186 A13.2877,13.2877 0 0 1 204.6206,528.8983" fill="#F1F1F1"/><rect fill="none" height="294.2155" rx="13.2877" ry="13.2877" style="stroke:#181818;stroke-width:0.5315;" width="228.3899" x="191.3328" y="528.8983"/><line style="stroke:#181818;stroke-width:0.5315;" x1="191.3328" x2="419.7228" y1="558.422" y2="558.422"/><text fill="#000000" font-family="sans-serif" font-size="14.8823" lengthAdjust="spacing" textLength="118.3678" x="246.3439" y="549.4735">&#27491;&#24120;&#29366;&#24577; (Active)</text><ellipse cx="251.9371" cy="580.7454" fill="#222222" rx="10.6302" ry="10.6302" style="stroke:#222222;stroke-width:1.063;"/><g id="Active.Offline"><rect fill="#F1F1F1" height="53.151" rx="13.2877" ry="13.2877" style="stroke:#181818;stroke-width:0.5315;" width="69.4679" x="217.1976" y="648.7786"/><line style="stroke:#181818;stroke-width:0.5315;" x1="217.1976" x2="286.6655" y1="678.3023" y2="678.3023"/><text fill="#000000" font-family="sans-serif" font-size="14.8823" lengthAdjust="spacing" textLength="48.2075" x="227.8278" y="669.3539">Offline</text></g><g id="Active.Online"><rect fill="#F1F1F1" height="53.151" rx="13.2877" ry="13.2877" style="stroke:#181818;stroke-width:0.5315;" width="67.0626" x="218.3988" y="759.3326"/><line style="stroke:#181818;stroke-width:0.5315;" x1="218.3988" x2="285.4614" y1="788.8563" y2="788.8563"/><text fill="#000000" font-family="sans-serif" font-size="14.8823" lengthAdjust="spacing" textLength="45.8022" x="229.029" y="779.9079">Online</text></g><!--link *start*Active to Offline--><g class="link" data-entity-1=".start.Active" data-entity-2="Offline" data-source-line="13" data-uid="lnk12" id="link_.start.Active_Offline"><path d="M251.9371,591.7051 C251.9371,605.1311 251.9371,623.2024 251.9371,642.0285" fill="none" id="*start*Active-to-Offline" style="stroke:#181818;stroke-width:1.063;"/><polygon fill="#181818" points="251.9371,648.4066,256.1892,638.8394,251.9371,643.0915,247.685,638.8394,251.9371,648.4066" style="stroke:#181818;stroke-width:1.063;"/><text fill="#000000" font-family="sans-serif" font-size="13.8193" lengthAdjust="spacing" textLength="55.277" x="253.0001" y="625.7431">&#27880;&#20876;&#25104;&#21151;</text></g><!--link Offline to Online--><g class="link" data-entity-1="Offline" data-entity-2="Online" data-source-line="14" data-uid="lnk14" id="link_Offline_Online"><path d="M223.8627,702.1635 C219.2492,707.8931 215.1566,714.3031 212.6054,721.0639 C207.5879,734.3304 209.975,742.8961 218.9681,754.0578" fill="none" id="Offline-to-Online" style="stroke:#181818;stroke-width:1.063;"/><polygon fill="#181818" points="222.9698,759.0244,220.2784,748.9067,219.6351,754.8855,213.6563,754.2422,222.9698,759.0244" style="stroke:#181818;stroke-width:1.063;"/><text fill="#000000" font-family="sans-serif" font-size="13.8193" lengthAdjust="spacing" textLength="55.277" x="213.6684" y="736.2971">&#30331;&#24405;&#37492;&#26435;</text></g><!--link Online to Offline--><g class="link" data-entity-1="Online" data-entity-2="Offline" data-source-line="15" data-uid="lnk15" id="link_Online_Offline"><path d="M264.991,759.0137 C269.3175,747.5012 272.464,733.7139 270.0084,721.0639 C268.7859,714.824 269.004,714.3092 266.676,708.2925" fill="none" id="Online-to-Offline" style="stroke:#181818;stroke-width:1.063;"/><polygon fill="#181818" points="264.3744,702.3442,263.8612,712.8011,266.2924,707.3012,271.7924,709.7323,264.3744,702.3442" style="stroke:#181818;stroke-width:1.063;"/><text fill="#000000" font-family="sans-serif" font-size="13.8193" lengthAdjust="spacing" textLength="137.1601" x="271.9325" y="736.2971">&#36864;&#20986;&#30331;&#24405;/Session&#36807;&#26399;</text></g><!--link Online to Online--><g class="link" data-entity-1="Online" data-entity-2="Online" data-source-line="16" data-uid="lnk16" id="link_Online_Online"><path d="M285.8687,775.5543 C296.3607,775.7669 304.5991,779.2111 304.5991,785.9081 C304.5991,792.6052 302.7375,795.9201 292.2455,796.1327" fill="none" id="Online-to-Online" style="stroke:#181818;stroke-width:1.063;"/><polygon fill="#181818" points="285.8687,796.2619,295.52,800.3193,291.1827,796.1543,295.3477,791.8169,285.8687,796.2619" style="stroke:#181818;stroke-width:1.063;"/><text fill="#000000" font-family="sans-serif" font-size="13.8193" lengthAdjust="spacing" textLength="89.0424" x="310.9772" y="791.5741">&#20462;&#25913;&#36164;&#26009;/&#22836;&#20687;</text></g><path d="M20.7289,906.0363 L296.9298,906.0363 A13.2877,13.2877 0 0 1 310.2176,919.324 L310.2176,935.56 L7.4411,935.56 L7.4411,919.324 A13.2877,13.2877 0 0 1 20.7289,906.0363" fill="#F1F1F1"/><rect fill="none" height="106.0611" rx="13.2877" ry="13.2877" style="stroke:#181818;stroke-width:0.5315;" width="302.7764" x="7.4411" y="906.0363"/><line style="stroke:#181818;stroke-width:0.5315;" x1="7.4411" x2="310.2176" y1="935.56" y2="935.56"/><text fill="#000000" font-family="sans-serif" font-size="14.8823" lengthAdjust="spacing" textLength="145.0803" x="86.2892" y="926.6115">&#21463;&#38480;&#29366;&#24577; (Restricted)</text><g id="Restricted.Banned"><rect fill="#F1F1F1" height="53.151" rx="13.2877" ry="13.2877" style="stroke:#181818;stroke-width:0.5315;" width="133.8221" x="20.1974" y="948.3162"/><line style="stroke:#181818;stroke-width:0.5315;" x1="20.1974" x2="154.0195" y1="977.8399" y2="977.8399"/><text fill="#000000" font-family="sans-serif" font-size="14.8823" lengthAdjust="spacing" textLength="112.5617" x="30.8276" y="968.8915">&#34987;&#23553;&#31105; (Banned)</text></g><g id="Restricted.Muted"><rect fill="#F1F1F1" height="53.151" rx="13.2877" ry="13.2877" style="stroke:#181818;stroke-width:0.5315;" width="127.3038" x="173.3466" y="948.3162"/><line style="stroke:#181818;stroke-width:0.5315;" x1="173.3466" x2="300.6504" y1="977.8399" y2="977.8399"/><text fill="#000000" font-family="sans-serif" font-size="14.8823" lengthAdjust="spacing" textLength="106.0434" x="183.9768" y="968.8915">&#31105;&#35328;&#20013; (Muted)</text></g><ellipse cx="305.5224" cy="58.2252" fill="#222222" rx="10.6302" ry="10.6302" style="stroke:#222222;stroke-width:1.063;"/><g id="Deleted"><rect fill="#F1F1F1" height="53.151" rx="13.2877" ry="13.2877" style="stroke:#181818;stroke-width:0.5315;" width="75.6228" x="316.6097" y="1095.0092"/><line style="stroke:#181818;stroke-width:0.5315;" x1="316.6097" x2="392.2325" y1="1124.5329" y2="1124.5329"/><text fill="#000000" font-family="sans-serif" font-size="14.8823" lengthAdjust="spacing" textLength="54.3624" x="327.2399" y="1115.5845">Deleted</text></g><ellipse cx="354.4213" cy="1224.6976" fill="none" rx="11.6932" ry="11.6932" style="stroke:#222222;stroke-width:1.063;"/><ellipse cx="354.4213" cy="1224.6976" fill="#222222" rx="6.3781" ry="6.3781" style="stroke:#222222;stroke-width:1.063;"/><g class="entity" data-entity="GMN2" data-source-line="33" data-uid="ent0003" id="entity_GMN2"><path d="M456.4711,635.6042 L456.4711,671.7575 L419.9883,676.0095 L456.4711,680.2616 L456.4711,716.4103 A0,0 0 0 0 456.4711,716.4103 L547.8908,716.4103 A0,0 0 0 0 547.8908,716.4103 L547.8908,646.2344 L537.2606,635.6042 L456.4711,635.6042 A0,0 0 0 0 456.4711,635.6042" fill="#FEFFDD" style="stroke:#181818;stroke-width:0.5315;"/><path d="M537.2606,635.6042 L537.2606,646.2344 L547.8908,646.2344 L537.2606,635.6042" fill="#FEFFDD" style="stroke:#181818;stroke-width:0.5315;"/><text fill="#000000" font-family="sans-serif" font-size="13.8193" lengthAdjust="spacing" textLength="69.0963" x="462.8492" y="655.0894">&#23545;&#24212;&#38656;&#27714;&#65306;</text><text fill="#000000" font-family="sans-serif" font-size="13.8193" lengthAdjust="spacing" textLength="64.6765" x="462.8492" y="672.6334">- &#29992;&#25143;&#37492;&#26435;</text><text fill="#000000" font-family="sans-serif" font-size="13.8193" lengthAdjust="spacing" textLength="64.6765" x="462.8492" y="690.1773">- &#36164;&#26009;&#31649;&#29702;</text><text fill="#000000" font-family="sans-serif" font-size="13.8193" lengthAdjust="spacing" textLength="64.6765" x="462.8492" y="707.7213">- &#20114;&#21160;&#21151;&#33021;</text></g><g class="entity" data-entity="GMN5" data-source-line="40" data-uid="ent0006" id="entity_GMN5"><path d="M347.5967,927.4349 L347.5967,954.8076 L310.5292,959.0597 L347.5967,963.3118 L347.5967,990.697 A0,0 0 0 0 347.5967,990.697 L476.0544,990.697 A0,0 0 0 0 476.0544,990.697 L476.0544,938.0651 L465.4242,927.4349 L347.5967,927.4349 A0,0 0 0 0 347.5967,927.4349" fill="#FEFFDD" style="stroke:#181818;stroke-width:0.5315;"/><path d="M465.4242,927.4349 L465.4242,938.0651 L476.0544,938.0651 L465.4242,927.4349" fill="#FEFFDD" style="stroke:#181818;stroke-width:0.5315;"/><text fill="#000000" font-family="sans-serif" font-size="13.8193" lengthAdjust="spacing" textLength="69.0963" x="353.9748" y="946.9201">&#23545;&#24212;&#38656;&#27714;&#65306;</text><text fill="#000000" font-family="sans-serif" font-size="13.8193" lengthAdjust="spacing" textLength="106.1343" x="353.9748" y="964.4641">- &#31649;&#29702;&#21592;&#26435;&#38480;&#25511;&#21046;</text><text fill="#000000" font-family="sans-serif" font-size="13.8193" lengthAdjust="spacing" textLength="92.315" x="353.9748" y="982.008">- &#20030;&#25253;&#31649;&#29702;&#21151;&#33021;</text></g><!--link *start* to Unregistered--><g class="link" data-entity-1=".start." data-entity-2="Unregistered" data-source-line="4" data-uid="lnk3" id="link_.start._Unregistered"><path d="M305.5224,69.2381 C305.5224,84.705 305.5224,110.0474 305.5224,145.0633" fill="none" id="*start*-to-Unregistered" style="stroke:#181818;stroke-width:1.063;"/><polygon fill="#181818" points="305.5224,151.4414,309.7745,141.8742,305.5224,146.1263,301.2703,141.8742,305.5224,151.4414" style="stroke:#181818;stroke-width:1.063;"/><text fill="#000000" font-family="sans-serif" font-size="13.8193" lengthAdjust="spacing" textLength="55.277" x="306.5854" y="115.9791">&#35775;&#38382;&#24179;&#21488;</text></g><!--link Unregistered to Active--><g class="link" data-entity-1="Unregistered" data-entity-2="Active" data-source-line="24" data-uid="lnk17" id="link_Unregistered_Active"><path d="M305.5224,446.2698 C305.5224,473.3024 305.5224,495.1474 305.5224,522.18" fill="none" id="Unregistered-to-Active" style="stroke:#181818;stroke-width:1.063;"/><polygon fill="#181818" points="305.5224,528.5581,309.7745,518.991,305.5224,523.243,301.2703,518.991,305.5224,528.5581" style="stroke:#181818;stroke-width:1.063;"/><text fill="#000000" font-family="sans-serif" font-size="13.8193" lengthAdjust="spacing" textLength="89.0424" x="306.5854" y="493.1065">&#27880;&#20876;/&#39564;&#35777;&#36890;&#36807;</text></g><!--link Active to Restricted--><g class="link" data-entity-1="Active" data-entity-2="Restricted" data-source-line="25" data-uid="lnk18" id="link_Active_Restricted"><path d="M191.099,790.231 C176.5994,810.3752 163.9495,832.2415 155.6367,855.0114 C149.8113,870.9673 148.3795,882.905 149.3468,899.6051" fill="none" id="Active-to-Restricted" style="stroke:#181818;stroke-width:1.063;"/><polygon fill="#181818" points="149.7156,905.9725,153.4074,896.1755,149.4083,900.6663,144.9174,896.6672,149.7156,905.9725" style="stroke:#181818;stroke-width:1.063;"/><text fill="#000000" font-family="sans-serif" font-size="13.8193" lengthAdjust="spacing" textLength="102.8617" x="156.6997" y="870.2445">&#36829;&#35268;/&#31649;&#29702;&#21592;&#25805;&#20316;</text></g><!--link Restricted to Active--><g class="link" data-entity-1="Restricted" data-entity-2="Active" data-source-line="26" data-uid="lnk19" id="link_Restricted_Active"><path d="M237.5423,905.8024 C247.6622,896.2884 256.953,885.6795 264.0646,874.1457 C273.6105,858.6681 279.0408,847.4252 284.7386,829.6515" fill="none" id="Restricted-to-Active" style="stroke:#181818;stroke-width:1.063;"/><polygon fill="#181818" points="286.6857,823.5779,279.716,831.3903,285.0631,828.6393,287.8142,833.9864,286.6857,823.5779" style="stroke:#181818;stroke-width:1.063;"/><text fill="#000000" font-family="sans-serif" font-size="13.8193" lengthAdjust="spacing" textLength="61.4039" x="275.4283" y="870.2445">&#35299;&#23553;/&#21040;&#26399;</text></g><!--link Active to Deleted--><g class="link" data-entity-1="Active" data-entity-2="Deleted" data-source-line="27" data-uid="lnk21" id="link_Active_Deleted"><path d="M420.0521,808.1535 C457.194,852.0987 490.137,893.2375 494.7398,906.0363 C510.6957,950.3855 515.5219,969.7856 494.7398,1012.0937 C473.6389,1055.061 432.0718,1082.9008 398.2253,1100.4406" fill="none" id="Active-to-Deleted" style="stroke:#181818;stroke-width:1.063;"/><polygon fill="#181818" points="392.5624,1103.3752,403.0132,1102.7486,397.2815,1100.9297,399.1004,1095.198,392.5624,1103.3752" style="stroke:#181818;stroke-width:1.063;"/><text fill="#000000" font-family="sans-serif" font-size="13.8193" lengthAdjust="spacing" textLength="82.9155" x="509.6434" y="964.7257">&#29992;&#25143;&#27880;&#38144;&#36134;&#21495;</text></g><!--link Restricted to Deleted--><g class="link" data-entity-1="Restricted" data-entity-2="Deleted" data-source-line="28" data-uid="lnk22" id="link_Restricted_Deleted"><path d="M222.6069,1012.4233 C256.1558,1039.9448 290.885,1068.4183 317.8751,1090.5504" fill="none" id="Restricted-to-Deleted" style="stroke:#181818;stroke-width:1.063;"/><polygon fill="#181818" points="322.8071,1094.5947,318.1053,1085.2403,318.6971,1091.2244,312.7129,1091.8163,322.8071,1094.5947" style="stroke:#181818;stroke-width:1.063;"/><text fill="#000000" font-family="sans-serif" font-size="13.8193" lengthAdjust="spacing" textLength="82.9155" x="280.956" y="1059.2175">&#20005;&#37325;&#36829;&#35268;&#38144;&#21495;</text></g><!--link Deleted to *end*--><g class="link" data-entity-1="Deleted" data-entity-2=".end." data-source-line="30" data-uid="lnk24" id="link_Deleted_.end."><path d="M354.4213,1148.6492 C354.4213,1169.4631 354.4213,1191.2019 354.4213,1206.4137" fill="none" id="Deleted-to-*end*" style="stroke:#181818;stroke-width:1.063;"/><polygon fill="#181818" points="354.4213,1212.7918,358.6734,1203.2246,354.4213,1207.4767,350.1692,1203.2246,354.4213,1212.7918" style="stroke:#181818;stroke-width:1.063;"/></g><!--SRC=[TPBFRn915CVlyrTCUgecP7louC54O-B9cDHuCXu837GJCYJiLW_6P2bDMKdhWc8h5KBw4wBf5bDA5ohbd-7Dpfxy5vpTsOK5uvvcvttUzttVcwUhUevWjzvbvWtlduDruzRRK1j3hSkQRRSoO4OHljyXBPKKt8ErDVnEJUiR2Bs-_mOd4e_mAreWMLNJIO6ayKFCxObtOCFm2gmUGfgUrCaYyXvXyKNPppQ9feiqvZXW7xDhYtVC09017raFSrMQ5Q2xDOJoBRlgmivk0CR3SKMmzjd0H1yY4oliuWGSHtQ4Ln-dTFKjkRU2angMvoLdBpAPd4g9xoqenimgLDe14eK2Z8QKsxY5yLVlOv-rIfAYSsYcvHa6b4UILLuIJLFpb4_AOjJ_v4J2qudDwaD-lSts6mgSzg5anRe2wy1hLAEkraNl1JMbaxJiRFuVTXTcyUEVq2kwvoBbIPBI29VdE2WGtZMcpWLUVRuvamsElec5b_LTXwECXgPuFtRvPT4p3aMJA0pAHvqP4pipQV7EjkBQHsvr1shVs9UzwRY9Oio2DE-S2FCAc3r_R37HfoH7fABSP-71gnjogvVLvkpKEVFAUzA3m7qMHL6V50k14CsBQHJKx8QEyvdGYfWJN0vXLFUQ1lkrzUVteRX9XBLdYv30ykbaTy75TFGPAbsnJRmqHeIciQ- -N6FkztzrPkDgbSGAi4yTC0TItxbZbRCmlbJbBm00]--></g></svg>