<svg xmlns="http://www.w3.org/2000/svg" xmlns:xlink="http://www.w3.org/1999/xlink" contentStyleType="text/css" data-diagram-type="CLASS" height="546px" preserveAspectRatio="none" style="width:527px;height:546px;background:#FFFFFF;" version="1.1" viewBox="0 0 527 546" width="527px" zoomAndPan="magnify"><title>&#29992;&#25143;&#31649;&#29702;&#23376;&#31995;&#32479; - &#23454;&#20307;&#31867;&#22270;</title><defs/><g><g class="title" data-source-line="1"><text fill="#000000" font-family="sans-serif" font-size="14" font-weight="bold" lengthAdjust="spacing" textLength="172.1973" x="170.7367" y="24.3555">&#29992;&#25143;&#31649;&#29702;&#23376;&#31995;&#32479; - &#23454;&#20307;&#31867;&#22270;</text></g><!--class User--><g class="entity" data-entity="User" data-source-line="3" data-uid="ent0002" id="entity_User"><rect fill="#F1F1F1" height="279.0547" rx="2.5" ry="2.5" style="stroke:#181818;stroke-width:0.5;" width="174.709" x="190.44" y="45.7734"/><ellipse cx="258.8301" cy="61.7734" fill="#ADD1B2" rx="11" ry="11" style="stroke:#181818;stroke-width:1;"/><path d="M262.2208,67.3516 Q260.9239,67.9766 258.8145,67.9766 Q256.0801,67.9766 254.502,66.3672 Q252.9395,64.7578 252.9395,62.0859 Q252.9395,59.2266 254.7051,57.4453 Q256.4708,55.6641 259.2833,55.6641 Q261.0333,55.6641 262.2208,56.1172 L262.2208,58.6953 Q261.0333,57.9766 259.502,57.9766 Q257.8301,57.9766 256.7989,59.0391 Q255.7676,60.0859 255.7676,61.8828 Q255.7676,63.6172 256.7364,64.6484 Q257.7051,65.6641 259.3458,65.6641 Q260.9239,65.6641 262.2208,64.8984 L262.2208,67.3516 Z " fill="#000000"/><text fill="#000000" font-family="sans-serif" font-size="14" lengthAdjust="spacing" textLength="29.4287" x="279.3301" y="67.2422">User</text><line style="stroke:#181818;stroke-width:0.5;" x1="191.44" x2="364.149" y1="77.7734" y2="77.7734"/><ellipse cx="201.44" cy="92.1602" fill="none" rx="3" ry="3" style="stroke:#038048;stroke-width:1;"/><text fill="#000000" font-family="sans-serif" font-size="14" lengthAdjust="spacing" textLength="104.8154" x="210.44" y="96.1289">user_id : BIGINT</text><ellipse cx="201.44" cy="109.9336" fill="none" rx="3" ry="3" style="stroke:#038048;stroke-width:1;"/><text fill="#000000" font-family="sans-serif" font-size="14" lengthAdjust="spacing" textLength="142.4609" x="210.44" y="113.9023">username : VARCHAR</text><ellipse cx="201.44" cy="127.707" fill="none" rx="3" ry="3" style="stroke:#038048;stroke-width:1;"/><text fill="#000000" font-family="sans-serif" font-size="14" lengthAdjust="spacing" textLength="114.1738" x="210.44" y="131.6758">email : VARCHAR</text><ellipse cx="201.44" cy="145.4805" fill="none" rx="3" ry="3" style="stroke:#038048;stroke-width:1;"/><text fill="#000000" font-family="sans-serif" font-size="14" lengthAdjust="spacing" textLength="140.7793" x="210.44" y="149.4492">password : VARCHAR</text><ellipse cx="201.44" cy="163.2539" fill="none" rx="3" ry="3" style="stroke:#038048;stroke-width:1;"/><text fill="#000000" font-family="sans-serif" font-size="14" lengthAdjust="spacing" textLength="85.7295" x="210.44" y="167.2227">bg_url : TEXT</text><ellipse cx="201.44" cy="181.0273" fill="none" rx="3" ry="3" style="stroke:#038048;stroke-width:1;"/><text fill="#000000" font-family="sans-serif" font-size="14" lengthAdjust="spacing" textLength="148.709" x="210.44" y="184.9961">created_at : DATETIME</text><line style="stroke:#181818;stroke-width:0.5;" x1="191.44" x2="364.149" y1="192.4141" y2="192.4141"/><ellipse cx="201.44" cy="206.8008" fill="#84BE84" rx="3" ry="3" style="stroke:#038048;stroke-width:1;"/><text fill="#000000" font-family="sans-serif" font-size="14" lengthAdjust="spacing" textLength="43.9893" x="210.44" y="210.7695">login()</text><ellipse cx="201.44" cy="224.5742" fill="#84BE84" rx="3" ry="3" style="stroke:#038048;stroke-width:1;"/><text fill="#000000" font-family="sans-serif" font-size="14" lengthAdjust="spacing" textLength="54.0176" x="210.44" y="228.543">logout()</text><ellipse cx="201.44" cy="242.3477" fill="#84BE84" rx="3" ry="3" style="stroke:#038048;stroke-width:1;"/><text fill="#000000" font-family="sans-serif" font-size="14" lengthAdjust="spacing" textLength="60.8809" x="210.44" y="246.3164">register()</text><ellipse cx="201.44" cy="260.1211" fill="#84BE84" rx="3" ry="3" style="stroke:#038048;stroke-width:1;"/><text fill="#000000" font-family="sans-serif" font-size="14" lengthAdjust="spacing" textLength="100.3379" x="210.44" y="264.0898">updateProfile()</text><ellipse cx="201.44" cy="277.8945" fill="#84BE84" rx="3" ry="3" style="stroke:#038048;stroke-width:1;"/><text fill="#000000" font-family="sans-serif" font-size="14" lengthAdjust="spacing" textLength="99.7432" x="210.44" y="281.8633">uploadAvatar()</text><ellipse cx="201.44" cy="295.668" fill="#84BE84" rx="3" ry="3" style="stroke:#038048;stroke-width:1;"/><text fill="#000000" font-family="sans-serif" font-size="14" lengthAdjust="spacing" textLength="92.8184" x="210.44" y="299.6367">follow(userId)</text><ellipse cx="201.44" cy="313.4414" fill="#84BE84" rx="3" ry="3" style="stroke:#038048;stroke-width:1;"/><text fill="#000000" font-family="sans-serif" font-size="14" lengthAdjust="spacing" textLength="109.7578" x="210.44" y="317.4102">unfollow(userId)</text></g><!--class Avatar--><g class="entity" data-entity="Avatar" data-source-line="20" data-uid="ent0003" id="entity_Avatar"><rect fill="#F1F1F1" height="101.3203" rx="2.5" ry="2.5" style="stroke:#181818;stroke-width:0.5;" width="135.5869" x="7" y="420.6034"/><ellipse cx="49.0312" cy="436.6034" fill="#ADD1B2" rx="11" ry="11" style="stroke:#181818;stroke-width:1;"/><path d="M52.4218,442.1816 Q51.125,442.8066 49.0156,442.8066 Q46.2812,442.8066 44.7031,441.1972 Q43.1406,439.5878 43.1406,436.9159 Q43.1406,434.0566 44.9062,432.2753 Q46.6718,430.4941 49.4843,430.4941 Q51.2343,430.4941 52.4218,430.9472 L52.4218,433.5253 Q51.2343,432.8066 49.7031,432.8066 Q48.0312,432.8066 47,433.8691 Q45.9687,434.9159 45.9687,436.7128 Q45.9687,438.4472 46.9375,439.4784 Q47.9062,440.4941 49.5468,440.4941 Q51.125,440.4941 52.4218,439.7284 L52.4218,442.1816 Z " fill="#000000"/><text fill="#000000" font-family="sans-serif" font-size="14" lengthAdjust="spacing" textLength="43.5176" x="69.0381" y="442.0722">Avatar</text><line style="stroke:#181818;stroke-width:0.5;" x1="8" x2="141.5869" y1="452.6034" y2="452.6034"/><ellipse cx="18" cy="466.9902" fill="none" rx="3" ry="3" style="stroke:#038048;stroke-width:1;"/><text fill="#000000" font-family="sans-serif" font-size="14" lengthAdjust="spacing" textLength="104.8154" x="27" y="470.9589">user_id : BIGINT</text><ellipse cx="18" cy="484.7636" fill="none" rx="3" ry="3" style="stroke:#038048;stroke-width:1;"/><text fill="#000000" font-family="sans-serif" font-size="14" lengthAdjust="spacing" textLength="109.5869" x="27" y="488.7323">avatar_url : TEXT</text><line style="stroke:#181818;stroke-width:0.5;" x1="8" x2="141.5869" y1="496.1503" y2="496.1503"/><ellipse cx="18" cy="510.537" fill="#84BE84" rx="3" ry="3" style="stroke:#038048;stroke-width:1;"/><text fill="#000000" font-family="sans-serif" font-size="14" lengthAdjust="spacing" textLength="100.2285" x="27" y="514.5058">updateAvatar()</text></g><!--class Admin--><g class="entity" data-entity="Admin" data-source-line="26" data-uid="ent0004" id="entity_Admin"><rect fill="#F1F1F1" height="136.8672" rx="2.5" ry="2.5" style="stroke:#181818;stroke-width:0.5;" width="141.5889" x="178" y="402.8234"/><ellipse cx="222.6523" cy="418.8234" fill="#ADD1B2" rx="11" ry="11" style="stroke:#181818;stroke-width:1;"/><path d="M226.043,424.4016 Q224.7461,425.0266 222.6367,425.0266 Q219.9023,425.0266 218.3242,423.4172 Q216.7617,421.8078 216.7617,419.1359 Q216.7617,416.2766 218.5273,414.4953 Q220.293,412.7141 223.1055,412.7141 Q224.8555,412.7141 226.043,413.1672 L226.043,415.7453 Q224.8555,415.0266 223.3242,415.0266 Q221.6523,415.0266 220.6211,416.0891 Q219.5898,417.1359 219.5898,418.9328 Q219.5898,420.6672 220.5586,421.6984 Q221.5273,422.7141 223.168,422.7141 Q224.7461,422.7141 226.043,421.9484 L226.043,424.4016 Z " fill="#000000"/><text fill="#000000" font-family="sans-serif" font-size="14" lengthAdjust="spacing" textLength="43.7842" x="243.1523" y="424.2922">Admin</text><line style="stroke:#181818;stroke-width:0.5;" x1="179" x2="318.5889" y1="434.8234" y2="434.8234"/><ellipse cx="189" cy="449.2102" fill="none" rx="3" ry="3" style="stroke:#038048;stroke-width:1;"/><text fill="#000000" font-family="sans-serif" font-size="14" lengthAdjust="spacing" textLength="104.8154" x="198" y="453.1789">user_id : BIGINT</text><line style="stroke:#181818;stroke-width:0.5;" x1="179" x2="318.5889" y1="460.5969" y2="460.5969"/><ellipse cx="189" cy="474.9836" fill="#84BE84" rx="3" ry="3" style="stroke:#038048;stroke-width:1;"/><text fill="#000000" font-family="sans-serif" font-size="14" lengthAdjust="spacing" textLength="98.7588" x="198" y="478.9523">reviewReport()</text><ellipse cx="189" cy="492.757" fill="#84BE84" rx="3" ry="3" style="stroke:#038048;stroke-width:1;"/><text fill="#000000" font-family="sans-serif" font-size="14" lengthAdjust="spacing" textLength="91.1162" x="198" y="496.7258">deleteTweet()</text><ellipse cx="189" cy="510.5305" fill="#84BE84" rx="3" ry="3" style="stroke:#038048;stroke-width:1;"/><text fill="#000000" font-family="sans-serif" font-size="14" lengthAdjust="spacing" textLength="115.5889" x="198" y="514.4992">deleteComment()</text><ellipse cx="189" cy="528.3039" fill="#84BE84" rx="3" ry="3" style="stroke:#038048;stroke-width:1;"/><text fill="#000000" font-family="sans-serif" font-size="14" lengthAdjust="spacing" textLength="64.4492" x="198" y="532.2727">banUser()</text></g><!--class Follow--><g class="entity" data-entity="Follow" data-source-line="34" data-uid="ent0005" id="entity_Follow"><rect fill="#F1F1F1" height="119.0938" rx="2.5" ry="2.5" style="stroke:#181818;stroke-width:0.5;" width="165.7607" x="354.91" y="411.7134"/><ellipse cx="411.7816" cy="427.7134" fill="#ADD1B2" rx="11" ry="11" style="stroke:#181818;stroke-width:1;"/><path d="M415.1722,433.2916 Q413.8753,433.9166 411.766,433.9166 Q409.0316,433.9166 407.4535,432.3072 Q405.891,430.6978 405.891,428.0259 Q405.891,425.1666 407.6566,423.3853 Q409.4222,421.6041 412.2347,421.6041 Q413.9847,421.6041 415.1722,422.0572 L415.1722,424.6353 Q413.9847,423.9166 412.4535,423.9166 Q410.7816,423.9166 409.7503,424.9791 Q408.7191,426.0259 408.7191,427.8228 Q408.7191,429.5572 409.6878,430.5884 Q410.6566,431.6041 412.2972,431.6041 Q413.8753,431.6041 415.1722,430.8384 L415.1722,433.2916 Z " fill="#000000"/><text fill="#000000" font-family="sans-serif" font-size="14" lengthAdjust="spacing" textLength="43.5176" x="432.2816" y="433.1822">Follow</text><line style="stroke:#181818;stroke-width:0.5;" x1="355.91" x2="519.6707" y1="443.7134" y2="443.7134"/><ellipse cx="365.91" cy="458.1002" fill="none" rx="3" ry="3" style="stroke:#038048;stroke-width:1;"/><text fill="#000000" font-family="sans-serif" font-size="14" lengthAdjust="spacing" textLength="131.79" x="374.91" y="462.0689">follower_id : BIGINT</text><ellipse cx="365.91" cy="475.8736" fill="none" rx="3" ry="3" style="stroke:#038048;stroke-width:1;"/><text fill="#000000" font-family="sans-serif" font-size="14" lengthAdjust="spacing" textLength="139.7607" x="374.91" y="479.8423">following_id : BIGINT</text><line style="stroke:#181818;stroke-width:0.5;" x1="355.91" x2="519.6707" y1="487.2603" y2="487.2603"/><ellipse cx="365.91" cy="501.647" fill="#84BE84" rx="3" ry="3" style="stroke:#038048;stroke-width:1;"/><text fill="#000000" font-family="sans-serif" font-size="14" lengthAdjust="spacing" textLength="78.7227" x="374.91" y="505.6158">addFollow()</text><ellipse cx="365.91" cy="519.4205" fill="#84BE84" rx="3" ry="3" style="stroke:#038048;stroke-width:1;"/><text fill="#000000" font-family="sans-serif" font-size="14" lengthAdjust="spacing" textLength="103.5439" x="374.91" y="523.3892">removeFollow()</text></g><!--link User to Avatar--><g class="link" data-entity-1="User" data-entity-2="Avatar" data-source-line="41" data-uid="lnk6" id="link_User_Avatar"><path codeLine="41" d="M190.23,308.7834 C162.22,347.9634 132.77,389.1534 110.63,420.1334" fill="none" id="User-Avatar" style="stroke:#181818;stroke-width:1;"/><text fill="#000000" font-family="sans-serif" font-size="13" lengthAdjust="spacing" textLength="7.4775" x="174.857" y="316.7828">1</text><text fill="#000000" font-family="sans-serif" font-size="13" lengthAdjust="spacing" textLength="7.4775" x="108.0073" y="409.5518">1</text></g><!--link User to Admin--><g class="link" data-entity-1="User" data-entity-2="Admin" data-source-line="42" data-uid="lnk7" id="link_User_Admin"><path codeLine="42" d="M263.63,324.9534 C260.87,351.9834 258.1,379.1734 255.7,402.6034" fill="none" id="User-Admin" style="stroke:#181818;stroke-width:1;"/><text fill="#000000" font-family="sans-serif" font-size="13" lengthAdjust="spacing" textLength="7.4775" x="255.677" y="346.372">1</text><text fill="#000000" font-family="sans-serif" font-size="13" lengthAdjust="spacing" textLength="22.001" x="233.2522" y="391.5771">0..1</text></g><!--link User to Follow--><g class="link" data-entity-1="User" data-entity-2="Follow" data-source-line="43" data-uid="lnk8" id="link_User_Follow"><path codeLine="43" d="M300.83,325.2534 C306.59,341.9434 313.79,358.2234 322.79,372.8234 C331.37,386.7534 342.62,399.6834 354.72,411.2734" fill="none" id="User-Follow" style="stroke:#181818;stroke-width:1;"/><polygon fill="#000000" points="330.4445,368.3126,328.133,359.0872,323.1519,362.2077,330.4445,368.3126" style="stroke:#000000;stroke-width:1;"/><text fill="#000000" font-family="sans-serif" font-size="13" lengthAdjust="spacing" textLength="50.8384" x="336.79" y="369.1535">follower</text><text fill="#000000" font-family="sans-serif" font-size="13" lengthAdjust="spacing" textLength="7.4775" x="294.8496" y="346.2253">1</text><text fill="#000000" font-family="sans-serif" font-size="13" lengthAdjust="spacing" textLength="20.4395" x="326.4505" y="402.5709">0..*</text></g><!--link User to Follow--><g class="link" data-entity-1="User" data-entity-2="Follow" data-source-line="44" data-uid="lnk9" id="link_User_Follow"><path codeLine="44" d="M365.56,309.5934 C374.89,324.5534 383.86,339.8434 391.79,354.8234 C401.23,372.6534 409.91,392.8534 417.13,411.3234" fill="none" id="User-Follow-1" style="stroke:#181818;stroke-width:1;"/><polygon fill="#000000" points="406.6208,368.5351,405.1524,359.1386,399.9097,361.7963,406.6208,368.5351" style="stroke:#000000;stroke-width:1;"/><text fill="#000000" font-family="sans-serif" font-size="13" lengthAdjust="spacing" textLength="58.2397" x="413.36" y="369.1535">following</text><text fill="#000000" font-family="sans-serif" font-size="13" lengthAdjust="spacing" textLength="7.4775" x="373.1377" y="316.5749">1</text><text fill="#000000" font-family="sans-serif" font-size="13" lengthAdjust="spacing" textLength="20.4395" x="393.42" y="400.4044">0..*</text></g><!--SRC=[ZP8nIyD05CVtV8gZKrLQTEqWn5erWo8bYbkvzbx3mUMkN2xD8AxYMD1DKDnSB1G7XwAVnfgluINd9PgMOfRaVk-V_tl_boYg6A3qxldhvYsTFgMJwyNB97sTf_D7r42BwSFd-sqwco_kFnndm70KeRC89BfqaBwsOltSemIrq9vtw9tu9UKu18tFtMxxoEqQ3Y6ch0f7sZCHabHvF-Z5CbFxdOiVtu44h83qiD9ut_KxldVSSKoDYO3o-aPn4B6o9ma1ZHH8Uuv7HDkSIZ6a34h812Rk62jS28U2CP7KipWUiJfUeLTsB-RTzPl1kMOfc9ceQ5vQaf3ozOuInXIIBeo4B08JOA30Jm0gg2t247W1-vXd7_DtnuCyd6rfegvgQogK1oio4c9Sols7OWm5qxtoNwYsKqEDHdupoV_YxMOpgsGRM2firkoWBMHdHBl_aEc1jUuR]--></g></svg>