<svg xmlns="http://www.w3.org/2000/svg" xmlns:xlink="http://www.w3.org/1999/xlink" contentStyleType="text/css" data-diagram-type="SEQUENCE" height="778px" preserveAspectRatio="none" style="width:1310px;height:778px;background:#FFFFFF;" version="1.1" viewBox="0 0 1310 778" width="1310px" zoomAndPan="magnify"><title>&#29992;&#25143;&#35780;&#35770;&#25110;&#22238;&#22797;&#39034;&#24207;&#22270;</title><defs/><g><text fill="#000000" font-family="sans-serif" font-size="14" font-weight="bold" lengthAdjust="spacing" textLength="144.375" x="584.0686" y="29.3555">&#29992;&#25143;&#35780;&#35770;&#25110;&#22238;&#22797;&#39034;&#24207;&#22270;</text><rect fill="none" height="357.4727" style="stroke:#000000;stroke-width:1.5;" width="978.2627" x="325.2495" y="291.0664"/><rect fill="none" height="217.4922" style="stroke:#000000;stroke-width:1.5;" width="958.2627" x="335.2495" y="377.5781"/><g><title>User</title><rect fill="#000000" fill-opacity="0.00000" height="574.4961" width="8" x="18.7144" y="121.5469"/><line style="stroke:#181818;stroke-width:0.5;stroke-dasharray:5,5;" x1="22" x2="22" y1="121.5469" y2="696.043"/></g><g><title>CommentUI</title><rect fill="#000000" fill-opacity="0.00000" height="574.4961" width="8" x="387.7476" y="121.5469"/><line style="stroke:#181818;stroke-width:0.5;stroke-dasharray:5,5;" x1="391.2495" x2="391.2495" y1="121.5469" y2="696.043"/></g><g><title>CommentController</title><rect fill="#000000" fill-opacity="0.00000" height="574.4961" width="8" x="627.1997" y="121.5469"/><line style="stroke:#181818;stroke-width:0.5;stroke-dasharray:5,5;" x1="630.7593" x2="630.7593" y1="121.5469" y2="696.043"/></g><g><title>UserStatusChecker</title><rect fill="#000000" fill-opacity="0.00000" height="574.4961" width="8" x="789.8008" y="121.5469"/><line style="stroke:#181818;stroke-width:0.5;stroke-dasharray:5,5;" x1="793.4175" x2="793.4175" y1="121.5469" y2="696.043"/></g><g><title>ContentReviewSystem</title><rect fill="#000000" fill-opacity="0.00000" height="574.4961" width="8" x="948.7388" y="121.5469"/><line style="stroke:#181818;stroke-width:0.5;stroke-dasharray:5,5;" x1="952.1841" x2="952.1841" y1="121.5469" y2="696.043"/></g><g><title>CommentDB</title><rect fill="#000000" fill-opacity="0.00000" height="574.4961" width="8" x="1084.1602" y="121.5469"/><line style="stroke:#181818;stroke-width:0.5;stroke-dasharray:5,5;" x1="1087.2935" x2="1087.2935" y1="121.5469" y2="696.043"/></g><g><title>NotificationSystem</title><rect fill="#000000" fill-opacity="0.00000" height="574.4961" width="8" x="1209.2695" y="121.5469"/><line style="stroke:#181818;stroke-width:0.5;stroke-dasharray:5,5;" x1="1213.0269" x2="1213.0269" y1="121.5469" y2="696.043"/></g><g class="participant participant-head" data-participant="User"><text fill="#000000" font-family="sans-serif" font-size="14" lengthAdjust="spacing" textLength="29.4287" x="5" y="118.1289">User</text><ellipse cx="22.7144" cy="52.2734" fill="#E2E2F0" rx="8" ry="8" style="stroke:#181818;stroke-width:0.5;"/><path d="M22.7144,60.2734 L22.7144,87.2734 M9.7144,68.2734 L35.7144,68.2734 M22.7144,87.2734 L9.7144,102.2734 M22.7144,87.2734 L35.7144,102.2734" fill="none" style="stroke:#181818;stroke-width:0.5;"/></g><g class="participant participant-tail" data-participant="User"><text fill="#000000" font-family="sans-serif" font-size="14" lengthAdjust="spacing" textLength="29.4287" x="5" y="709.3984">User</text><ellipse cx="22.7144" cy="721.3164" fill="#E2E2F0" rx="8" ry="8" style="stroke:#181818;stroke-width:0.5;"/><path d="M22.7144,729.3164 L22.7144,756.3164 M9.7144,737.3164 L35.7144,737.3164 M22.7144,756.3164 L9.7144,771.3164 M22.7144,756.3164 L35.7144,771.3164" fill="none" style="stroke:#181818;stroke-width:0.5;"/></g><g class="participant participant-head" data-participant="CommentUI"><rect fill="#E2E2F0" height="31.7734" rx="2.5" ry="2.5" style="stroke:#181818;stroke-width:0.5;" width="92.9961" x="345.2495" y="88.7734"/><text fill="#000000" font-family="sans-serif" font-size="14" lengthAdjust="spacing" textLength="78.9961" x="352.2495" y="110.1289">CommentUI</text></g><g class="participant participant-tail" data-participant="CommentUI"><rect fill="#E2E2F0" height="31.7734" rx="2.5" ry="2.5" style="stroke:#181818;stroke-width:0.5;" width="92.9961" x="345.2495" y="695.043"/><text fill="#000000" font-family="sans-serif" font-size="14" lengthAdjust="spacing" textLength="78.9961" x="352.2495" y="716.3984">CommentUI</text></g><g class="participant participant-head" data-participant="CommentController"><rect fill="#E2E2F0" height="31.7734" rx="2.5" ry="2.5" style="stroke:#181818;stroke-width:0.5;" width="144.8809" x="558.7593" y="88.7734"/><text fill="#000000" font-family="sans-serif" font-size="14" lengthAdjust="spacing" textLength="130.8809" x="565.7593" y="110.1289">CommentController</text></g><g class="participant participant-tail" data-participant="CommentController"><rect fill="#E2E2F0" height="31.7734" rx="2.5" ry="2.5" style="stroke:#181818;stroke-width:0.5;" width="144.8809" x="558.7593" y="695.043"/><text fill="#000000" font-family="sans-serif" font-size="14" lengthAdjust="spacing" textLength="130.8809" x="565.7593" y="716.3984">CommentController</text></g><g class="participant participant-head" data-participant="UserStatusChecker"><rect fill="#E2E2F0" height="31.7734" rx="2.5" ry="2.5" style="stroke:#181818;stroke-width:0.5;" width="136.7666" x="725.4175" y="88.7734"/><text fill="#000000" font-family="sans-serif" font-size="14" lengthAdjust="spacing" textLength="122.7666" x="732.4175" y="110.1289">UserStatusChecker</text></g><g class="participant participant-tail" data-participant="UserStatusChecker"><rect fill="#E2E2F0" height="31.7734" rx="2.5" ry="2.5" style="stroke:#181818;stroke-width:0.5;" width="136.7666" x="725.4175" y="695.043"/><text fill="#000000" font-family="sans-serif" font-size="14" lengthAdjust="spacing" textLength="122.7666" x="732.4175" y="716.3984">UserStatusChecker</text></g><g class="participant participant-head" data-participant="ContentReviewSystem"><rect fill="#E2E2F0" height="31.7734" rx="2.5" ry="2.5" style="stroke:#181818;stroke-width:0.5;" width="161.1094" x="872.1841" y="88.7734"/><text fill="#000000" font-family="sans-serif" font-size="14" lengthAdjust="spacing" textLength="147.1094" x="879.1841" y="110.1289">ContentReviewSystem</text></g><g class="participant participant-tail" data-participant="ContentReviewSystem"><rect fill="#E2E2F0" height="31.7734" rx="2.5" ry="2.5" style="stroke:#181818;stroke-width:0.5;" width="161.1094" x="872.1841" y="695.043"/><text fill="#000000" font-family="sans-serif" font-size="14" lengthAdjust="spacing" textLength="147.1094" x="879.1841" y="716.3984">ContentReviewSystem</text></g><g class="participant participant-head" data-participant="CommentDB"><text fill="#000000" font-family="sans-serif" font-size="14" lengthAdjust="spacing" textLength="83.7334" x="1043.2935" y="118.1289">CommentDB</text><path d="M1070.1602,67.7734 C1070.1602,57.7734 1088.1602,57.7734 1088.1602,57.7734 C1088.1602,57.7734 1106.1602,57.7734 1106.1602,67.7734 L1106.1602,93.7734 C1106.1602,103.7734 1088.1602,103.7734 1088.1602,103.7734 C1088.1602,103.7734 1070.1602,103.7734 1070.1602,93.7734 L1070.1602,67.7734" fill="#E2E2F0" style="stroke:#181818;stroke-width:0.5;"/><path d="M1070.1602,67.7734 C1070.1602,77.7734 1088.1602,77.7734 1088.1602,77.7734 C1088.1602,77.7734 1106.1602,77.7734 1106.1602,67.7734" fill="none" style="stroke:#181818;stroke-width:0.5;"/></g><g class="participant participant-tail" data-participant="CommentDB"><text fill="#000000" font-family="sans-serif" font-size="14" lengthAdjust="spacing" textLength="83.7334" x="1043.2935" y="709.3984">CommentDB</text><path d="M1070.1602,722.8164 C1070.1602,712.8164 1088.1602,712.8164 1088.1602,712.8164 C1088.1602,712.8164 1106.1602,712.8164 1106.1602,722.8164 L1106.1602,748.8164 C1106.1602,758.8164 1088.1602,758.8164 1088.1602,758.8164 C1088.1602,758.8164 1070.1602,758.8164 1070.1602,748.8164 L1070.1602,722.8164" fill="#E2E2F0" style="stroke:#181818;stroke-width:0.5;"/><path d="M1070.1602,722.8164 C1070.1602,732.8164 1088.1602,732.8164 1088.1602,732.8164 C1088.1602,732.8164 1106.1602,732.8164 1106.1602,722.8164" fill="none" style="stroke:#181818;stroke-width:0.5;"/></g><g class="participant participant-head" data-participant="NotificationSystem"><rect fill="#E2E2F0" height="31.7734" rx="2.5" ry="2.5" style="stroke:#181818;stroke-width:0.5;" width="140.4854" x="1143.0269" y="88.7734"/><text fill="#000000" font-family="sans-serif" font-size="14" lengthAdjust="spacing" textLength="126.4854" x="1150.0269" y="110.1289">NotificationSystem</text></g><g class="participant participant-tail" data-participant="NotificationSystem"><rect fill="#E2E2F0" height="31.7734" rx="2.5" ry="2.5" style="stroke:#181818;stroke-width:0.5;" width="140.4854" x="1143.0269" y="695.043"/><text fill="#000000" font-family="sans-serif" font-size="14" lengthAdjust="spacing" textLength="126.4854" x="1150.0269" y="716.3984">NotificationSystem</text></g><g class="message" data-participant-1="User" data-participant-2="CommentUI"><polygon fill="#181818" points="379.7476,150.0508,389.7476,154.0508,379.7476,158.0508,383.7476,154.0508" style="stroke:#181818;stroke-width:1;"/><line style="stroke:#181818;stroke-width:1;" x1="22.7144" x2="385.7476" y1="154.0508" y2="154.0508"/><text fill="#000000" font-family="sans-serif" font-size="13" lengthAdjust="spacing" textLength="345.0332" x="29.7144" y="148.877">1. &#36755;&#20837;&#35780;&#35770;/&#22238;&#22797;&#20869;&#23481;(postId/parentCommentId, content)</text></g><g class="message" data-participant-1="User" data-participant-2="CommentUI"><polygon fill="#181818" points="379.7476,180.5547,389.7476,184.5547,379.7476,188.5547,383.7476,184.5547" style="stroke:#181818;stroke-width:1;"/><line style="stroke:#181818;stroke-width:1;" x1="22.7144" x2="385.7476" y1="184.5547" y2="184.5547"/><text fill="#000000" font-family="sans-serif" font-size="13" lengthAdjust="spacing" textLength="179.8989" x="29.7144" y="179.3809">2. &#25552;&#20132;&#35780;&#35770;(content, targetId)</text></g><g class="message" data-participant-1="CommentUI" data-participant-2="CommentController"><polygon fill="#181818" points="619.1997,211.0586,629.1997,215.0586,619.1997,219.0586,623.1997,215.0586" style="stroke:#181818;stroke-width:1;"/><line style="stroke:#181818;stroke-width:1;" x1="391.7476" x2="625.1997" y1="215.0586" y2="215.0586"/><text fill="#000000" font-family="sans-serif" font-size="13" lengthAdjust="spacing" textLength="215.4521" x="398.7476" y="209.8848">submitComment(content, targetId)</text></g><g class="message" data-participant-1="CommentController" data-participant-2="UserStatusChecker"><polygon fill="#181818" points="781.8008,241.5625,791.8008,245.5625,781.8008,249.5625,785.8008,245.5625" style="stroke:#181818;stroke-width:1;"/><line style="stroke:#181818;stroke-width:1;" x1="631.1997" x2="787.8008" y1="245.5625" y2="245.5625"/><text fill="#000000" font-family="sans-serif" font-size="13" lengthAdjust="spacing" textLength="118.5869" x="638.1997" y="240.3887">3. &#26657;&#39564;&#29992;&#25143;&#30331;&#24405;&#29366;&#24577;</text></g><g class="message" data-participant-1="UserStatusChecker" data-participant-2="CommentController"><polygon fill="#181818" points="642.1997,272.0664,632.1997,276.0664,642.1997,280.0664,638.1997,276.0664" style="stroke:#181818;stroke-width:1;"/><line style="stroke:#181818;stroke-width:1;stroke-dasharray:2,2;" x1="636.1997" x2="792.8008" y1="276.0664" y2="276.0664"/><text fill="#000000" font-family="sans-serif" font-size="13" lengthAdjust="spacing" textLength="138.6011" x="648.1997" y="270.8926">4. &#36820;&#22238;&#30331;&#24405;&#29366;&#24577;(status)</text></g><path d="M325.2495,291.0664 L385.998,291.0664 L385.998,299.5703 L375.998,309.5703 L325.2495,309.5703 L325.2495,291.0664" fill="#EEEEEE" style="stroke:#000000;stroke-width:1.5;"/><rect fill="none" height="357.4727" style="stroke:#000000;stroke-width:1.5;" width="978.2627" x="325.2495" y="291.0664"/><text fill="#000000" font-family="sans-serif" font-size="13" font-weight="bold" lengthAdjust="spacing" textLength="15.7485" x="340.2495" y="305.3965">alt</text><text fill="#000000" font-family="sans-serif" font-size="11" font-weight="bold" lengthAdjust="spacing" textLength="42.1523" x="400.998" y="304.3457">[&#24050;&#30331;&#24405;]</text><g class="message" data-participant-1="CommentController" data-participant-2="ContentReviewSystem"><polygon fill="#181818" points="940.7388,328.0742,950.7388,332.0742,940.7388,336.0742,944.7388,332.0742" style="stroke:#181818;stroke-width:1;"/><line style="stroke:#181818;stroke-width:1;" x1="631.1997" x2="946.7388" y1="332.0742" y2="332.0742"/><text fill="#000000" font-family="sans-serif" font-size="13" lengthAdjust="spacing" textLength="92.5869" x="638.1997" y="326.9004">5. &#23457;&#26680;&#35780;&#35770;&#20869;&#23481;</text></g><g class="message" data-participant-1="ContentReviewSystem" data-participant-2="CommentController"><polygon fill="#181818" points="642.1997,358.5781,632.1997,362.5781,642.1997,366.5781,638.1997,362.5781" style="stroke:#181818;stroke-width:1;"/><line style="stroke:#181818;stroke-width:1;stroke-dasharray:2,2;" x1="636.1997" x2="951.7388" y1="362.5781" y2="362.5781"/><text fill="#000000" font-family="sans-serif" font-size="13" lengthAdjust="spacing" textLength="136.7285" x="648.1997" y="357.4043">6. &#36820;&#22238;&#23457;&#26680;&#32467;&#26524;(result)</text></g><path d="M335.2495,377.5781 L395.998,377.5781 L395.998,386.082 L385.998,396.082 L335.2495,396.082 L335.2495,377.5781" fill="#EEEEEE" style="stroke:#000000;stroke-width:1.5;"/><rect fill="none" height="217.4922" style="stroke:#000000;stroke-width:1.5;" width="958.2627" x="335.2495" y="377.5781"/><text fill="#000000" font-family="sans-serif" font-size="13" font-weight="bold" lengthAdjust="spacing" textLength="15.7485" x="350.2495" y="391.9082">alt</text><text fill="#000000" font-family="sans-serif" font-size="11" font-weight="bold" lengthAdjust="spacing" textLength="53.4961" x="410.998" y="390.8574">[&#23457;&#26680;&#36890;&#36807;]</text><g class="message" data-participant-1="CommentController" data-participant-2="CommentDB"><polygon fill="#181818" points="1076.1602,414.5859,1086.1602,418.5859,1076.1602,422.5859,1080.1602,418.5859" style="stroke:#181818;stroke-width:1;"/><line style="stroke:#181818;stroke-width:1;" x1="631.1997" x2="1082.1602" y1="418.5859" y2="418.5859"/><text fill="#000000" font-family="sans-serif" font-size="13" lengthAdjust="spacing" textLength="250.9673" x="638.1997" y="413.4121">7. &#20445;&#23384;&#35780;&#35770;&#20449;&#24687;(userId, content, targetId)</text></g><g class="message" data-participant-1="CommentController" data-participant-2="CommentDB"><polygon fill="#181818" points="1076.1602,445.0898,1086.1602,449.0898,1076.1602,453.0898,1080.1602,449.0898" style="stroke:#181818;stroke-width:1;"/><line style="stroke:#181818;stroke-width:1;" x1="631.1997" x2="1082.1602" y1="449.0898" y2="449.0898"/><text fill="#000000" font-family="sans-serif" font-size="13" lengthAdjust="spacing" textLength="151.7217" x="638.1997" y="443.916">8. &#26356;&#26032;&#22238;&#22797;&#35745;&#25968;(targetId)</text></g><g class="message" data-participant-1="CommentDB" data-participant-2="CommentController"><polygon fill="#181818" points="642.1997,475.5938,632.1997,479.5938,642.1997,483.5938,638.1997,479.5938" style="stroke:#181818;stroke-width:1;"/><line style="stroke:#181818;stroke-width:1;stroke-dasharray:2,2;" x1="636.1997" x2="1087.1602" y1="479.5938" y2="479.5938"/><text fill="#000000" font-family="sans-serif" font-size="13" lengthAdjust="spacing" textLength="160.0181" x="648.1997" y="474.4199">9. &#36820;&#22238;&#35780;&#35770;ID(commentId)</text></g><g class="message" data-participant-1="CommentController" data-participant-2="NotificationSystem"><polygon fill="#181818" points="1201.2695,506.0977,1211.2695,510.0977,1201.2695,514.0977,1205.2695,510.0977" style="stroke:#181818;stroke-width:1;"/><line style="stroke:#181818;stroke-width:1;" x1="631.1997" x2="1207.2695" y1="510.0977" y2="510.0977"/><text fill="#000000" font-family="sans-serif" font-size="13" lengthAdjust="spacing" textLength="236.4375" x="638.1997" y="504.9238">10. &#21457;&#36865;&#22238;&#22797;&#36890;&#30693;(targetId, commentId)</text></g><g class="message" data-participant-1="CommentController" data-participant-2="CommentUI"><polygon fill="#181818" points="402.7476,536.6016,392.7476,540.6016,402.7476,544.6016,398.7476,540.6016" style="stroke:#181818;stroke-width:1;"/><line style="stroke:#181818;stroke-width:1;" x1="396.7476" x2="630.1997" y1="540.6016" y2="540.6016"/><text fill="#000000" font-family="sans-serif" font-size="13" lengthAdjust="spacing" textLength="211.5547" x="408.7476" y="535.4277">11. &#26174;&#31034;&#35780;&#35770;/&#22238;&#22797;&#25104;&#21151;(commentId)</text></g><line style="stroke:#000000;stroke-width:1;stroke-dasharray:2,2;" x1="335.2495" x2="1293.5122" y1="549.6016" y2="549.6016"/><text fill="#000000" font-family="sans-serif" font-size="11" font-weight="bold" lengthAdjust="spacing" textLength="42.1523" x="340.2495" y="560.8809">[&#19981;&#21512;&#27861;]</text><g class="message" data-participant-1="CommentController" data-participant-2="CommentUI"><polygon fill="#181818" points="402.7476,583.0703,392.7476,587.0703,402.7476,591.0703,398.7476,587.0703" style="stroke:#181818;stroke-width:1;"/><line style="stroke:#181818;stroke-width:1;" x1="396.7476" x2="630.1997" y1="587.0703" y2="587.0703"/><text fill="#000000" font-family="sans-serif" font-size="13" lengthAdjust="spacing" textLength="117" x="408.7476" y="581.8965">&#25552;&#31034;&#35780;&#35770;&#20869;&#23481;&#19981;&#21512;&#27861;</text></g><line style="stroke:#000000;stroke-width:1;stroke-dasharray:2,2;" x1="325.2495" x2="1303.5122" y1="603.0703" y2="603.0703"/><text fill="#000000" font-family="sans-serif" font-size="11" font-weight="bold" lengthAdjust="spacing" textLength="42.1523" x="330.2495" y="614.3496">[&#26410;&#30331;&#24405;]</text><g class="message" data-participant-1="CommentController" data-participant-2="CommentUI"><polygon fill="#181818" points="402.7476,636.5391,392.7476,640.5391,402.7476,644.5391,398.7476,640.5391" style="stroke:#181818;stroke-width:1;"/><line style="stroke:#181818;stroke-width:1;" x1="396.7476" x2="630.1997" y1="640.5391" y2="640.5391"/><text fill="#000000" font-family="sans-serif" font-size="13" lengthAdjust="spacing" textLength="91" x="408.7476" y="635.3652">&#25552;&#31034;&#29992;&#25143;&#20808;&#30331;&#24405;</text></g><g class="message" data-participant-1="CommentUI" data-participant-2="User"><polygon fill="#181818" points="33.7144,674.043,23.7144,678.043,33.7144,682.043,29.7144,678.043" style="stroke:#181818;stroke-width:1;"/><line style="stroke:#181818;stroke-width:1;stroke-dasharray:2,2;" x1="27.7144" x2="390.7476" y1="678.043" y2="678.043"/><text fill="#000000" font-family="sans-serif" font-size="13" lengthAdjust="spacing" textLength="174.7637" x="39.7144" y="672.8691">&#23637;&#31034;&#35780;&#35770;/&#22238;&#22797;&#32467;&#26524;&#24182;&#21047;&#26032;&#21015;&#34920;</text></g><!--SRC=[ZPFDJjj058NtynIpD1A4_jDsqKN39fikYdY08PcsLXqxiYUjkakafhLGKL91A2KKi1GaXDH0VqJ0gCdBPCREM_JQun0dJY1UZk_vviozzp2LQHHxMyV2Rlkd7_sMA-njtjZdpOs-utAtoXiTX4YM6IPUjQY92iHaQbOj49tXj97FKvsjPYQTfWsTcOQcZMa2o0eZh6Ybtz3ismHHPw1zIT-fzFtA1ulHFCeHHjQ8HGVWvUSZaXS6Kr-fMS9KGuyKABW4BpmR6iHFyTqKzZkRl78adxae7ya_LNZhKYaO5ila5e4REWzLcTmypae_SnE9zr9OL6izjoc9IbGyZnanNrFGpo4qh1-AXvq1Y5LSowk3Asz2n5I0IhGHKFV1pw7JF_aYn-bzl-B_wjxwkIYLKR9-OOgX1z2dxXPq9wvNh50BReZ6C6__bZyHXc-Ylmc31FR35EOjHnnUo8x9vaUGPFqqXuy63YNBkzeK-tkAIQsY1fCASQ7By6-_jEjtFuU7DvYD5WlWIodSw_xWFtUanLxN4ULJfGZjY-r3V3upan_3U1f_nVQPt3mVxDNFbAaWq4nhm9D10wJ7p3BiJRIoj_X9XYL8nXqOI_LhlrIEWb_QzGwEhfq5hvwDFX8to9lOwNXDToHlmgxnzODnlrI3UFSkDdZD5d_giry2yRk-G2xJA8JgEHIonTx9xHixpfKnuXKxaWQqUA2Z648z_rKVVwZSIdvvpkrsC7Fxc-ySe_y0]--></g></svg>