<?xml version="1.0" encoding="UTF-8" standalone="no"?>
<!DOCTYPE svg PUBLIC "-//W3C//DTD SVG 1.1//EN"
 "http://www.w3.org/Graphics/SVG/1.1/DTD/svg11.dtd">
<!-- Generated by graphviz version 13.1.2 (0)
 -->
<!-- Title: SchoolForumModules Pages: 1 -->
<svg width="3133pt" height="524pt"
 viewBox="0.00 0.00 3133.00 524.00" xmlns="http://www.w3.org/2000/svg" xmlns:xlink="http://www.w3.org/1999/xlink">
<g id="graph0" class="graph" transform="scale(1 1) rotate(0) translate(4 520)">
<title>SchoolForumModules</title>
<polygon fill="white" stroke="none" points="-4,4 -4,-520 3128.75,-520 3128.75,4 -4,4"/>
<g id="clust1" class="cluster">
<title>cluster_main</title>
<polygon fill="lightyellow" stroke="black" points="25.35,-192 25.35,-353 3091.35,-353 3091.35,-192 25.35,-192"/>
<text xml:space="preserve" text-anchor="middle" x="1558.35" y="-335.7" font-family="Times,serif" font-size="14.00">校园论坛平台系统</text>
</g>
<g id="clust2" class="cluster">
<title>cluster_core</title>
<polygon fill="lightcyan" stroke="black" points="33.35,-200 33.35,-322 1831.35,-322 1831.35,-200 33.35,-200"/>
<text xml:space="preserve" text-anchor="middle" x="932.35" y="-304.7" font-family="Times,serif" font-size="14.00">核心功能模块</text>
</g>
<g id="clust3" class="cluster">
<title>cluster_user_management</title>
<polygon fill="lightgreen" stroke="black" points="41.35,-208 41.35,-291 493.35,-291 493.35,-208 41.35,-208"/>
<text xml:space="preserve" text-anchor="middle" x="267.35" y="-273.7" font-family="Times,serif" font-size="14.00">用户管理模块</text>
</g>
<g id="clust4" class="cluster">
<title>cluster_content_management</title>
<polygon fill="lightpink" stroke="black" points="501.35,-208 501.35,-291 913.35,-291 913.35,-208 501.35,-208"/>
<text xml:space="preserve" text-anchor="middle" x="707.35" y="-273.7" font-family="Times,serif" font-size="14.00">内容管理模块</text>
</g>
<g id="clust5" class="cluster">
<title>cluster_social_features</title>
<polygon fill="lightcoral" stroke="black" points="921.35,-208 921.35,-291 1363.35,-291 1363.35,-208 921.35,-208"/>
<text xml:space="preserve" text-anchor="middle" x="1142.35" y="-273.7" font-family="Times,serif" font-size="14.00">社交功能模块</text>
</g>
<g id="clust6" class="cluster">
<title>cluster_search</title>
<polygon fill="lightsteelblue" stroke="black" points="1371.35,-212 1371.35,-287 1615.35,-287 1615.35,-212 1371.35,-212"/>
<text xml:space="preserve" text-anchor="middle" x="1493.35" y="-269.7" font-family="Times,serif" font-size="14.00">搜索功能模块</text>
</g>
<g id="clust7" class="cluster">
<title>cluster_messaging</title>
<polygon fill="#eedd82" stroke="black" points="1623.35,-208 1623.35,-291 1823.35,-291 1823.35,-208 1623.35,-208"/>
<text xml:space="preserve" text-anchor="middle" x="1723.35" y="-273.7" font-family="Times,serif" font-size="14.00">消息系统模块</text>
</g>
<g id="clust8" class="cluster">
<title>cluster_admin</title>
<polygon fill="lightcoral" stroke="black" points="1839.35,-212 1839.35,-287 2259.35,-287 2259.35,-212 1839.35,-212"/>
<text xml:space="preserve" text-anchor="middle" x="2049.35" y="-269.7" font-family="Times,serif" font-size="14.00">管理功能模块</text>
</g>
<g id="clust9" class="cluster">
<title>cluster_file_service</title>
<polygon fill="lightseagreen" stroke="black" points="2267.35,-212 2267.35,-287 2689.35,-287 2689.35,-212 2267.35,-212"/>
<text xml:space="preserve" text-anchor="middle" x="2478.35" y="-269.7" font-family="Times,serif" font-size="14.00">文件服务模块</text>
</g>
<g id="clust10" class="cluster">
<title>cluster_security</title>
<polygon fill="lightpink" stroke="black" points="2697.35,-212 2697.35,-287 3083.35,-287 3083.35,-212 2697.35,-212"/>
<text xml:space="preserve" text-anchor="middle" x="2890.35" y="-269.7" font-family="Times,serif" font-size="14.00">安全与审核模块</text>
</g>
<g id="clust11" class="cluster">
<title>cluster_frontend</title>
<polygon fill="lightyellow" stroke="black" points="2240.35,-425 2240.35,-508 2798.35,-508 2798.35,-425 2240.35,-425"/>
<text xml:space="preserve" text-anchor="middle" x="2519.35" y="-490.7" font-family="Times,serif" font-size="14.00">前端界面模块</text>
</g>
<g id="clust12" class="cluster">
<title>cluster_database</title>
<polygon fill="lightgray" stroke="black" points="2814.35,-429 2814.35,-504 3082.35,-504 3082.35,-429 2814.35,-429"/>
<text xml:space="preserve" text-anchor="middle" x="2948.35" y="-486.7" font-family="Times,serif" font-size="14.00">数据库模块</text>
</g>
<!-- user_auth -->
<g id="node1" class="node">
<title>user_auth</title>
<polygon fill="lightblue" stroke="black" points="151.1,-260 49.6,-260 49.6,-216 151.1,-216 151.1,-260"/>
<text xml:space="preserve" text-anchor="middle" x="100.35" y="-244.6" font-family="Arial" font-size="12.00">用户认证</text>
<text xml:space="preserve" text-anchor="middle" x="100.35" y="-226.6" font-family="Arial" font-size="12.00">(登录/注册/登出)</text>
</g>
<!-- user_profile -->
<g id="node2" class="node">
<title>user_profile</title>
<polygon fill="lightblue" stroke="black" points="271.1,-260 169.6,-260 169.6,-216 271.1,-216 271.1,-260"/>
<text xml:space="preserve" text-anchor="middle" x="220.35" y="-244.6" font-family="Arial" font-size="12.00">用户资料管理</text>
<text xml:space="preserve" text-anchor="middle" x="220.35" y="-226.6" font-family="Arial" font-size="12.00">(头像/背景/信息)</text>
</g>
<!-- user_settings -->
<g id="node3" class="node">
<title>user_settings</title>
<polygon fill="lightblue" stroke="black" points="403.1,-260 289.6,-260 289.6,-216 403.1,-216 403.1,-260"/>
<text xml:space="preserve" text-anchor="middle" x="346.35" y="-244.6" font-family="Arial" font-size="12.00">账户设置</text>
<text xml:space="preserve" text-anchor="middle" x="346.35" y="-226.6" font-family="Arial" font-size="12.00">(密码/邮箱/用户名)</text>
</g>
<!-- user_delete -->
<g id="node4" class="node">
<title>user_delete</title>
<polygon fill="lightblue" stroke="black" points="485.35,-256 421.35,-256 421.35,-220 485.35,-220 485.35,-256"/>
<text xml:space="preserve" text-anchor="middle" x="453.35" y="-235.6" font-family="Arial" font-size="12.00">账户删除</text>
</g>
<!-- tweet_management -->
<g id="node5" class="node">
<title>tweet_management</title>
<polygon fill="lightblue" stroke="black" points="611.1,-260 509.6,-260 509.6,-216 611.1,-216 611.1,-260"/>
<text xml:space="preserve" text-anchor="middle" x="560.35" y="-244.6" font-family="Arial" font-size="12.00">帖子管理</text>
<text xml:space="preserve" text-anchor="middle" x="560.35" y="-226.6" font-family="Arial" font-size="12.00">(发布/编辑/删除)</text>
</g>
<!-- comment_system -->
<g id="node6" class="node">
<title>comment_system</title>
<polygon fill="lightblue" stroke="black" points="731.1,-260 629.6,-260 629.6,-216 731.1,-216 731.1,-260"/>
<text xml:space="preserve" text-anchor="middle" x="680.35" y="-244.6" font-family="Arial" font-size="12.00">评论系统</text>
<text xml:space="preserve" text-anchor="middle" x="680.35" y="-226.6" font-family="Arial" font-size="12.00">(评论/回复/删除)</text>
</g>
<!-- media_upload -->
<g id="node7" class="node">
<title>media_upload</title>
<polygon fill="lightblue" stroke="black" points="823.6,-260 749.1,-260 749.1,-216 823.6,-216 823.6,-260"/>
<text xml:space="preserve" text-anchor="middle" x="786.35" y="-244.6" font-family="Arial" font-size="12.00">媒体上传</text>
<text xml:space="preserve" text-anchor="middle" x="786.35" y="-226.6" font-family="Arial" font-size="12.00">(图片/视频)</text>
</g>
<!-- tag_system -->
<g id="node8" class="node">
<title>tag_system</title>
<polygon fill="lightblue" stroke="black" points="905.35,-256 841.35,-256 841.35,-220 905.35,-220 905.35,-256"/>
<text xml:space="preserve" text-anchor="middle" x="873.35" y="-235.6" font-family="Arial" font-size="12.00">标签系统</text>
</g>
<!-- follow_system -->
<g id="node9" class="node">
<title>follow_system</title>
<polygon fill="lightblue" stroke="black" points="1027.6,-260 929.1,-260 929.1,-216 1027.6,-216 1027.6,-260"/>
<text xml:space="preserve" text-anchor="middle" x="978.35" y="-244.6" font-family="Arial" font-size="12.00">关注系统</text>
<text xml:space="preserve" text-anchor="middle" x="978.35" y="-226.6" font-family="Arial" font-size="12.00">(关注/取消关注)</text>
</g>
<!-- follower_list -->
<g id="node10" class="node">
<title>follower_list</title>
<polygon fill="lightblue" stroke="black" points="1109.35,-256 1045.35,-256 1045.35,-220 1109.35,-220 1109.35,-256"/>
<text xml:space="preserve" text-anchor="middle" x="1077.35" y="-235.6" font-family="Arial" font-size="12.00">粉丝列表</text>
</g>
<!-- following_list -->
<g id="node11" class="node">
<title>following_list</title>
<polygon fill="lightblue" stroke="black" points="1191.35,-256 1127.35,-256 1127.35,-220 1191.35,-220 1191.35,-256"/>
<text xml:space="preserve" text-anchor="middle" x="1159.35" y="-235.6" font-family="Arial" font-size="12.00">关注列表</text>
</g>
<!-- like_system -->
<g id="node12" class="node">
<title>like_system</title>
<polygon fill="lightblue" stroke="black" points="1273.35,-256 1209.35,-256 1209.35,-220 1273.35,-220 1273.35,-256"/>
<text xml:space="preserve" text-anchor="middle" x="1241.35" y="-235.6" font-family="Arial" font-size="12.00">点赞系统</text>
</g>
<!-- share_system -->
<g id="node13" class="node">
<title>share_system</title>
<polygon fill="lightblue" stroke="black" points="1355.35,-256 1291.35,-256 1291.35,-220 1355.35,-220 1355.35,-256"/>
<text xml:space="preserve" text-anchor="middle" x="1323.35" y="-235.6" font-family="Arial" font-size="12.00">分享系统</text>
</g>
<!-- tweet_search -->
<g id="node14" class="node">
<title>tweet_search</title>
<polygon fill="lightblue" stroke="black" points="1443.35,-256 1379.35,-256 1379.35,-220 1443.35,-220 1443.35,-256"/>
<text xml:space="preserve" text-anchor="middle" x="1411.35" y="-235.6" font-family="Arial" font-size="12.00">帖子搜索</text>
</g>
<!-- user_search -->
<g id="node15" class="node">
<title>user_search</title>
<polygon fill="lightblue" stroke="black" points="1525.35,-256 1461.35,-256 1461.35,-220 1525.35,-220 1525.35,-256"/>
<text xml:space="preserve" text-anchor="middle" x="1493.35" y="-235.6" font-family="Arial" font-size="12.00">用户搜索</text>
</g>
<!-- tag_search -->
<g id="node16" class="node">
<title>tag_search</title>
<polygon fill="lightblue" stroke="black" points="1607.35,-256 1543.35,-256 1543.35,-220 1607.35,-220 1607.35,-256"/>
<text xml:space="preserve" text-anchor="middle" x="1575.35" y="-235.6" font-family="Arial" font-size="12.00">标签搜索</text>
</g>
<!-- private_message -->
<g id="node17" class="node">
<title>private_message</title>
<polygon fill="lightblue" stroke="black" points="1733.1,-260 1631.6,-260 1631.6,-216 1733.1,-216 1733.1,-260"/>
<text xml:space="preserve" text-anchor="middle" x="1682.35" y="-244.6" font-family="Arial" font-size="12.00">私信系统</text>
<text xml:space="preserve" text-anchor="middle" x="1682.35" y="-226.6" font-family="Arial" font-size="12.00">(发送/接收/删除)</text>
</g>
<!-- message_management -->
<g id="node18" class="node">
<title>message_management</title>
<polygon fill="lightblue" stroke="black" points="1815.35,-256 1751.35,-256 1751.35,-220 1815.35,-220 1815.35,-256"/>
<text xml:space="preserve" text-anchor="middle" x="1783.35" y="-235.6" font-family="Arial" font-size="12.00">消息管理</text>
</g>
<!-- admin_auth -->
<g id="node19" class="node">
<title>admin_auth</title>
<polygon fill="lightblue" stroke="black" points="1923.35,-256 1847.35,-256 1847.35,-220 1923.35,-220 1923.35,-256"/>
<text xml:space="preserve" text-anchor="middle" x="1885.35" y="-235.6" font-family="Arial" font-size="12.00">管理员认证</text>
</g>
<!-- user_management -->
<g id="node20" class="node">
<title>user_management</title>
<polygon fill="lightblue" stroke="black" points="2087.35,-256 2023.35,-256 2023.35,-220 2087.35,-220 2087.35,-256"/>
<text xml:space="preserve" text-anchor="middle" x="2055.35" y="-235.6" font-family="Arial" font-size="12.00">用户管理</text>
</g>
<!-- content_management -->
<g id="node39" class="node">
<title>content_management</title>
<polygon fill="lightblue" stroke="black" points="2121.1,-180 1989.6,-180 1989.6,-144 2121.1,-144 2121.1,-180"/>
<text xml:space="preserve" text-anchor="middle" x="2055.35" y="-157.72" font-family="Arial" font-size="12.00">content_management</text>
</g>
<!-- user_management&#45;&gt;content_management -->
<g id="edge1" class="edge">
<title>user_management&#45;&gt;content_management</title>
<path fill="none" stroke="black" d="M2055.35,-219.84C2055.35,-211.49 2055.35,-201.23 2055.35,-191.74"/>
<polygon fill="black" stroke="black" points="2058.85,-191.84 2055.35,-181.84 2051.85,-191.84 2058.85,-191.84"/>
</g>
<!-- content_moderation -->
<g id="node21" class="node">
<title>content_moderation</title>
<polygon fill="lightblue" stroke="black" points="2169.35,-256 2105.35,-256 2105.35,-220 2169.35,-220 2169.35,-256"/>
<text xml:space="preserve" text-anchor="middle" x="2137.35" y="-235.6" font-family="Arial" font-size="12.00">内容审核</text>
</g>
<!-- report_management -->
<g id="node22" class="node">
<title>report_management</title>
<polygon fill="lightblue" stroke="black" points="2005.35,-256 1941.35,-256 1941.35,-220 2005.35,-220 2005.35,-256"/>
<text xml:space="preserve" text-anchor="middle" x="1973.35" y="-235.6" font-family="Arial" font-size="12.00">举报管理</text>
</g>
<!-- system_monitoring -->
<g id="node23" class="node">
<title>system_monitoring</title>
<polygon fill="lightblue" stroke="black" points="2251.35,-256 2187.35,-256 2187.35,-220 2251.35,-220 2251.35,-256"/>
<text xml:space="preserve" text-anchor="middle" x="2219.35" y="-235.6" font-family="Arial" font-size="12.00">系统监控</text>
</g>
<!-- avatar_files -->
<g id="node24" class="node">
<title>avatar_files</title>
<polygon fill="lightblue" stroke="black" points="2363.35,-256 2275.35,-256 2275.35,-220 2363.35,-220 2363.35,-256"/>
<text xml:space="preserve" text-anchor="middle" x="2319.35" y="-235.6" font-family="Arial" font-size="12.00">头像文件服务</text>
</g>
<!-- bg_files -->
<g id="node25" class="node">
<title>bg_files</title>
<polygon fill="lightblue" stroke="black" points="2469.35,-256 2381.35,-256 2381.35,-220 2469.35,-220 2469.35,-256"/>
<text xml:space="preserve" text-anchor="middle" x="2425.35" y="-235.6" font-family="Arial" font-size="12.00">背景文件服务</text>
</g>
<!-- media_files -->
<g id="node26" class="node">
<title>media_files</title>
<polygon fill="lightblue" stroke="black" points="2575.35,-256 2487.35,-256 2487.35,-220 2575.35,-220 2575.35,-256"/>
<text xml:space="preserve" text-anchor="middle" x="2531.35" y="-235.6" font-family="Arial" font-size="12.00">媒体文件服务</text>
</g>
<!-- file_upload -->
<g id="node27" class="node">
<title>file_upload</title>
<polygon fill="lightblue" stroke="black" points="2681.35,-256 2593.35,-256 2593.35,-220 2681.35,-220 2681.35,-256"/>
<text xml:space="preserve" text-anchor="middle" x="2637.35" y="-235.6" font-family="Arial" font-size="12.00">文件上传服务</text>
</g>
<!-- content_moderation_util -->
<g id="node28" class="node">
<title>content_moderation_util</title>
<polygon fill="lightblue" stroke="black" points="2793.35,-256 2705.35,-256 2705.35,-220 2793.35,-220 2793.35,-256"/>
<text xml:space="preserve" text-anchor="middle" x="2749.35" y="-235.6" font-family="Arial" font-size="12.00">内容审核工具</text>
</g>
<!-- auth_util -->
<g id="node29" class="node">
<title>auth_util</title>
<polygon fill="lightblue" stroke="black" points="2875.35,-256 2811.35,-256 2811.35,-220 2875.35,-220 2875.35,-256"/>
<text xml:space="preserve" text-anchor="middle" x="2843.35" y="-235.6" font-family="Arial" font-size="12.00">认证工具</text>
</g>
<!-- admin_auth_util -->
<g id="node30" class="node">
<title>admin_auth_util</title>
<polygon fill="lightblue" stroke="black" points="2993.35,-256 2893.35,-256 2893.35,-220 2993.35,-220 2993.35,-256"/>
<text xml:space="preserve" text-anchor="middle" x="2943.35" y="-235.6" font-family="Arial" font-size="12.00">管理员认证工具</text>
</g>
<!-- report_system -->
<g id="node31" class="node">
<title>report_system</title>
<polygon fill="lightblue" stroke="black" points="3075.35,-256 3011.35,-256 3011.35,-220 3075.35,-220 3075.35,-256"/>
<text xml:space="preserve" text-anchor="middle" x="3043.35" y="-235.6" font-family="Arial" font-size="12.00">举报系统</text>
</g>
<!-- pages -->
<g id="node32" class="node">
<title>pages</title>
<polygon fill="lightblue" stroke="black" points="2388.6,-477 2248.1,-477 2248.1,-433 2388.6,-433 2388.6,-477"/>
<text xml:space="preserve" text-anchor="middle" x="2318.35" y="-461.6" font-family="Arial" font-size="12.00">页面组件</text>
<text xml:space="preserve" text-anchor="middle" x="2318.35" y="-443.6" font-family="Arial" font-size="12.00">(首页/详情/编辑/搜索等)</text>
</g>
<!-- components -->
<g id="node33" class="node">
<title>components</title>
<polygon fill="lightblue" stroke="black" points="2580.1,-477 2406.6,-477 2406.6,-433 2580.1,-433 2580.1,-477"/>
<text xml:space="preserve" text-anchor="middle" x="2493.35" y="-461.6" font-family="Arial" font-size="12.00">UI组件</text>
<text xml:space="preserve" text-anchor="middle" x="2493.35" y="-443.6" font-family="Arial" font-size="12.00">(帖子卡片/评论区域/导航栏等)</text>
</g>
<!-- layouts -->
<g id="node34" class="node">
<title>layouts</title>
<polygon fill="lightblue" stroke="black" points="2662.35,-473 2598.35,-473 2598.35,-437 2662.35,-437 2662.35,-473"/>
<text xml:space="preserve" text-anchor="middle" x="2630.35" y="-452.6" font-family="Arial" font-size="12.00">布局组件</text>
</g>
<!-- composables -->
<g id="node35" class="node">
<title>composables</title>
<polygon fill="lightblue" stroke="black" points="2790.6,-477 2680.1,-477 2680.1,-433 2790.6,-433 2790.6,-477"/>
<text xml:space="preserve" text-anchor="middle" x="2735.35" y="-461.6" font-family="Arial" font-size="12.00">组合式函数</text>
<text xml:space="preserve" text-anchor="middle" x="2735.35" y="-443.6" font-family="Arial" font-size="12.00">(认证/用户状态等)</text>
</g>
<!-- database_util -->
<g id="node36" class="node">
<title>database_util</title>
<polygon fill="lightblue" stroke="black" points="2898.35,-473 2822.35,-473 2822.35,-437 2898.35,-437 2898.35,-473"/>
<text xml:space="preserve" text-anchor="middle" x="2860.35" y="-452.6" font-family="Arial" font-size="12.00">数据库工具</text>
</g>
<!-- data_models -->
<g id="node37" class="node">
<title>data_models</title>
<polygon fill="lightblue" stroke="black" points="2980.35,-473 2916.35,-473 2916.35,-437 2980.35,-437 2980.35,-473"/>
<text xml:space="preserve" text-anchor="middle" x="2948.35" y="-452.6" font-family="Arial" font-size="12.00">数据模型</text>
</g>
<!-- data_functions -->
<g id="node38" class="node">
<title>data_functions</title>
<polygon fill="lightblue" stroke="black" points="3074.35,-473 2998.35,-473 2998.35,-437 3074.35,-437 3074.35,-473"/>
<text xml:space="preserve" text-anchor="middle" x="3036.35" y="-452.6" font-family="Arial" font-size="12.00">数据库函数</text>
</g>
<!-- social_features -->
<g id="node40" class="node">
<title>social_features</title>
<polygon fill="lightblue" stroke="black" points="2056.85,-108 1959.85,-108 1959.85,-72 2056.85,-72 2056.85,-108"/>
<text xml:space="preserve" text-anchor="middle" x="2008.35" y="-85.72" font-family="Arial" font-size="12.00">social_features</text>
</g>
<!-- content_management&#45;&gt;social_features -->
<g id="edge2" class="edge">
<title>content_management&#45;&gt;social_features</title>
<path fill="none" stroke="black" d="M2043.73,-143.7C2038.44,-135.81 2032.05,-126.3 2026.17,-117.55"/>
<polygon fill="black" stroke="black" points="2029.16,-115.71 2020.68,-109.36 2023.34,-119.61 2029.16,-115.71"/>
</g>
<!-- search -->
<g id="node42" class="node">
<title>search</title>
<polygon fill="lightblue" stroke="black" points="2129.35,-108 2075.35,-108 2075.35,-72 2129.35,-72 2129.35,-108"/>
<text xml:space="preserve" text-anchor="middle" x="2102.35" y="-85.72" font-family="Arial" font-size="12.00">search</text>
</g>
<!-- content_management&#45;&gt;search -->
<g id="edge4" class="edge">
<title>content_management&#45;&gt;search</title>
<path fill="none" stroke="black" d="M2066.97,-143.7C2072.26,-135.81 2078.64,-126.3 2084.52,-117.55"/>
<polygon fill="black" stroke="black" points="2087.35,-119.61 2090.02,-109.36 2081.54,-115.71 2087.35,-119.61"/>
</g>
<!-- messaging -->
<g id="node41" class="node">
<title>messaging</title>
<polygon fill="lightblue" stroke="black" points="2045.6,-36 1971.1,-36 1971.1,0 2045.6,0 2045.6,-36"/>
<text xml:space="preserve" text-anchor="middle" x="2008.35" y="-13.72" font-family="Arial" font-size="12.00">messaging</text>
</g>
<!-- social_features&#45;&gt;messaging -->
<g id="edge3" class="edge">
<title>social_features&#45;&gt;messaging</title>
<path fill="none" stroke="black" d="M2008.35,-71.7C2008.35,-64.41 2008.35,-55.73 2008.35,-47.54"/>
<polygon fill="black" stroke="black" points="2011.85,-47.62 2008.35,-37.62 2004.85,-47.62 2011.85,-47.62"/>
</g>
<!-- frontend -->
<g id="node43" class="node">
<title>frontend</title>
<polygon fill="lightblue" stroke="black" points="2214.1,-473 2154.6,-473 2154.6,-437 2214.1,-437 2214.1,-473"/>
<text xml:space="preserve" text-anchor="middle" x="2184.35" y="-450.73" font-family="Arial" font-size="12.00">frontend</text>
</g>
<!-- core -->
<g id="node44" class="node">
<title>core</title>
<polygon fill="lightblue" stroke="black" points="2154.35,-397 2100.35,-397 2100.35,-361 2154.35,-361 2154.35,-397"/>
<text xml:space="preserve" text-anchor="middle" x="2127.35" y="-374.73" font-family="Arial" font-size="12.00">core</text>
</g>
<!-- frontend&#45;&gt;core -->
<g id="edge5" class="edge">
<title>frontend&#45;&gt;core</title>
<path fill="none" stroke="black" d="M2171.13,-436.84C2164.13,-427.75 2155.38,-416.4 2147.55,-406.23"/>
<polygon fill="black" stroke="black" points="2150.49,-404.31 2141.62,-398.53 2144.95,-408.58 2150.49,-404.31"/>
</g>
<!-- admin -->
<g id="node45" class="node">
<title>admin</title>
<polygon fill="lightblue" stroke="black" points="2082.35,-397 2028.35,-397 2028.35,-361 2082.35,-361 2082.35,-397"/>
<text xml:space="preserve" text-anchor="middle" x="2055.35" y="-374.73" font-family="Arial" font-size="12.00">admin</text>
</g>
<!-- frontend&#45;&gt;admin -->
<g id="edge6" class="edge">
<title>frontend&#45;&gt;admin</title>
<path fill="none" stroke="black" d="M2162.54,-436.74C2157.06,-432.7 2151.1,-428.54 2145.35,-425 2135.78,-419.11 2113.12,-407.79 2092.93,-397.97"/>
<polygon fill="black" stroke="black" points="2094.57,-394.88 2084.04,-393.67 2091.52,-401.18 2094.57,-394.88"/>
</g>
<!-- file_service -->
<g id="node46" class="node">
<title>file_service</title>
<polygon fill="lightblue" stroke="black" points="2248.72,-397 2171.97,-397 2171.97,-361 2248.72,-361 2248.72,-397"/>
<text xml:space="preserve" text-anchor="middle" x="2210.35" y="-374.73" font-family="Arial" font-size="12.00">file_service</text>
</g>
<!-- frontend&#45;&gt;file_service -->
<g id="edge7" class="edge">
<title>frontend&#45;&gt;file_service</title>
<path fill="none" stroke="black" d="M2190.38,-436.84C2193.37,-428.31 2197.07,-417.78 2200.47,-408.11"/>
<polygon fill="black" stroke="black" points="2203.74,-409.35 2203.76,-398.75 2197.14,-407.03 2203.74,-409.35"/>
</g>
<!-- admin&#45;&gt;user_management -->
<g id="edge8" class="edge">
<title>admin&#45;&gt;user_management</title>
<path fill="none" stroke="black" d="M2055.35,-360.68C2055.35,-337.35 2055.35,-295.53 2055.35,-267.53"/>
<polygon fill="black" stroke="black" points="2058.85,-267.62 2055.35,-257.62 2051.85,-267.62 2058.85,-267.62"/>
</g>
<!-- admin&#45;&gt;content_moderation -->
<g id="edge9" class="edge">
<title>admin&#45;&gt;content_moderation</title>
<path fill="none" stroke="black" d="M2082.56,-365.03C2087.65,-361.66 2092.55,-357.65 2096.35,-353 2116.68,-328.07 2127.36,-292.23 2132.65,-267.42"/>
<polygon fill="black" stroke="black" points="2136.07,-268.19 2134.55,-257.71 2129.2,-266.85 2136.07,-268.19"/>
</g>
<!-- admin&#45;&gt;report_management -->
<g id="edge10" class="edge">
<title>admin&#45;&gt;report_management</title>
<path fill="none" stroke="black" d="M2028.13,-365.03C2023.04,-361.66 2018.14,-357.65 2014.35,-353 1994.01,-328.07 1983.34,-292.23 1978.04,-267.42"/>
<polygon fill="black" stroke="black" points="1981.5,-266.85 1976.15,-257.71 1974.63,-268.19 1981.5,-266.85"/>
</g>
<!-- file_service&#45;&gt;user_management -->
<g id="edge11" class="edge">
<title>file_service&#45;&gt;user_management</title>
<path fill="none" stroke="black" d="M2171.57,-363.2C2168.81,-362.39 2166.05,-361.64 2163.35,-361 2148.76,-357.54 2108.08,-362.34 2096.35,-353 2070.37,-332.33 2060.84,-293.82 2057.35,-267.32"/>
<polygon fill="black" stroke="black" points="2060.86,-267.16 2056.3,-257.6 2053.9,-267.92 2060.86,-267.16"/>
</g>
<!-- file_service&#45;&gt;content_management -->
<g id="edge12" class="edge">
<title>file_service&#45;&gt;content_management</title>
<path fill="none" stroke="black" d="M2249.01,-377.63C2416.59,-375.91 3072.53,-368.24 3087.35,-353 3137.22,-301.69 3137.23,-243.3 3087.35,-192 3070.74,-174.92 2369.69,-166.21 2132.7,-163.74"/>
<polygon fill="black" stroke="black" points="2132.98,-160.25 2122.95,-163.64 2132.91,-167.25 2132.98,-160.25"/>
</g>
<!-- security -->
<g id="node47" class="node">
<title>security</title>
<polygon fill="lightblue" stroke="black" points="2028.97,-473 1971.72,-473 1971.72,-437 2028.97,-437 2028.97,-473"/>
<text xml:space="preserve" text-anchor="middle" x="2000.35" y="-450.73" font-family="Arial" font-size="12.00">security</text>
</g>
<!-- security&#45;&gt;user_management -->
<g id="edge13" class="edge">
<title>security&#45;&gt;user_management</title>
<path fill="none" stroke="black" d="M2003.41,-436.76C2006.85,-418.02 2012.81,-387.22 2019.35,-361 2027.46,-328.44 2038.62,-291.56 2046.36,-266.95"/>
<polygon fill="black" stroke="black" points="2049.61,-268.28 2049.29,-257.69 2042.94,-266.17 2049.61,-268.28"/>
</g>
<!-- security&#45;&gt;content_management -->
<g id="edge14" class="edge">
<title>security&#45;&gt;content_management</title>
<path fill="none" stroke="black" d="M1971.42,-453.63C1733.54,-450.5 107.04,-426.38 37.35,-353 -11.93,-301.12 -12.89,-242.96 37.35,-192 54.69,-174.4 1609.59,-165.29 1977.8,-163.38"/>
<polygon fill="black" stroke="black" points="1977.62,-166.88 1987.61,-163.33 1977.59,-159.88 1977.62,-166.88"/>
</g>
<!-- security&#45;&gt;admin -->
<g id="edge15" class="edge">
<title>security&#45;&gt;admin</title>
<path fill="none" stroke="black" d="M2013.1,-436.84C2019.79,-427.84 2028.12,-416.63 2035.62,-406.54"/>
<polygon fill="black" stroke="black" points="2038.41,-408.65 2041.57,-398.54 2032.79,-404.48 2038.41,-408.65"/>
</g>
<!-- database -->
<g id="node48" class="node">
<title>database</title>
<polygon fill="lightblue" stroke="black" points="2136.1,-473 2070.6,-473 2070.6,-437 2136.1,-437 2136.1,-473"/>
<text xml:space="preserve" text-anchor="middle" x="2103.35" y="-450.73" font-family="Arial" font-size="12.00">database</text>
</g>
<!-- database&#45;&gt;core -->
<g id="edge16" class="edge">
<title>database&#45;&gt;core</title>
<path fill="none" stroke="black" d="M2108.91,-436.84C2111.68,-428.31 2115.1,-417.78 2118.23,-408.11"/>
<polygon fill="black" stroke="black" points="2121.5,-409.36 2121.26,-398.77 2114.85,-407.2 2121.5,-409.36"/>
</g>
<!-- database&#45;&gt;admin -->
<g id="edge17" class="edge">
<title>database&#45;&gt;admin</title>
<path fill="none" stroke="black" d="M2092.21,-436.84C2086.44,-427.93 2079.25,-416.86 2072.77,-406.85"/>
<polygon fill="black" stroke="black" points="2075.79,-405.08 2067.41,-398.6 2069.92,-408.89 2075.79,-405.08"/>
</g>
<!-- database&#45;&gt;file_service -->
<g id="edge18" class="edge">
<title>database&#45;&gt;file_service</title>
<path fill="none" stroke="black" d="M2128.43,-436.65C2142.55,-426.89 2160.39,-414.55 2175.81,-403.88"/>
<polygon fill="black" stroke="black" points="2177.57,-406.93 2183.8,-398.36 2173.59,-401.17 2177.57,-406.93"/>
</g>
</g>
</svg>
