<?xml version="1.0" encoding="UTF-8" standalone="no"?>
<!DOCTYPE svg PUBLIC "-//W3C//DTD SVG 1.1//EN"
 "http://www.w3.org/Graphics/SVG/1.1/DTD/svg11.dtd">
<!-- Generated by graphviz version 13.1.2 (0)
 -->
<!-- Title: ER Pages: 1 -->
<svg width="1469pt" height="1518pt"
 viewBox="0.00 0.00 1469.00 1518.00" xmlns="http://www.w3.org/2000/svg" xmlns:xlink="http://www.w3.org/1999/xlink">
<g id="graph0" class="graph" transform="scale(1 1) rotate(0) translate(4 1514.13)">
<title>ER</title>
<polygon fill="white" stroke="none" points="-4,4 -4,-1514.13 1465.26,-1514.13 1465.26,4 -4,4"/>
<!-- Users -->
<g id="node1" class="node">
<title>Users</title>
<polygon fill="none" stroke="black" points="926.05,-552.2 872.05,-552.2 872.05,-516.2 926.05,-516.2 926.05,-552.2"/>
<text xml:space="preserve" text-anchor="middle" x="899.05" y="-528.4" font-family="Helvetica,Arial,sans-serif" font-size="14.00">Users</text>
</g>
<!-- U&#45;T -->
<g id="node44" class="node">
<title>U&#45;T</title>
<polygon fill="lightgrey" stroke="lightgrey" points="782.97,-723.46 748.27,-705.46 782.97,-687.46 817.67,-705.46 782.97,-723.46"/>
<text xml:space="preserve" text-anchor="middle" x="782.97" y="-699.66" font-family="Helvetica,Arial,sans-serif" font-size="14.00">U&#45;T</text>
</g>
<!-- Users&#45;&#45;U&#45;T -->
<g id="edge13" class="edge">
<title>Users&#45;&#45;U&#45;T</title>
<path fill="none" stroke="black" d="M886.62,-552.52C863.11,-587.21 812.62,-661.71 792.01,-692.12"/>
<text xml:space="preserve" text-anchor="middle" x="835.57" y="-624.02" font-family="Helvetica,Arial,sans-serif" font-size="14.00">1</text>
</g>
<!-- U&#45;C -->
<g id="node45" class="node">
<title>U&#45;C</title>
<polygon fill="lightgrey" stroke="lightgrey" points="717.12,-468.82 679.67,-450.82 717.12,-432.82 754.58,-450.82 717.12,-468.82"/>
<text xml:space="preserve" text-anchor="middle" x="717.12" y="-445.02" font-family="Helvetica,Arial,sans-serif" font-size="14.00">U&#45;C</text>
</g>
<!-- Users&#45;&#45;U&#45;C -->
<g id="edge15" class="edge">
<title>Users&#45;&#45;U&#45;C</title>
<path fill="none" stroke="black" d="M871.81,-521.71C834.74,-504.72 769.29,-474.73 736.7,-459.79"/>
<text xml:space="preserve" text-anchor="middle" x="800.5" y="-492.45" font-family="Helvetica,Arial,sans-serif" font-size="14.00">1</text>
</g>
<!-- U&#45;L -->
<g id="node46" class="node">
<title>U&#45;L</title>
<polygon fill="lightgrey" stroke="lightgrey" points="980.28,-708.84 945.58,-690.84 980.28,-672.84 1014.98,-690.84 980.28,-708.84"/>
<text xml:space="preserve" text-anchor="middle" x="980.28" y="-685.04" font-family="Helvetica,Arial,sans-serif" font-size="14.00">U&#45;L</text>
</g>
<!-- Users&#45;&#45;U&#45;L -->
<g id="edge17" class="edge">
<title>Users&#45;&#45;U&#45;L</title>
<path fill="none" stroke="black" d="M908.52,-552.47C924.85,-583.95 957.93,-647.75 972.78,-676.38"/>
<text xml:space="preserve" text-anchor="middle" x="936.9" y="-616.12" font-family="Helvetica,Arial,sans-serif" font-size="14.00">1</text>
</g>
<!-- U&#45;Msg -->
<g id="node47" class="node">
<title>U&#45;Msg</title>
<polygon fill="lightgrey" stroke="lightgrey" points="874.36,-359.87 822.43,-341.87 874.36,-323.87 926.29,-341.87 874.36,-359.87"/>
<text xml:space="preserve" text-anchor="middle" x="874.36" y="-336.07" font-family="Helvetica,Arial,sans-serif" font-size="14.00">U&#45;Msg</text>
</g>
<!-- Users&#45;&#45;U&#45;Msg -->
<g id="edge19" class="edge">
<title>Users&#45;&#45;U&#45;Msg</title>
<path fill="none" stroke="black" d="M896.68,-515.75C891.92,-478.71 881.27,-395.71 876.61,-359.42"/>
<text xml:space="preserve" text-anchor="middle" x="882.89" y="-439.29" font-family="Helvetica,Arial,sans-serif" font-size="14.00">1</text>
</g>
<!-- U&#45;F -->
<g id="node48" class="node">
<title>U&#45;F</title>
<polygon fill="lightgrey" stroke="lightgrey" points="1067.46,-445.28 1032.07,-427.28 1067.46,-409.28 1102.85,-427.28 1067.46,-445.28"/>
<text xml:space="preserve" text-anchor="middle" x="1067.46" y="-421.48" font-family="Helvetica,Arial,sans-serif" font-size="14.00">U&#45;F</text>
</g>
<!-- Users&#45;&#45;U&#45;F -->
<g id="edge11" class="edge">
<title>Users&#45;&#45;U&#45;F</title>
<path fill="none" stroke="black" d="M926.48,-516.78C961.9,-494.29 1022.4,-455.88 1051.24,-437.57"/>
<text xml:space="preserve" text-anchor="middle" x="983.99" y="-478.88" font-family="Helvetica,Arial,sans-serif" font-size="14.00">N</text>
</g>
<!-- U&#45;Admin -->
<g id="node49" class="node">
<title>U&#45;Admin</title>
<polygon fill="lightgrey" stroke="lightgrey" points="1064.39,-610.3 1000.74,-592.3 1064.39,-574.3 1128.05,-592.3 1064.39,-610.3"/>
<text xml:space="preserve" text-anchor="middle" x="1064.39" y="-586.5" font-family="Helvetica,Arial,sans-serif" font-size="14.00">U&#45;Admin</text>
</g>
<!-- Users&#45;&#45;U&#45;Admin -->
<g id="edge9" class="edge">
<title>Users&#45;&#45;U&#45;Admin</title>
<path fill="none" stroke="black" d="M926.35,-543.79C956.44,-554.36 1004.63,-571.3 1035.38,-582.11"/>
<text xml:space="preserve" text-anchor="middle" x="977.11" y="-564.65" font-family="Helvetica,Arial,sans-serif" font-size="14.00">1</text>
</g>
<!-- U&#45;Avatar -->
<g id="node50" class="node">
<title>U&#45;Avatar</title>
<polygon fill="lightgrey" stroke="lightgrey" points="1071.15,-559.34 1007.5,-541.34 1071.15,-523.34 1134.8,-541.34 1071.15,-559.34"/>
<text xml:space="preserve" text-anchor="middle" x="1071.15" y="-535.54" font-family="Helvetica,Arial,sans-serif" font-size="14.00">U&#45;Avatar</text>
</g>
<!-- Users&#45;&#45;U&#45;Avatar -->
<g id="edge7" class="edge">
<title>Users&#45;&#45;U&#45;Avatar</title>
<path fill="none" stroke="black" d="M926.32,-535.33C949.82,-536.3 984.54,-537.74 1014.09,-538.97"/>
<text xml:space="preserve" text-anchor="middle" x="966.45" y="-538.85" font-family="Helvetica,Arial,sans-serif" font-size="14.00">1</text>
</g>
<!-- Tweets -->
<g id="node2" class="node">
<title>Tweets</title>
<polygon fill="none" stroke="black" points="728.38,-881.25 669.63,-881.25 669.63,-845.25 728.38,-845.25 728.38,-881.25"/>
<text xml:space="preserve" text-anchor="middle" x="699" y="-857.45" font-family="Helvetica,Arial,sans-serif" font-size="14.00">Tweets</text>
</g>
<!-- T&#45;M -->
<g id="node51" class="node">
<title>T&#45;M</title>
<polygon fill="lightgrey" stroke="lightgrey" points="777.84,-1077.42 741.07,-1059.42 777.84,-1041.42 814.61,-1059.42 777.84,-1077.42"/>
<text xml:space="preserve" text-anchor="middle" x="777.84" y="-1053.62" font-family="Helvetica,Arial,sans-serif" font-size="14.00">T&#45;M</text>
</g>
<!-- Tweets&#45;&#45;T&#45;M -->
<g id="edge25" class="edge">
<title>Tweets&#45;&#45;T&#45;M</title>
<path fill="none" stroke="black" d="M706.42,-881.7C721.9,-920.23 757.42,-1008.61 771.71,-1044.17"/>
<text xml:space="preserve" text-anchor="middle" x="735.32" y="-964.64" font-family="Helvetica,Arial,sans-serif" font-size="14.00">1</text>
</g>
<!-- T&#45;L -->
<g id="node52" class="node">
<title>T&#45;L</title>
<polygon fill="lightgrey" stroke="lightgrey" points="857.38,-941.16 824.75,-923.16 857.38,-905.16 890.01,-923.16 857.38,-941.16"/>
<text xml:space="preserve" text-anchor="middle" x="857.38" y="-917.36" font-family="Helvetica,Arial,sans-serif" font-size="14.00">T&#45;L</text>
</g>
<!-- Tweets&#45;&#45;T&#45;L -->
<g id="edge27" class="edge">
<title>Tweets&#45;&#45;T&#45;L</title>
<path fill="none" stroke="black" d="M728.79,-874.51C760.69,-886.58 810.39,-905.38 837.72,-915.72"/>
<text xml:space="preserve" text-anchor="middle" x="779.51" y="-896.82" font-family="Helvetica,Arial,sans-serif" font-size="14.00">1</text>
</g>
<!-- T&#45;Tags -->
<g id="node53" class="node">
<title>T&#45;Tags</title>
<polygon fill="lightgrey" stroke="lightgrey" points="543.93,-1009.01 492,-991.01 543.93,-973.01 595.86,-991.01 543.93,-1009.01"/>
<text xml:space="preserve" text-anchor="middle" x="543.93" y="-985.21" font-family="Helvetica,Arial,sans-serif" font-size="14.00">T&#45;Tags</text>
</g>
<!-- Tweets&#45;&#45;T&#45;Tags -->
<g id="edge29" class="edge">
<title>Tweets&#45;&#45;T&#45;Tags</title>
<path fill="none" stroke="black" d="M676.78,-881.55C644.96,-907.77 587.19,-955.37 559.52,-978.17"/>
<text xml:space="preserve" text-anchor="middle" x="614.4" y="-931.56" font-family="Helvetica,Arial,sans-serif" font-size="14.00">1</text>
</g>
<!-- T&#45;Reports -->
<g id="node54" class="node">
<title>T&#45;Reports</title>
<polygon fill="lightgrey" stroke="lightgrey" points="522.87,-789.66 453.01,-771.66 522.87,-753.66 592.72,-771.66 522.87,-789.66"/>
<text xml:space="preserve" text-anchor="middle" x="522.87" y="-765.86" font-family="Helvetica,Arial,sans-serif" font-size="14.00">T&#45;Reports</text>
</g>
<!-- Tweets&#45;&#45;T&#45;Reports -->
<g id="edge31" class="edge">
<title>Tweets&#45;&#45;T&#45;Reports</title>
<path fill="none" stroke="black" d="M669.52,-847.92C634.95,-829.94 578.34,-800.51 546.51,-783.96"/>
<text xml:space="preserve" text-anchor="middle" x="604.27" y="-817.64" font-family="Helvetica,Arial,sans-serif" font-size="14.00">1</text>
</g>
<!-- Comments -->
<g id="node3" class="node">
<title>Comments</title>
<polygon fill="none" stroke="black" points="610.08,-365.05 527.33,-365.05 527.33,-329.05 610.08,-329.05 610.08,-365.05"/>
<text xml:space="preserve" text-anchor="middle" x="568.7" y="-341.25" font-family="Helvetica,Arial,sans-serif" font-size="14.00">Comments</text>
</g>
<!-- C&#45;Msg -->
<g id="node55" class="node">
<title>C&#45;Msg</title>
<polygon fill="lightgrey" stroke="lightgrey" points="650.29,-217.21 597.67,-199.21 650.29,-181.21 702.91,-199.21 650.29,-217.21"/>
<text xml:space="preserve" text-anchor="middle" x="650.29" y="-193.41" font-family="Helvetica,Arial,sans-serif" font-size="14.00">C&#45;Msg</text>
</g>
<!-- Comments&#45;&#45;C&#45;Msg -->
<g id="edge37" class="edge">
<title>Comments&#45;&#45;C&#45;Msg</title>
<path fill="none" stroke="black" d="M578.87,-328.62C595.1,-299.21 626.58,-242.17 641.73,-214.72"/>
<text xml:space="preserve" text-anchor="middle" x="606.55" y="-273.37" font-family="Helvetica,Arial,sans-serif" font-size="14.00">1</text>
</g>
<!-- C&#45;Reports -->
<g id="node56" class="node">
<title>C&#45;Reports</title>
<polygon fill="lightgrey" stroke="lightgrey" points="453.55,-508.6 380.94,-490.6 453.55,-472.6 526.16,-490.6 453.55,-508.6"/>
<text xml:space="preserve" text-anchor="middle" x="453.55" y="-484.8" font-family="Helvetica,Arial,sans-serif" font-size="14.00">C&#45;Reports</text>
</g>
<!-- Comments&#45;&#45;C&#45;Reports -->
<g id="edge39" class="edge">
<title>Comments&#45;&#45;C&#45;Reports</title>
<path fill="none" stroke="black" d="M553.88,-365.52C530.92,-394.14 487.18,-448.68 465.85,-475.26"/>
<text xml:space="preserve" text-anchor="middle" x="506.12" y="-422.09" font-family="Helvetica,Arial,sans-serif" font-size="14.00">1</text>
</g>
<!-- Media -->
<g id="node4" class="node">
<title>Media</title>
<polygon fill="none" stroke="black" points="870.23,-1239.19 816.23,-1239.19 816.23,-1203.19 870.23,-1203.19 870.23,-1239.19"/>
<text xml:space="preserve" text-anchor="middle" x="843.23" y="-1215.39" font-family="Helvetica,Arial,sans-serif" font-size="14.00">Media</text>
</g>
<!-- Likes -->
<g id="node5" class="node">
<title>Likes</title>
<polygon fill="none" stroke="black" points="1033.83,-870.93 979.83,-870.93 979.83,-834.93 1033.83,-834.93 1033.83,-870.93"/>
<text xml:space="preserve" text-anchor="middle" x="1006.83" y="-847.13" font-family="Helvetica,Arial,sans-serif" font-size="14.00">Likes</text>
</g>
<!-- Messages -->
<g id="node6" class="node">
<title>Messages</title>
<polygon fill="none" stroke="black" points="854.71,-194.7 776.46,-194.7 776.46,-158.7 854.71,-158.7 854.71,-194.7"/>
<text xml:space="preserve" text-anchor="middle" x="815.59" y="-170.9" font-family="Helvetica,Arial,sans-serif" font-size="14.00">Messages</text>
</g>
<!-- TAGS -->
<g id="node7" class="node">
<title>TAGS</title>
<polygon fill="none" stroke="black" points="223.98,-1348.4 169.98,-1348.4 169.98,-1312.4 223.98,-1312.4 223.98,-1348.4"/>
<text xml:space="preserve" text-anchor="middle" x="196.98" y="-1324.6" font-family="Helvetica,Arial,sans-serif" font-size="14.00">TAGS</text>
</g>
<!-- TweetTags -->
<g id="node8" class="node">
<title>TweetTags</title>
<polygon fill="none" stroke="black" points="469.64,-1128.22 388.39,-1128.22 388.39,-1092.22 469.64,-1092.22 469.64,-1128.22"/>
<text xml:space="preserve" text-anchor="middle" x="429.02" y="-1104.42" font-family="Helvetica,Arial,sans-serif" font-size="14.00">TweetTags</text>
</g>
<!-- TweetTag&#45;Tag -->
<g id="node57" class="node">
<title>TweetTag&#45;Tag</title>
<polygon fill="lightgrey" stroke="lightgrey" points="314.67,-1239.9 222.06,-1221.9 314.67,-1203.9 407.27,-1221.9 314.67,-1239.9"/>
<text xml:space="preserve" text-anchor="middle" x="314.67" y="-1216.1" font-family="Helvetica,Arial,sans-serif" font-size="14.00">TweetTag&#45;Tag</text>
</g>
<!-- TweetTags&#45;&#45;TweetTag&#45;Tag -->
<g id="edge43" class="edge">
<title>TweetTags&#45;&#45;TweetTag&#45;Tag</title>
<path fill="none" stroke="black" d="M410.14,-1128.66C387.81,-1150.47 351.06,-1186.36 330.27,-1206.66"/>
<text xml:space="preserve" text-anchor="middle" x="365.33" y="-1169.36" font-family="Helvetica,Arial,sans-serif" font-size="14.00">N</text>
</g>
<!-- Follows -->
<g id="node9" class="node">
<title>Follows</title>
<polygon fill="none" stroke="black" points="1268.45,-387.41 1206.7,-387.41 1206.7,-351.41 1268.45,-351.41 1268.45,-387.41"/>
<text xml:space="preserve" text-anchor="middle" x="1237.58" y="-363.61" font-family="Helvetica,Arial,sans-serif" font-size="14.00">Follows</text>
</g>
<!-- Avatar -->
<g id="node10" class="node">
<title>Avatar</title>
<polygon fill="none" stroke="black" points="1268.72,-641.79 1213.72,-641.79 1213.72,-605.79 1268.72,-605.79 1268.72,-641.79"/>
<text xml:space="preserve" text-anchor="middle" x="1241.22" y="-617.99" font-family="Helvetica,Arial,sans-serif" font-size="14.00">Avatar</text>
</g>
<!-- Admins -->
<g id="node11" class="node">
<title>Admins</title>
<polygon fill="none" stroke="black" points="1278.51,-580.48 1216.76,-580.48 1216.76,-544.48 1278.51,-544.48 1278.51,-580.48"/>
<text xml:space="preserve" text-anchor="middle" x="1247.64" y="-556.68" font-family="Helvetica,Arial,sans-serif" font-size="14.00">Admins</text>
</g>
<!-- Reports -->
<g id="node12" class="node">
<title>Reports</title>
<polygon fill="none" stroke="black" points="414.49,-671.15 350.49,-671.15 350.49,-635.15 414.49,-635.15 414.49,-671.15"/>
<text xml:space="preserve" text-anchor="middle" x="382.49" y="-647.35" font-family="Helvetica,Arial,sans-serif" font-size="14.00">Reports</text>
</g>
<!-- user_id -->
<g id="node13" class="node">
<title>user_id</title>
<ellipse fill="none" stroke="black" cx="988.25" cy="-480.71" rx="39.16" ry="18"/>
<text xml:space="preserve" text-anchor="middle" x="988.25" y="-474.91" font-family="Helvetica,Arial,sans-serif" font-size="14.00">user_id</text>
</g>
<!-- user_id&#45;&#45;Users -->
<g id="edge1" class="edge">
<title>user_id&#45;&#45;Users</title>
<path fill="none" stroke="black" d="M964.35,-495.04C952.68,-502.04 938.59,-510.49 926.49,-517.74"/>
</g>
<!-- username -->
<g id="node14" class="node">
<title>username</title>
<ellipse fill="none" stroke="black" cx="963.56" cy="-613.47" rx="39.16" ry="18"/>
<text xml:space="preserve" text-anchor="middle" x="963.56" y="-607.67" font-family="Helvetica,Arial,sans-serif" font-size="14.00">user_id</text>
</g>
<!-- username&#45;&#45;Users -->
<g id="edge2" class="edge">
<title>username&#45;&#45;Users</title>
<path fill="none" stroke="black" d="M949.56,-596.27C939.04,-583.34 924.64,-565.65 913.91,-552.47"/>
</g>
<!-- email -->
<g id="node15" class="node">
<title>email</title>
<ellipse fill="none" stroke="black" cx="843.7" cy="-608.45" rx="39.16" ry="18"/>
<text xml:space="preserve" text-anchor="middle" x="843.7" y="-602.65" font-family="Helvetica,Arial,sans-serif" font-size="14.00">user_id</text>
</g>
<!-- email&#45;&#45;Users -->
<g id="edge3" class="edge">
<title>email&#45;&#45;Users</title>
<path fill="none" stroke="black" d="M856.54,-591.23C865.16,-579.66 876.51,-564.43 885.31,-552.62"/>
</g>
<!-- password -->
<g id="node16" class="node">
<title>password</title>
<ellipse fill="none" stroke="black" cx="842.33" cy="-448.29" rx="39.16" ry="18"/>
<text xml:space="preserve" text-anchor="middle" x="842.33" y="-442.49" font-family="Helvetica,Arial,sans-serif" font-size="14.00">user_id</text>
</g>
<!-- password&#45;&#45;Users -->
<g id="edge4" class="edge">
<title>password&#45;&#45;Users</title>
<path fill="none" stroke="black" d="M853.81,-465.67C863.45,-480.28 877.2,-501.1 887,-515.95"/>
</g>
<!-- bg_url -->
<g id="node17" class="node">
<title>bg_url</title>
<ellipse fill="none" stroke="black" cx="950.55" cy="-413.62" rx="39.16" ry="18"/>
<text xml:space="preserve" text-anchor="middle" x="950.55" y="-407.82" font-family="Helvetica,Arial,sans-serif" font-size="14.00">user_id</text>
</g>
<!-- bg_url&#45;&#45;Users -->
<g id="edge5" class="edge">
<title>bg_url&#45;&#45;Users</title>
<path fill="none" stroke="black" d="M942.84,-431.67C933.13,-454.4 916.55,-493.23 906.81,-516.02"/>
</g>
<!-- created_at -->
<g id="node18" class="node">
<title>created_at</title>
<ellipse fill="none" stroke="black" cx="785.2" cy="-537.69" rx="39.16" ry="18"/>
<text xml:space="preserve" text-anchor="middle" x="785.2" y="-531.89" font-family="Helvetica,Arial,sans-serif" font-size="14.00">user_id</text>
</g>
<!-- created_at&#45;&#45;Users -->
<g id="edge6" class="edge">
<title>created_at&#45;&#45;Users</title>
<path fill="none" stroke="black" d="M824.7,-536.48C840.24,-536 857.7,-535.47 871.79,-535.03"/>
</g>
<!-- tweet_id -->
<g id="node19" class="node">
<title>tweet_id</title>
<ellipse fill="none" stroke="black" cx="677.77" cy="-999.93" rx="43.55" ry="18"/>
<text xml:space="preserve" text-anchor="middle" x="677.77" y="-994.13" font-family="Helvetica,Arial,sans-serif" font-size="14.00">tweet_id</text>
</g>
<!-- tweet_id&#45;&#45;Tweets -->
<g id="edge21" class="edge">
<title>tweet_id&#45;&#45;Tweets</title>
<path fill="none" stroke="black" d="M680.63,-981.49C684.71,-955.26 692.13,-907.46 696.18,-881.39"/>
</g>
<!-- parent_id -->
<g id="node20" class="node">
<title>parent_id</title>
<ellipse fill="none" stroke="black" cx="764.52" cy="-959.41" rx="43.55" ry="18"/>
<text xml:space="preserve" text-anchor="middle" x="764.52" y="-953.61" font-family="Helvetica,Arial,sans-serif" font-size="14.00">tweet_id</text>
</g>
<!-- parent_id&#45;&#45;Tweets -->
<g id="edge22" class="edge">
<title>parent_id&#45;&#45;Tweets</title>
<path fill="none" stroke="black" d="M752.5,-941.77C740.83,-924.64 723.18,-898.74 711.39,-881.43"/>
</g>
<!-- content -->
<g id="node21" class="node">
<title>content</title>
<ellipse fill="none" stroke="black" cx="613.56" cy="-940.39" rx="43.55" ry="18"/>
<text xml:space="preserve" text-anchor="middle" x="613.56" y="-934.59" font-family="Helvetica,Arial,sans-serif" font-size="14.00">tweet_id</text>
</g>
<!-- content&#45;&#45;Tweets -->
<g id="edge23" class="edge">
<title>content&#45;&#45;Tweets</title>
<path fill="none" stroke="black" d="M632.1,-923.65C645.84,-911.24 664.56,-894.34 678.71,-881.57"/>
</g>
<!-- tweet_created_at -->
<g id="node22" class="node">
<title>tweet_created_at</title>
<ellipse fill="none" stroke="black" cx="575.81" cy="-864.13" rx="43.55" ry="18"/>
<text xml:space="preserve" text-anchor="middle" x="575.81" y="-858.33" font-family="Helvetica,Arial,sans-serif" font-size="14.00">tweet_id</text>
</g>
<!-- tweet_created_at&#45;&#45;Tweets -->
<g id="edge24" class="edge">
<title>tweet_created_at&#45;&#45;Tweets</title>
<path fill="none" stroke="black" d="M619.59,-863.82C636.05,-863.7 654.36,-863.57 669.26,-863.46"/>
</g>
<!-- comment_id -->
<g id="node23" class="node">
<title>comment_id</title>
<ellipse fill="none" stroke="black" cx="410.2" cy="-268.59" rx="59.14" ry="18"/>
<text xml:space="preserve" text-anchor="middle" x="410.2" y="-262.79" font-family="Helvetica,Arial,sans-serif" font-size="14.00">comment_id</text>
</g>
<!-- comment_id&#45;&#45;Comments -->
<g id="edge33" class="edge">
<title>comment_id&#45;&#45;Comments</title>
<path fill="none" stroke="black" d="M441.52,-284.09C467.41,-296.91 504.24,-315.14 531.6,-328.68"/>
</g>
<!-- comment_content -->
<g id="node24" class="node">
<title>comment_content</title>
<ellipse fill="none" stroke="black" cx="422.81" cy="-337.86" rx="59.14" ry="18"/>
<text xml:space="preserve" text-anchor="middle" x="422.81" y="-332.06" font-family="Helvetica,Arial,sans-serif" font-size="14.00">comment_id</text>
</g>
<!-- comment_content&#45;&#45;Comments -->
<g id="edge34" class="edge">
<title>comment_content&#45;&#45;Comments</title>
<path fill="none" stroke="black" d="M480.89,-341.52C496.31,-342.49 512.65,-343.52 527,-344.42"/>
</g>
<!-- comment_parent_id -->
<g id="node25" class="node">
<title>comment_parent_id</title>
<ellipse fill="none" stroke="black" cx="457.46" cy="-210.33" rx="59.14" ry="18"/>
<text xml:space="preserve" text-anchor="middle" x="457.46" y="-204.53" font-family="Helvetica,Arial,sans-serif" font-size="14.00">comment_id</text>
</g>
<!-- comment_parent_id&#45;&#45;Comments -->
<g id="edge35" class="edge">
<title>comment_parent_id&#45;&#45;Comments</title>
<path fill="none" stroke="black" d="M472.01,-228.2C493.21,-254.26 532.4,-302.43 553.8,-328.73"/>
</g>
<!-- comment_created_at -->
<g id="node26" class="node">
<title>comment_created_at</title>
<ellipse fill="none" stroke="black" cx="522.3" cy="-187.33" rx="59.14" ry="18"/>
<text xml:space="preserve" text-anchor="middle" x="522.3" y="-181.53" font-family="Helvetica,Arial,sans-serif" font-size="14.00">comment_id</text>
</g>
<!-- comment_created_at&#45;&#45;Comments -->
<g id="edge36" class="edge">
<title>comment_created_at&#45;&#45;Comments</title>
<path fill="none" stroke="black" d="M527.62,-205.65C536.57,-236.46 554.53,-298.27 563.44,-328.94"/>
</g>
<!-- media_id -->
<g id="node27" class="node">
<title>media_id</title>
<ellipse fill="none" stroke="black" cx="999.47" cy="-1302.08" rx="46.47" ry="18"/>
<text xml:space="preserve" text-anchor="middle" x="999.47" y="-1296.28" font-family="Helvetica,Arial,sans-serif" font-size="14.00">media_id</text>
</g>
<!-- media_id&#45;&#45;Media -->
<g id="edge54" class="edge">
<title>media_id&#45;&#45;Media</title>
<path fill="none" stroke="black" d="M971.17,-1287.43C942.6,-1272.63 898.75,-1249.93 870.53,-1235.32"/>
</g>
<!-- media_url -->
<g id="node28" class="node">
<title>media_url</title>
<ellipse fill="none" stroke="black" cx="892.95" cy="-1369.15" rx="46.47" ry="18"/>
<text xml:space="preserve" text-anchor="middle" x="892.95" y="-1363.35" font-family="Helvetica,Arial,sans-serif" font-size="14.00">media_id</text>
</g>
<!-- media_url&#45;&#45;Media -->
<g id="edge55" class="edge">
<title>media_url&#45;&#45;Media</title>
<path fill="none" stroke="black" d="M886.85,-1351C877.31,-1322.61 858.95,-1267.97 849.38,-1239.48"/>
</g>
<!-- media_type -->
<g id="node29" class="node">
<title>media_type</title>
<ellipse fill="none" stroke="black" cx="757.71" cy="-1365.61" rx="46.47" ry="18"/>
<text xml:space="preserve" text-anchor="middle" x="757.71" y="-1359.81" font-family="Helvetica,Arial,sans-serif" font-size="14.00">media_id</text>
</g>
<!-- media_type&#45;&#45;Media -->
<g id="edge56" class="edge">
<title>media_type&#45;&#45;Media</title>
<path fill="none" stroke="black" d="M768.37,-1347.61C784.76,-1319.93 815.97,-1267.23 832.44,-1239.42"/>
</g>
<!-- like_id -->
<g id="node30" class="node">
<title>like_id</title>
<ellipse fill="none" stroke="black" cx="1177.4" cy="-901.57" rx="35.26" ry="18"/>
<text xml:space="preserve" text-anchor="middle" x="1177.4" y="-895.77" font-family="Helvetica,Arial,sans-serif" font-size="14.00">like_id</text>
</g>
<!-- like_id&#45;&#45;Likes -->
<g id="edge52" class="edge">
<title>like_id&#45;&#45;Likes</title>
<path fill="none" stroke="black" d="M1146.12,-892.65C1114.09,-883.51 1064.8,-869.46 1034.26,-860.75"/>
</g>
<!-- like_created_at -->
<g id="node31" class="node">
<title>like_created_at</title>
<ellipse fill="none" stroke="black" cx="1116.06" cy="-977.55" rx="35.26" ry="18"/>
<text xml:space="preserve" text-anchor="middle" x="1116.06" y="-971.75" font-family="Helvetica,Arial,sans-serif" font-size="14.00">like_id</text>
</g>
<!-- like_created_at&#45;&#45;Likes -->
<g id="edge53" class="edge">
<title>like_created_at&#45;&#45;Likes</title>
<path fill="none" stroke="black" d="M1101.33,-960.74C1080.83,-937.36 1043.85,-895.17 1022.74,-871.08"/>
</g>
<!-- message_id -->
<g id="node32" class="node">
<title>message_id</title>
<ellipse fill="none" stroke="black" cx="924.05" cy="-45.97" rx="58.17" ry="18"/>
<text xml:space="preserve" text-anchor="middle" x="924.05" y="-40.17" font-family="Helvetica,Arial,sans-serif" font-size="14.00">message_id</text>
</g>
<!-- message_id&#45;&#45;Messages -->
<g id="edge47" class="edge">
<title>message_id&#45;&#45;Messages</title>
<path fill="none" stroke="black" d="M909.43,-63.6C888.84,-88.41 851.51,-133.4 830.68,-158.51"/>
</g>
<!-- sender_id -->
<g id="node33" class="node">
<title>sender_id</title>
<ellipse fill="none" stroke="black" cx="767.36" cy="-18" rx="58.17" ry="18"/>
<text xml:space="preserve" text-anchor="middle" x="767.36" y="-12.2" font-family="Helvetica,Arial,sans-serif" font-size="14.00">message_id</text>
</g>
<!-- sender_id&#45;&#45;Messages -->
<g id="edge48" class="edge">
<title>sender_id&#45;&#45;Messages</title>
<path fill="none" stroke="black" d="M772.89,-36.2C782.15,-66.65 800.66,-127.58 809.97,-158.22"/>
</g>
<!-- receiver_id -->
<g id="node34" class="node">
<title>receiver_id</title>
<ellipse fill="none" stroke="black" cx="697.5" cy="-49.85" rx="58.17" ry="18"/>
<text xml:space="preserve" text-anchor="middle" x="697.5" y="-44.05" font-family="Helvetica,Arial,sans-serif" font-size="14.00">message_id</text>
</g>
<!-- receiver_id&#45;&#45;Messages -->
<g id="edge49" class="edge">
<title>receiver_id&#45;&#45;Messages</title>
<path fill="none" stroke="black" d="M713.92,-67.49C736.23,-91.45 775.92,-134.08 798.54,-158.39"/>
</g>
<!-- message_content -->
<g id="node35" class="node">
<title>message_content</title>
<ellipse fill="none" stroke="black" cx="972.17" cy="-101.31" rx="58.17" ry="18"/>
<text xml:space="preserve" text-anchor="middle" x="972.17" y="-95.51" font-family="Helvetica,Arial,sans-serif" font-size="14.00">message_id</text>
</g>
<!-- message_content&#45;&#45;Messages -->
<g id="edge50" class="edge">
<title>message_content&#45;&#45;Messages</title>
<path fill="none" stroke="black" d="M940.1,-116.74C915.14,-128.76 880.41,-145.49 853.97,-158.22"/>
</g>
<!-- message_created_at -->
<g id="node36" class="node">
<title>message_created_at</title>
<ellipse fill="none" stroke="black" cx="848.71" cy="-18.84" rx="58.17" ry="18"/>
<text xml:space="preserve" text-anchor="middle" x="848.71" y="-13.04" font-family="Helvetica,Arial,sans-serif" font-size="14.00">message_id</text>
</g>
<!-- message_created_at&#45;&#45;Messages -->
<g id="edge51" class="edge">
<title>message_created_at&#45;&#45;Messages</title>
<path fill="none" stroke="black" d="M844.84,-37.26C838.46,-67.68 825.79,-128.06 819.43,-158.4"/>
</g>
<!-- tag_id -->
<g id="node37" class="node">
<title>tag_id</title>
<ellipse fill="none" stroke="black" cx="34.28" cy="-1341.91" rx="34.28" ry="18"/>
<text xml:space="preserve" text-anchor="middle" x="34.28" y="-1336.11" font-family="Helvetica,Arial,sans-serif" font-size="14.00">tag_id</text>
</g>
<!-- tag_id&#45;&#45;TAGS -->
<g id="edge41" class="edge">
<title>tag_id&#45;&#45;TAGS</title>
<path fill="none" stroke="black" d="M68.39,-1339.5C98.49,-1337.37 141.79,-1334.31 169.66,-1332.33"/>
</g>
<!-- tag_name -->
<g id="node38" class="node">
<title>tag_name</title>
<ellipse fill="none" stroke="black" cx="185.31" cy="-1492.13" rx="34.28" ry="18"/>
<text xml:space="preserve" text-anchor="middle" x="185.31" y="-1486.33" font-family="Helvetica,Arial,sans-serif" font-size="14.00">tag_id</text>
</g>
<!-- tag_name&#45;&#45;TAGS -->
<g id="edge42" class="edge">
<title>tag_name&#45;&#45;TAGS</title>
<path fill="none" stroke="black" d="M186.63,-1473.89C188.87,-1442.83 193.4,-1380 195.65,-1348.82"/>
</g>
<!-- report_id -->
<g id="node39" class="node">
<title>report_id</title>
<ellipse fill="none" stroke="black" cx="213.04" cy="-661.66" rx="45.5" ry="18"/>
<text xml:space="preserve" text-anchor="middle" x="213.04" y="-655.86" font-family="Helvetica,Arial,sans-serif" font-size="14.00">report_id</text>
</g>
<!-- report_id&#45;&#45;Reports -->
<g id="edge57" class="edge">
<title>report_id&#45;&#45;Reports</title>
<path fill="none" stroke="black" d="M258.45,-659.38C287.37,-657.93 324.14,-656.08 350.11,-654.78"/>
</g>
<!-- report_content -->
<g id="node40" class="node">
<title>report_content</title>
<ellipse fill="none" stroke="black" cx="228.38" cy="-576.6" rx="45.5" ry="18"/>
<text xml:space="preserve" text-anchor="middle" x="228.38" y="-570.8" font-family="Helvetica,Arial,sans-serif" font-size="14.00">report_id</text>
</g>
<!-- report_content&#45;&#45;Reports -->
<g id="edge58" class="edge">
<title>report_content&#45;&#45;Reports</title>
<path fill="none" stroke="black" d="M257,-590.82C283.38,-603.92 322.48,-623.35 350.01,-637.02"/>
</g>
<!-- report_created_at -->
<g id="node41" class="node">
<title>report_created_at</title>
<ellipse fill="none" stroke="black" cx="245.24" cy="-744.22" rx="45.5" ry="18"/>
<text xml:space="preserve" text-anchor="middle" x="245.24" y="-738.42" font-family="Helvetica,Arial,sans-serif" font-size="14.00">report_id</text>
</g>
<!-- report_created_at&#45;&#45;Reports -->
<g id="edge59" class="edge">
<title>report_created_at&#45;&#45;Reports</title>
<path fill="none" stroke="black" d="M268.83,-728.56C292.75,-712.7 329.72,-688.16 354.95,-671.42"/>
</g>
<!-- follower_id -->
<g id="node42" class="node">
<title>follower_id</title>
<ellipse fill="none" stroke="black" cx="1339.7" cy="-244.38" rx="52.32" ry="18"/>
<text xml:space="preserve" text-anchor="middle" x="1339.7" y="-238.58" font-family="Helvetica,Arial,sans-serif" font-size="14.00">follower_id</text>
</g>
<!-- follower_id&#45;&#45;Follows -->
<g id="edge45" class="edge">
<title>follower_id&#45;&#45;Follows</title>
<path fill="none" stroke="black" d="M1325.28,-262.03C1306.04,-285.59 1272.12,-327.12 1252.58,-351.04"/>
</g>
<!-- following_id -->
<g id="node43" class="node">
<title>following_id</title>
<ellipse fill="none" stroke="black" cx="1408.94" cy="-397.94" rx="52.32" ry="18"/>
<text xml:space="preserve" text-anchor="middle" x="1408.94" y="-392.14" font-family="Helvetica,Arial,sans-serif" font-size="14.00">follower_id</text>
</g>
<!-- following_id&#45;&#45;Follows -->
<g id="edge46" class="edge">
<title>following_id&#45;&#45;Follows</title>
<path fill="none" stroke="black" d="M1361.66,-390.07C1332.04,-385.14 1294.7,-378.92 1268.76,-374.6"/>
</g>
<!-- U&#45;T&#45;&#45;Tweets -->
<g id="edge14" class="edge">
<title>U&#45;T&#45;&#45;Tweets</title>
<path fill="none" stroke="black" d="M775.37,-719.74C760.11,-748.42 725.76,-812.97 708.82,-844.8"/>
<text xml:space="preserve" text-anchor="middle" x="737.22" y="-783.97" font-family="Helvetica,Arial,sans-serif" font-size="14.00">N</text>
</g>
<!-- U&#45;C&#45;&#45;Comments -->
<g id="edge16" class="edge">
<title>U&#45;C&#45;&#45;Comments</title>
<path fill="none" stroke="black" d="M701.52,-439.91C676.22,-422.22 625.95,-387.07 595.03,-365.46"/>
<text xml:space="preserve" text-anchor="middle" x="643.4" y="-404.38" font-family="Helvetica,Arial,sans-serif" font-size="14.00">N</text>
</g>
<!-- U&#45;L&#45;&#45;Likes -->
<g id="edge18" class="edge">
<title>U&#45;L&#45;&#45;Likes</title>
<path fill="none" stroke="black" d="M983.07,-707.88C988.1,-738.6 998.66,-803.02 1003.83,-834.63"/>
<text xml:space="preserve" text-anchor="middle" x="988.58" y="-772.96" font-family="Helvetica,Arial,sans-serif" font-size="14.00">N</text>
</g>
<!-- U&#45;Msg&#45;&#45;Messages -->
<g id="edge20" class="edge">
<title>U&#45;Msg&#45;&#45;Messages</title>
<path fill="none" stroke="black" d="M868.51,-325.43C857.48,-294.42 833.67,-227.51 822.13,-195.07"/>
<text xml:space="preserve" text-anchor="middle" x="840.44" y="-261.95" font-family="Helvetica,Arial,sans-serif" font-size="14.00">N</text>
</g>
<!-- U&#45;F&#45;&#45;Follows -->
<g id="edge12" class="edge">
<title>U&#45;F&#45;&#45;Follows</title>
<path fill="none" stroke="black" d="M1089.01,-419.95C1118.69,-409.85 1172.35,-391.6 1206.41,-380.01"/>
<text xml:space="preserve" text-anchor="middle" x="1142.83" y="-401.68" font-family="Helvetica,Arial,sans-serif" font-size="14.00">N</text>
</g>
<!-- U&#45;Admin&#45;&#45;Admins -->
<g id="edge10" class="edge">
<title>U&#45;Admin&#45;&#45;Admins</title>
<path fill="none" stroke="black" d="M1105.52,-585.61C1139.07,-580.15 1185.77,-572.55 1216.34,-567.58"/>
<text xml:space="preserve" text-anchor="middle" x="1157.18" y="-563.29" font-family="Helvetica,Arial,sans-serif" font-size="14.00">1</text>
</g>
<!-- U&#45;Avatar&#45;&#45;Avatar -->
<g id="edge8" class="edge">
<title>U&#45;Avatar&#45;&#45;Avatar</title>
<path fill="none" stroke="black" d="M1095.16,-552.98C1126.29,-568.07 1180.48,-594.35 1213.38,-610.3"/>
<text xml:space="preserve" text-anchor="middle" x="1150.52" y="-583.34" font-family="Helvetica,Arial,sans-serif" font-size="14.00">1</text>
</g>
<!-- T&#45;M&#45;&#45;Media -->
<g id="edge26" class="edge">
<title>T&#45;M&#45;&#45;Media</title>
<path fill="none" stroke="black" d="M783.99,-1074.63C796.04,-1104.45 822.71,-1170.43 835.75,-1202.7"/>
<text xml:space="preserve" text-anchor="middle" x="805" y="-1140.37" font-family="Helvetica,Arial,sans-serif" font-size="14.00">N</text>
</g>
<!-- T&#45;L&#45;&#45;Likes -->
<g id="edge28" class="edge">
<title>T&#45;L&#45;&#45;Likes</title>
<path fill="none" stroke="black" d="M875.4,-914.68C901.26,-902.54 949.08,-880.07 979.35,-865.84"/>
<text xml:space="preserve" text-anchor="middle" x="922.5" y="-891.96" font-family="Helvetica,Arial,sans-serif" font-size="14.00">N</text>
</g>
<!-- T&#45;Tags&#45;&#45;TweetTags -->
<g id="edge30" class="edge">
<title>T&#45;Tags&#45;&#45;TweetTags</title>
<path fill="none" stroke="black" d="M530.75,-1004.69C510,-1026.21 469.7,-1068.02 446.53,-1092.05"/>
<text xml:space="preserve" text-anchor="middle" x="483.77" y="-1050.07" font-family="Helvetica,Arial,sans-serif" font-size="14.00">N</text>
</g>
<!-- T&#45;Reports&#45;&#45;Reports -->
<g id="edge32" class="edge">
<title>T&#45;Reports&#45;&#45;Reports</title>
<path fill="none" stroke="black" d="M506.21,-757.6C480.79,-736.14 432.31,-695.21 404.17,-671.46"/>
<text xml:space="preserve" text-anchor="middle" x="450.32" y="-716.23" font-family="Helvetica,Arial,sans-serif" font-size="14.00">N</text>
</g>
<!-- C&#45;Msg&#45;&#45;Messages -->
<g id="edge38" class="edge">
<title>C&#45;Msg&#45;&#45;Messages</title>
<path fill="none" stroke="black" d="M688.63,-193.99C714.86,-190.42 749.54,-185.69 776.02,-182.09"/>
<text xml:space="preserve" text-anchor="middle" x="727.45" y="-189.74" font-family="Helvetica,Arial,sans-serif" font-size="14.00">N</text>
</g>
<!-- C&#45;Reports&#45;&#45;Reports -->
<g id="edge40" class="edge">
<title>C&#45;Reports&#45;&#45;Reports</title>
<path fill="none" stroke="black" d="M446.35,-507.08C432.97,-537.67 404.41,-603.01 390.47,-634.89"/>
<text xml:space="preserve" text-anchor="middle" x="413.53" y="-572.69" font-family="Helvetica,Arial,sans-serif" font-size="14.00">N</text>
</g>
<!-- TweetTag&#45;Tag&#45;&#45;TAGS -->
<g id="edge44" class="edge">
<title>TweetTag&#45;Tag&#45;&#45;TAGS</title>
<path fill="none" stroke="black" d="M298.3,-1236.99C276.96,-1256.67 239.64,-1291.07 216.74,-1312.19"/>
<text xml:space="preserve" text-anchor="middle" x="253.77" y="-1276.29" font-family="Helvetica,Arial,sans-serif" font-size="14.00">1</text>
</g>
</g>
</svg>
