<?xml version="1.0" encoding="UTF-8" standalone="no"?>
<!DOCTYPE svg PUBLIC "-//W3C//DTD SVG 1.1//EN"
 "http://www.w3.org/Graphics/SVG/1.1/DTD/svg11.dtd">
<!-- Generated by graphviz version 13.1.2 (0)
 -->
<!-- Title: InteractionPrototype Pages: 1 -->
<svg width="1161pt" height="692pt"
 viewBox="0.00 0.00 1161.00 692.00" xmlns="http://www.w3.org/2000/svg" xmlns:xlink="http://www.w3.org/1999/xlink">
<g id="graph0" class="graph" transform="scale(1 1) rotate(0) translate(4 688)">
<title>InteractionPrototype</title>
<polygon fill="white" stroke="none" points="-4,4 -4,-688 1157.25,-688 1157.25,4 -4,4"/>
<g id="clust1" class="cluster">
<title>cluster_interaction_prototype</title>
<polygon fill="lightyellow" stroke="black" points="8,-8 8,-676 1145.25,-676 1145.25,-8 8,-8"/>
<text xml:space="preserve" text-anchor="middle" x="576.62" y="-658.7" font-family="Times,serif" font-size="14.00">校园论坛平台交互原型图</text>
</g>
<g id="clust2" class="cluster">
<title>cluster_main_pages</title>
<polygon fill="lightgreen" stroke="black" points="16,-28 16,-506 234.75,-506 234.75,-28 16,-28"/>
<text xml:space="preserve" text-anchor="middle" x="125.38" y="-488.7" font-family="Times,serif" font-size="14.00">主要页面</text>
</g>
<g id="clust3" class="cluster">
<title>cluster_components</title>
<polygon fill="lightpink" stroke="black" points="290.75,-246 290.75,-645 528.5,-645 528.5,-246 290.75,-246"/>
<text xml:space="preserve" text-anchor="middle" x="409.62" y="-627.7" font-family="Times,serif" font-size="14.00">功能组件</text>
</g>
<g id="clust4" class="cluster">
<title>cluster_interaction_states</title>
<polygon fill="lightcoral" stroke="black" points="693.5,-16 693.5,-415 774.25,-415 774.25,-16 693.5,-16"/>
<text xml:space="preserve" text-anchor="middle" x="733.88" y="-397.7" font-family="Times,serif" font-size="14.00">交互状态</text>
</g>
<g id="clust5" class="cluster">
<title>cluster_user_actions</title>
<polygon fill="lightsteelblue" stroke="black" points="574.5,-274 574.5,-619 647.5,-619 647.5,-274 574.5,-274"/>
<text xml:space="preserve" text-anchor="middle" x="611" y="-601.7" font-family="Times,serif" font-size="14.00">用户操作</text>
</g>
<g id="clust6" class="cluster">
<title>cluster_system_responses</title>
<polygon fill="lightseagreen" stroke="black" points="830.25,-275 830.25,-458 1137.25,-458 1137.25,-275 830.25,-275"/>
<text xml:space="preserve" text-anchor="middle" x="983.75" y="-440.7" font-family="Times,serif" font-size="14.00">系统响应</text>
</g>
<!-- home_page -->
<g id="node1" class="node">
<title>home_page</title>
<polygon fill="lightblue" stroke="black" points="78,-349 24,-349 24,-313 78,-313 78,-349"/>
<text xml:space="preserve" text-anchor="middle" x="51" y="-335" font-family="Arial" font-size="10.00">首页</text>
<text xml:space="preserve" text-anchor="middle" x="51" y="-320" font-family="Arial" font-size="10.00">(Home)</text>
</g>
<!-- login_page -->
<g id="node2" class="node">
<title>login_page</title>
<polygon fill="lightblue" stroke="black" points="215.38,-95 161.38,-95 161.38,-59 215.38,-59 215.38,-95"/>
<text xml:space="preserve" text-anchor="middle" x="188.38" y="-81" font-family="Arial" font-size="10.00">登录页</text>
<text xml:space="preserve" text-anchor="middle" x="188.38" y="-66" font-family="Arial" font-size="10.00">(Login)</text>
</g>
<!-- home_page&#45;&gt;login_page -->
<g id="edge1" class="edge">
<title>home_page&#45;&gt;login_page</title>
<path fill="none" stroke="black" d="M51.99,-312.73C52.38,-256.68 56.85,-88.9 96,-55.5 111.03,-42.68 132.31,-46.82 150.56,-54.73"/>
<polygon fill="black" stroke="black" points="148.99,-57.86 159.51,-59.07 152.04,-51.56 148.99,-57.86"/>
<text xml:space="preserve" text-anchor="middle" x="114" y="-60.45" font-family="Arial" font-size="9.00">点击登录</text>
</g>
<!-- register_page -->
<g id="node3" class="node">
<title>register_page</title>
<polygon fill="lightblue" stroke="black" points="217.75,-159 159,-159 159,-123 217.75,-123 217.75,-159"/>
<text xml:space="preserve" text-anchor="middle" x="188.38" y="-145" font-family="Arial" font-size="10.00">注册页</text>
<text xml:space="preserve" text-anchor="middle" x="188.38" y="-130" font-family="Arial" font-size="10.00">(Register)</text>
</g>
<!-- home_page&#45;&gt;register_page -->
<g id="edge2" class="edge">
<title>home_page&#45;&gt;register_page</title>
<path fill="none" stroke="black" d="M53.16,-312.6C56.45,-267.32 67.48,-152.46 96,-129.5 110.37,-117.93 130.35,-119.13 147.96,-123.93"/>
<polygon fill="black" stroke="black" points="146.8,-127.23 157.39,-126.95 148.93,-120.57 146.8,-127.23"/>
<text xml:space="preserve" text-anchor="middle" x="114" y="-134.45" font-family="Arial" font-size="9.00">点击注册</text>
</g>
<!-- profile_page -->
<g id="node4" class="node">
<title>profile_page</title>
<polygon fill="lightblue" stroke="black" points="220.75,-312 156,-312 156,-276 220.75,-276 220.75,-312"/>
<text xml:space="preserve" text-anchor="middle" x="188.38" y="-298" font-family="Arial" font-size="10.00">个人资料页</text>
<text xml:space="preserve" text-anchor="middle" x="188.38" y="-283" font-family="Arial" font-size="10.00">(Profile)</text>
</g>
<!-- home_page&#45;&gt;profile_page -->
<g id="edge3" class="edge">
<title>home_page&#45;&gt;profile_page</title>
<path fill="none" stroke="black" d="M61.38,-312.7C68.88,-300.24 80.67,-284.74 96,-277.5 111.16,-270.34 129.08,-271.72 145.02,-275.88"/>
<polygon fill="black" stroke="black" points="143.65,-279.12 154.23,-278.7 145.69,-272.43 143.65,-279.12"/>
<text xml:space="preserve" text-anchor="middle" x="114" y="-282.45" font-family="Arial" font-size="9.00">点击头像</text>
</g>
<!-- tweet_detail -->
<g id="node5" class="node">
<title>tweet_detail</title>
<polygon fill="lightblue" stroke="black" points="226.75,-391 150,-391 150,-355 226.75,-355 226.75,-391"/>
<text xml:space="preserve" text-anchor="middle" x="188.38" y="-377" font-family="Arial" font-size="10.00">帖子详情页</text>
<text xml:space="preserve" text-anchor="middle" x="188.38" y="-362" font-family="Arial" font-size="10.00">(Tweet Detail)</text>
</g>
<!-- home_page&#45;&gt;tweet_detail -->
<g id="edge4" class="edge">
<title>home_page&#45;&gt;tweet_detail</title>
<path fill="none" stroke="black" d="M78.16,-336.87C93.9,-340.61 114.25,-345.8 132,-351.5 134.35,-352.26 136.75,-353.06 139.17,-353.89"/>
<polygon fill="black" stroke="black" points="137.74,-357.1 148.34,-357.19 140.11,-350.51 137.74,-357.1"/>
<text xml:space="preserve" text-anchor="middle" x="114" y="-356.45" font-family="Arial" font-size="9.00">点击帖子</text>
</g>
<!-- search_page -->
<g id="node6" class="node">
<title>search_page</title>
<polygon fill="lightblue" stroke="black" points="215.38,-233 161.38,-233 161.38,-197 215.38,-197 215.38,-233"/>
<text xml:space="preserve" text-anchor="middle" x="188.38" y="-219" font-family="Arial" font-size="10.00">搜索页</text>
<text xml:space="preserve" text-anchor="middle" x="188.38" y="-204" font-family="Arial" font-size="10.00">(Search)</text>
</g>
<!-- home_page&#45;&gt;search_page -->
<g id="edge5" class="edge">
<title>home_page&#45;&gt;search_page</title>
<path fill="none" stroke="black" d="M52.14,-312.82C53.45,-284.03 60.72,-228.64 96,-203.5 111.45,-192.49 132.22,-194.16 150.05,-199.12"/>
<polygon fill="black" stroke="black" points="148.94,-202.44 159.53,-202.18 151.1,-195.78 148.94,-202.44"/>
<text xml:space="preserve" text-anchor="middle" x="114" y="-208.45" font-family="Arial" font-size="9.00">点击搜索</text>
</g>
<!-- messages_page -->
<g id="node7" class="node">
<title>messages_page</title>
<polygon fill="lightblue" stroke="black" points="221.88,-445 154.88,-445 154.88,-409 221.88,-409 221.88,-445"/>
<text xml:space="preserve" text-anchor="middle" x="188.38" y="-431" font-family="Arial" font-size="10.00">消息页</text>
<text xml:space="preserve" text-anchor="middle" x="188.38" y="-416" font-family="Arial" font-size="10.00">(Messages)</text>
</g>
<!-- home_page&#45;&gt;messages_page -->
<g id="edge6" class="edge">
<title>home_page&#45;&gt;messages_page</title>
<path fill="none" stroke="black" d="M62.03,-349.36C69.84,-362.21 81.74,-378.99 96,-390 110.09,-400.88 127.81,-409.02 143.89,-414.86"/>
<polygon fill="black" stroke="black" points="142.67,-418.14 153.26,-418.05 144.92,-411.51 142.67,-418.14"/>
<text xml:space="preserve" text-anchor="middle" x="114" y="-414.75" font-family="Arial" font-size="9.00">点击消息</text>
</g>
<!-- nav_bar -->
<g id="node9" class="node">
<title>nav_bar</title>
<polygon fill="lightcyan" stroke="black" points="368.75,-560 313.75,-560 313.75,-524 368.75,-524 368.75,-560"/>
<text xml:space="preserve" text-anchor="middle" x="341.25" y="-546" font-family="Arial" font-size="10.00">导航栏</text>
<text xml:space="preserve" text-anchor="middle" x="341.25" y="-531" font-family="Arial" font-size="10.00">(NavBar)</text>
</g>
<!-- home_page&#45;&gt;nav_bar -->
<g id="edge13" class="edge">
<title>home_page&#45;&gt;nav_bar</title>
<path fill="none" stroke="black" d="M59.49,-349.4C65.15,-363.81 72.8,-384.44 78,-403 88.88,-441.86 74.75,-457.69 96,-492 112.01,-517.85 121.45,-523.53 150,-534 200.07,-552.36 262.58,-550.76 301.97,-547.06"/>
<polygon fill="black" stroke="black" points="302.33,-550.54 311.91,-546.02 301.6,-543.58 302.33,-550.54"/>
<text xml:space="preserve" text-anchor="middle" x="188.38" y="-553.98" font-family="Arial" font-size="9.00">包含</text>
</g>
<!-- tweet_card -->
<g id="node10" class="node">
<title>tweet_card</title>
<polygon fill="lightcyan" stroke="black" points="375.88,-614 306.62,-614 306.62,-578 375.88,-578 375.88,-614"/>
<text xml:space="preserve" text-anchor="middle" x="341.25" y="-600" font-family="Arial" font-size="10.00">帖子卡片</text>
<text xml:space="preserve" text-anchor="middle" x="341.25" y="-585" font-family="Arial" font-size="10.00">(TweetCard)</text>
</g>
<!-- home_page&#45;&gt;tweet_card -->
<g id="edge14" class="edge">
<title>home_page&#45;&gt;tweet_card</title>
<path fill="none" stroke="black" d="M59.7,-349.35C65.47,-363.72 73.16,-384.35 78,-403 90.54,-451.38 73.02,-469.62 96,-514 111.46,-543.86 119.92,-551.96 150,-567 195.83,-589.92 255.03,-595.78 295.13,-596.8"/>
<polygon fill="black" stroke="black" points="294.85,-600.3 304.9,-596.95 294.95,-593.3 294.85,-600.3"/>
<text xml:space="preserve" text-anchor="middle" x="188.38" y="-596.47" font-family="Arial" font-size="9.00">显示</text>
</g>
<!-- media_editor -->
<g id="node12" class="node">
<title>media_editor</title>
<polygon fill="lightcyan" stroke="black" points="378.12,-506 304.38,-506 304.38,-470 378.12,-470 378.12,-506"/>
<text xml:space="preserve" text-anchor="middle" x="341.25" y="-492" font-family="Arial" font-size="10.00">媒体编辑器</text>
<text xml:space="preserve" text-anchor="middle" x="341.25" y="-477" font-family="Arial" font-size="10.00">(MediaEditor)</text>
</g>
<!-- home_page&#45;&gt;media_editor -->
<g id="edge42" class="edge">
<title>home_page&#45;&gt;media_editor</title>
<path fill="none" stroke="black" d="M59.19,-349.5C64.68,-363.95 72.26,-384.61 78,-403 87.32,-432.84 78.14,-445.34 96,-471 112.77,-495.08 122.02,-500.14 150,-509 197.14,-523.93 253.76,-514.4 292.91,-503.81"/>
<polygon fill="black" stroke="black" points="293.85,-507.18 302.52,-501.08 291.94,-500.45 293.85,-507.18"/>
<text xml:space="preserve" text-anchor="middle" x="188.38" y="-521.66" font-family="Arial" font-size="9.00">发布帖子</text>
</g>
<!-- user_tweet_list -->
<g id="node16" class="node">
<title>user_tweet_list</title>
<polygon fill="lightcyan" stroke="black" points="383.75,-452 298.75,-452 298.75,-416 383.75,-416 383.75,-452"/>
<text xml:space="preserve" text-anchor="middle" x="341.25" y="-438" font-family="Arial" font-size="10.00">用户帖子列表</text>
<text xml:space="preserve" text-anchor="middle" x="341.25" y="-423" font-family="Arial" font-size="10.00">(UserTweetList)</text>
</g>
<!-- home_page&#45;&gt;user_tweet_list -->
<g id="edge15" class="edge">
<title>home_page&#45;&gt;user_tweet_list</title>
<path fill="none" stroke="black" d="M58.66,-349.33C63.94,-363.88 71.48,-384.73 78,-403 86.08,-425.64 77.2,-439.02 96,-454 160.5,-505.38 204.57,-502.56 280.75,-471 286.56,-468.59 285.72,-464.77 290.75,-461 291.87,-460.16 293.03,-459.33 294.2,-458.51"/>
<polygon fill="black" stroke="black" points="295.79,-461.65 302.28,-453.28 291.98,-455.77 295.79,-461.65"/>
<text xml:space="preserve" text-anchor="middle" x="188.38" y="-498.78" font-family="Arial" font-size="9.00">显示</text>
</g>
<!-- login_page&#45;&gt;home_page -->
<g id="edge7" class="edge">
<title>login_page&#45;&gt;home_page</title>
<path fill="none" stroke="black" d="M161.13,-77.21C140.48,-78.85 112.52,-84.57 96,-102.5 69.6,-131.16 58,-246.38 53.89,-301.43"/>
<polygon fill="black" stroke="black" points="50.4,-301.09 53.19,-311.31 57.39,-301.59 50.4,-301.09"/>
<text xml:space="preserve" text-anchor="middle" x="114" y="-107.45" font-family="Arial" font-size="9.00">登录成功</text>
</g>
<!-- register_page&#45;&gt;home_page -->
<g id="edge8" class="edge">
<title>register_page&#45;&gt;home_page</title>
<path fill="none" stroke="black" d="M158.83,-145.56C138.6,-150.24 112.27,-159.5 96,-177.5 64.71,-212.12 55.54,-267.58 52.94,-301.5"/>
<polygon fill="black" stroke="black" points="49.45,-301.24 52.34,-311.44 56.43,-301.67 49.45,-301.24"/>
<text xml:space="preserve" text-anchor="middle" x="114" y="-182.45" font-family="Arial" font-size="9.00">注册成功</text>
</g>
<!-- profile_page&#45;&gt;home_page -->
<g id="edge9" class="edge">
<title>profile_page&#45;&gt;home_page</title>
<path fill="none" stroke="black" d="M155.8,-299.96C138.07,-303.59 115.63,-308.65 96,-314.5 93.74,-315.17 91.43,-315.91 89.11,-316.67"/>
<polygon fill="black" stroke="black" points="88.03,-313.34 79.75,-319.95 90.35,-319.95 88.03,-313.34"/>
<text xml:space="preserve" text-anchor="middle" x="114" y="-319.45" font-family="Arial" font-size="9.00">返回首页</text>
</g>
<!-- avatar_editor -->
<g id="node14" class="node">
<title>avatar_editor</title>
<polygon fill="lightcyan" stroke="black" points="379.25,-344 303.25,-344 303.25,-308 379.25,-308 379.25,-344"/>
<text xml:space="preserve" text-anchor="middle" x="341.25" y="-330" font-family="Arial" font-size="10.00">头像编辑器</text>
<text xml:space="preserve" text-anchor="middle" x="341.25" y="-315" font-family="Arial" font-size="10.00">(AvatarEditor)</text>
</g>
<!-- profile_page&#45;&gt;avatar_editor -->
<g id="edge18" class="edge">
<title>profile_page&#45;&gt;avatar_editor</title>
<path fill="none" stroke="black" d="M221,-300.71C241.5,-305.06 268.6,-310.8 291.78,-315.72"/>
<polygon fill="black" stroke="black" points="290.81,-319.09 301.32,-317.74 292.26,-312.24 290.81,-319.09"/>
<text xml:space="preserve" text-anchor="middle" x="262.75" y="-317.82" font-family="Arial" font-size="9.00">编辑头像</text>
</g>
<!-- follow_list -->
<g id="node15" class="node">
<title>follow_list</title>
<polygon fill="lightcyan" stroke="black" points="374.38,-290 308.12,-290 308.12,-254 374.38,-254 374.38,-290"/>
<text xml:space="preserve" text-anchor="middle" x="341.25" y="-276" font-family="Arial" font-size="10.00">关注列表</text>
<text xml:space="preserve" text-anchor="middle" x="341.25" y="-261" font-family="Arial" font-size="10.00">(FollowList)</text>
</g>
<!-- profile_page&#45;&gt;follow_list -->
<g id="edge19" class="edge">
<title>profile_page&#45;&gt;follow_list</title>
<path fill="none" stroke="black" d="M202.28,-275.59C212.25,-263.08 227.27,-247.56 244.75,-240.5 264.19,-232.64 286.41,-239.09 304.52,-248.15"/>
<polygon fill="black" stroke="black" points="302.6,-251.09 313.06,-252.81 305.96,-244.95 302.6,-251.09"/>
<text xml:space="preserve" text-anchor="middle" x="262.75" y="-245.45" font-family="Arial" font-size="9.00">显示关注</text>
</g>
<!-- profile_page&#45;&gt;follow_list -->
<g id="edge48" class="edge">
<title>profile_page&#45;&gt;follow_list</title>
<path fill="none" stroke="black" d="M220.99,-283.21C228.68,-280.96 236.94,-278.87 244.75,-277.5 261.47,-274.57 280.06,-273.1 296.36,-272.4"/>
<polygon fill="black" stroke="black" points="296.38,-275.9 306.25,-272.06 296.14,-268.9 296.38,-275.9"/>
<text xml:space="preserve" text-anchor="middle" x="262.75" y="-282.45" font-family="Arial" font-size="9.00">查看关注</text>
</g>
<!-- profile_page&#45;&gt;user_tweet_list -->
<g id="edge20" class="edge">
<title>profile_page&#45;&gt;user_tweet_list</title>
<path fill="none" stroke="black" d="M220.24,-312.33C243.57,-326.8 272.88,-346.48 280.75,-358.5 292.81,-376.91 277.65,-389.31 290.75,-407 290.98,-407.31 291.21,-407.62 291.45,-407.92"/>
<polygon fill="black" stroke="black" points="288.81,-410.23 298.37,-414.8 293.75,-405.27 288.81,-410.23"/>
<text xml:space="preserve" text-anchor="middle" x="262.75" y="-363.45" font-family="Arial" font-size="9.00">显示帖子</text>
</g>
<!-- tweet_detail&#45;&gt;home_page -->
<g id="edge10" class="edge">
<title>tweet_detail&#45;&gt;home_page</title>
<path fill="none" stroke="black" d="M149.83,-374.45C132.88,-373.92 112.91,-371.61 96,-365 90.27,-362.76 84.66,-359.53 79.48,-355.93"/>
<polygon fill="black" stroke="black" points="81.93,-353.41 71.86,-350.13 77.69,-358.98 81.93,-353.41"/>
<text xml:space="preserve" text-anchor="middle" x="114" y="-377.94" font-family="Arial" font-size="9.00">返回首页</text>
</g>
<!-- comment_area -->
<g id="node11" class="node">
<title>comment_area</title>
<polygon fill="lightcyan" stroke="black" points="383.75,-398 298.75,-398 298.75,-362 383.75,-362 383.75,-398"/>
<text xml:space="preserve" text-anchor="middle" x="341.25" y="-384" font-family="Arial" font-size="10.00">评论区域</text>
<text xml:space="preserve" text-anchor="middle" x="341.25" y="-369" font-family="Arial" font-size="10.00">(CommentArea)</text>
</g>
<!-- tweet_detail&#45;&gt;comment_area -->
<g id="edge16" class="edge">
<title>tweet_detail&#45;&gt;comment_area</title>
<path fill="none" stroke="black" d="M218.21,-391.43C226.46,-395.77 235.69,-399.77 244.75,-402 258.57,-405.4 273.55,-404.23 287.46,-401.11"/>
<polygon fill="black" stroke="black" points="288.11,-404.56 296.88,-398.63 286.32,-397.79 288.11,-404.56"/>
<text xml:space="preserve" text-anchor="middle" x="262.75" y="-409.01" font-family="Arial" font-size="9.00">包含</text>
</g>
<!-- tweet_detail&#45;&gt;comment_area -->
<g id="edge45" class="edge">
<title>tweet_detail&#45;&gt;comment_area</title>
<path fill="none" stroke="black" d="M227.06,-374.75C245.15,-375.59 267.15,-376.61 286.93,-377.53"/>
<polygon fill="black" stroke="black" points="286.6,-381.01 296.75,-377.98 286.93,-374.02 286.6,-381.01"/>
<text xml:space="preserve" text-anchor="middle" x="262.75" y="-382.08" font-family="Arial" font-size="9.00">查看评论</text>
</g>
<!-- tweet_detail&#45;&gt;media_editor -->
<g id="edge17" class="edge">
<title>tweet_detail&#45;&gt;media_editor</title>
<path fill="none" stroke="black" d="M225.2,-391.36C228.67,-393.97 231.94,-396.86 234.75,-400 241.92,-408 238.27,-413.43 244.75,-422 260.91,-443.38 268.65,-445.84 290.75,-461 292.09,-461.92 293.46,-462.83 294.85,-463.73"/>
<polygon fill="black" stroke="black" points="292.66,-466.49 303.02,-468.74 296.32,-460.53 292.66,-466.49"/>
<text xml:space="preserve" text-anchor="middle" x="262.75" y="-458.81" font-family="Arial" font-size="9.00">编辑时</text>
</g>
<!-- search_page&#45;&gt;home_page -->
<g id="edge11" class="edge">
<title>search_page&#45;&gt;home_page</title>
<path fill="none" stroke="black" d="M161.28,-221.43C141.53,-227.36 114.7,-237.82 96,-254.5 81.42,-267.51 70.44,-286.55 63.1,-302.38"/>
<polygon fill="black" stroke="black" points="59.99,-300.76 59.2,-311.32 66.41,-303.55 59.99,-300.76"/>
<text xml:space="preserve" text-anchor="middle" x="114" y="-259.45" font-family="Arial" font-size="9.00">返回首页</text>
</g>
<!-- input_action -->
<g id="node26" class="node">
<title>input_action</title>
<polygon fill="lightcyan" stroke="black" points="638,-480 583,-480 583,-444 638,-444 638,-480"/>
<text xml:space="preserve" text-anchor="middle" x="610.5" y="-460" font-family="Arial" font-size="10.00">输入操作</text>
</g>
<!-- search_page&#45;&gt;input_action -->
<g id="edge51" class="edge">
<title>search_page&#45;&gt;input_action</title>
<path fill="none" stroke="black" d="M215.8,-215.27C291.58,-216.29 505.62,-221.02 528.5,-242 593.48,-301.61 526.63,-360.94 574.5,-435 574.71,-435.33 574.93,-435.65 575.15,-435.97"/>
<polygon fill="black" stroke="black" points="572.49,-438.25 581.72,-443.46 577.75,-433.64 572.49,-438.25"/>
<text xml:space="preserve" text-anchor="middle" x="419.75" y="-229.26" font-family="Arial" font-size="9.00">输入搜索</text>
</g>
<!-- messages_page&#45;&gt;home_page -->
<g id="edge12" class="edge">
<title>messages_page&#45;&gt;home_page</title>
<path fill="none" stroke="black" d="M154.5,-435.22C135.93,-437.97 113.09,-437.97 96,-427 83.97,-419.28 70.27,-385.35 61.4,-360"/>
<polygon fill="black" stroke="black" points="64.82,-359.2 58.29,-350.86 58.2,-361.45 64.82,-359.2"/>
<text xml:space="preserve" text-anchor="middle" x="114" y="-441.62" font-family="Arial" font-size="9.00">返回首页</text>
</g>
<!-- admin_page -->
<g id="node8" class="node">
<title>admin_page</title>
<polygon fill="lightblue" stroke="black" points="78,-448 24,-448 24,-412 78,-412 78,-448"/>
<text xml:space="preserve" text-anchor="middle" x="51" y="-434" font-family="Arial" font-size="10.00">管理页</text>
<text xml:space="preserve" text-anchor="middle" x="51" y="-419" font-family="Arial" font-size="10.00">(Admin)</text>
</g>
<!-- click_action -->
<g id="node24" class="node">
<title>click_action</title>
<polygon fill="lightcyan" stroke="black" points="638,-426 583,-426 583,-390 638,-390 638,-426"/>
<text xml:space="preserve" text-anchor="middle" x="610.5" y="-406" font-family="Arial" font-size="10.00">点击操作</text>
</g>
<!-- nav_bar&#45;&gt;click_action -->
<g id="edge21" class="edge">
<title>nav_bar&#45;&gt;click_action</title>
<path fill="none" stroke="black" d="M369.23,-529.69C374.95,-525.81 380.3,-520.95 383.75,-515 401.07,-485.16 376.66,-228.68 401.75,-205 434.09,-174.48 495.9,-163.76 556.5,-230 602.12,-279.87 541.14,-322.22 574.5,-381 574.77,-381.47 575.04,-381.93 575.33,-382.39"/>
<polygon fill="black" stroke="black" points="572.6,-384.58 581.7,-389.99 577.97,-380.08 572.6,-384.58"/>
<text xml:space="preserve" text-anchor="middle" x="488.12" y="-209.41" font-family="Arial" font-size="9.00">触发</text>
</g>
<!-- tweet_card&#45;&gt;click_action -->
<g id="edge22" class="edge">
<title>tweet_card&#45;&gt;click_action</title>
<path fill="none" stroke="black" d="M376.09,-577.53C378.98,-574.96 381.61,-572.12 383.75,-569 405.6,-537.16 380.18,-516.03 401.75,-484 439.2,-428.37 522.21,-413.27 571.21,-409.29"/>
<polygon fill="black" stroke="black" points="571.34,-412.79 581.08,-408.62 570.86,-405.81 571.34,-412.79"/>
<text xml:space="preserve" text-anchor="middle" x="488.12" y="-443.4" font-family="Arial" font-size="9.00">触发</text>
</g>
<!-- comment_area&#45;&gt;input_action -->
<g id="edge23" class="edge">
<title>comment_area&#45;&gt;input_action</title>
<path fill="none" stroke="black" d="M376.18,-398.4C379.06,-400.99 381.66,-403.85 383.75,-407 408.52,-444.24 369.9,-474.61 401.75,-506 441.98,-545.64 474.38,-531.13 528.5,-515 538.56,-512 558.07,-499.32 575.43,-487.11"/>
<polygon fill="black" stroke="black" points="577.44,-489.98 583.55,-481.32 573.37,-484.28 577.44,-489.98"/>
<text xml:space="preserve" text-anchor="middle" x="488.12" y="-536.41" font-family="Arial" font-size="9.00">触发</text>
</g>
<!-- comment_area&#45;&gt;input_action -->
<g id="edge46" class="edge">
<title>comment_area&#45;&gt;input_action</title>
<path fill="none" stroke="black" d="M384.1,-378.33C422.89,-378.22 481.51,-381.76 528.5,-400.5 529.96,-401.08 554.94,-420.11 576.77,-436.84"/>
<polygon fill="black" stroke="black" points="574.59,-439.58 584.66,-442.89 578.85,-434.03 574.59,-439.58"/>
<text xml:space="preserve" text-anchor="middle" x="488.12" y="-405.45" font-family="Arial" font-size="9.00">发表评论</text>
</g>
<!-- tag_editor -->
<g id="node13" class="node">
<title>tag_editor</title>
<polygon fill="lightcyan" stroke="black" points="520.5,-506 455.75,-506 455.75,-470 520.5,-470 520.5,-506"/>
<text xml:space="preserve" text-anchor="middle" x="488.12" y="-492" font-family="Arial" font-size="10.00">标签编辑器</text>
<text xml:space="preserve" text-anchor="middle" x="488.12" y="-477" font-family="Arial" font-size="10.00">(TagEditor)</text>
</g>
<!-- media_editor&#45;&gt;tag_editor -->
<g id="edge43" class="edge">
<title>media_editor&#45;&gt;tag_editor</title>
<path fill="none" stroke="black" d="M378.43,-488C398.28,-488 423.03,-488 443.89,-488"/>
<polygon fill="black" stroke="black" points="443.83,-491.5 453.83,-488 443.82,-484.5 443.83,-491.5"/>
<text xml:space="preserve" text-anchor="middle" x="419.75" y="-492.95" font-family="Arial" font-size="9.00">添加标签</text>
</g>
<!-- drag_drop -->
<g id="node27" class="node">
<title>drag_drop</title>
<polygon fill="lightcyan" stroke="black" points="638,-372 583,-372 583,-336 638,-336 638,-372"/>
<text xml:space="preserve" text-anchor="middle" x="610.5" y="-352" font-family="Arial" font-size="10.00">拖拽操作</text>
</g>
<!-- media_editor&#45;&gt;drag_drop -->
<g id="edge24" class="edge">
<title>media_editor&#45;&gt;drag_drop</title>
<path fill="none" stroke="black" d="M376.57,-469.84C379.36,-467.21 381.84,-464.26 383.75,-461 415.22,-407.17 363.48,-230.23 401.75,-181 436.65,-136.1 478.99,-135.52 528.5,-163.5 594.22,-200.64 536.13,-261.99 574.5,-327 574.77,-327.46 575.06,-327.92 575.35,-328.37"/>
<polygon fill="black" stroke="black" points="572.65,-330.6 581.81,-335.94 577.98,-326.06 572.65,-330.6"/>
<text xml:space="preserve" text-anchor="middle" x="488.12" y="-168.45" font-family="Arial" font-size="9.00">触发</text>
</g>
<!-- tag_editor&#45;&gt;input_action -->
<g id="edge25" class="edge">
<title>tag_editor&#45;&gt;input_action</title>
<path fill="none" stroke="black" d="M520.75,-481.17C536.37,-477.79 555.34,-473.7 571.72,-470.16"/>
<polygon fill="black" stroke="black" points="572.05,-473.67 581.09,-468.14 570.58,-466.83 572.05,-473.67"/>
<text xml:space="preserve" text-anchor="middle" x="547.5" y="-482.28" font-family="Arial" font-size="9.00">触发</text>
</g>
<!-- api_call -->
<g id="node30" class="node">
<title>api_call</title>
<polygon fill="lightcyan" stroke="black" points="892.75,-427 838.75,-427 838.75,-391 892.75,-391 892.75,-427"/>
<text xml:space="preserve" text-anchor="middle" x="865.75" y="-407" font-family="Arial" font-size="10.00">API调用</text>
</g>
<!-- tag_editor&#45;&gt;api_call -->
<g id="edge44" class="edge">
<title>tag_editor&#45;&gt;api_call</title>
<path fill="none" stroke="black" d="M520.71,-503.79C523.55,-505.97 526.21,-508.37 528.5,-511 563.82,-551.6 529.8,-593.04 574.5,-623 601.45,-641.07 616.15,-631.35 647.5,-623 733.01,-600.23 762.58,-591.12 820.25,-524 841.45,-499.33 853.16,-463.43 859.18,-438.33"/>
<polygon fill="black" stroke="black" points="862.55,-439.3 861.29,-428.78 855.71,-437.78 862.55,-439.3"/>
<text xml:space="preserve" text-anchor="middle" x="674.5" y="-622.91" font-family="Arial" font-size="9.00">提交</text>
</g>
<!-- avatar_editor&#45;&gt;click_action -->
<g id="edge26" class="edge">
<title>avatar_editor&#45;&gt;click_action</title>
<path fill="none" stroke="black" d="M376.39,-307.73C379.22,-305.12 381.75,-302.21 383.75,-299 419.65,-241.22 364.06,-203.63 401.75,-147 433.85,-98.77 481.28,-82.93 528.5,-116.5 559.37,-138.45 548.38,-160 556.5,-197 565.31,-237.13 554.6,-345.06 574.5,-381 574.76,-381.47 575.03,-381.93 575.32,-382.39"/>
<polygon fill="black" stroke="black" points="572.56,-384.56 581.64,-390.03 577.96,-380.09 572.56,-384.56"/>
<text xml:space="preserve" text-anchor="middle" x="488.12" y="-121.45" font-family="Arial" font-size="9.00">触发</text>
</g>
<!-- follow_list&#45;&gt;click_action -->
<g id="edge49" class="edge">
<title>follow_list&#45;&gt;click_action</title>
<path fill="none" stroke="black" d="M344.28,-253.55C348.83,-220.33 362.73,-149.92 401.75,-107 440.4,-64.48 477.45,-55.11 528.5,-81.5 547.62,-91.38 549.27,-100.73 556.5,-121 575.97,-175.54 547.17,-329.94 574.5,-381 574.75,-381.47 575.02,-381.94 575.3,-382.4"/>
<polygon fill="black" stroke="black" points="572.52,-384.53 581.55,-390.08 577.94,-380.11 572.52,-384.53"/>
<text xml:space="preserve" text-anchor="middle" x="488.12" y="-86.45" font-family="Arial" font-size="9.00">关注/取消</text>
</g>
<!-- logged_out -->
<g id="node17" class="node">
<title>logged_out</title>
<polygon fill="#eedd82" stroke="black" points="766.25,-276 701.5,-276 701.5,-240 766.25,-240 766.25,-276"/>
<text xml:space="preserve" text-anchor="middle" x="733.88" y="-256" font-family="Arial" font-size="10.00">未登录状态</text>
</g>
<!-- redirect -->
<g id="node34" class="node">
<title>redirect</title>
<polygon fill="lightcyan" stroke="black" points="893.25,-319 838.25,-319 838.25,-283 893.25,-283 893.25,-319"/>
<text xml:space="preserve" text-anchor="middle" x="865.75" y="-299" font-family="Arial" font-size="10.00">页面跳转</text>
</g>
<!-- logged_out&#45;&gt;redirect -->
<g id="edge31" class="edge">
<title>logged_out&#45;&gt;redirect</title>
<path fill="none" stroke="black" d="M766.7,-266.81C782.85,-271.46 802.7,-277.44 820.25,-283.5 822.61,-284.31 825.03,-285.18 827.46,-286.07"/>
<polygon fill="black" stroke="black" points="826.05,-289.28 836.64,-289.55 828.53,-282.73 826.05,-289.28"/>
<text xml:space="preserve" text-anchor="middle" x="802.25" y="-288.45" font-family="Arial" font-size="9.00">跳转登录</text>
</g>
<!-- logged_in -->
<g id="node18" class="node">
<title>logged_in</title>
<polygon fill="lightgreen" stroke="black" points="766.25,-114 701.5,-114 701.5,-78 766.25,-78 766.25,-114"/>
<text xml:space="preserve" text-anchor="middle" x="733.88" y="-94" font-family="Arial" font-size="10.00">已登录状态</text>
</g>
<!-- ui_refresh -->
<g id="node32" class="node">
<title>ui_refresh</title>
<polygon fill="lightcyan" stroke="black" points="1129.25,-319 1074.25,-319 1074.25,-283 1129.25,-283 1129.25,-319"/>
<text xml:space="preserve" text-anchor="middle" x="1101.75" y="-299" font-family="Arial" font-size="10.00">界面刷新</text>
</g>
<!-- logged_in&#45;&gt;ui_refresh -->
<g id="edge32" class="edge">
<title>logged_in&#45;&gt;ui_refresh</title>
<path fill="none" stroke="black" d="M766.59,-110.19C820.23,-134.65 931.68,-187.37 1020.25,-242 1036.82,-252.22 1054.36,-264.84 1068.82,-275.78"/>
<polygon fill="black" stroke="black" points="1066.57,-278.46 1076.63,-281.76 1070.82,-272.91 1066.57,-278.46"/>
<text xml:space="preserve" text-anchor="middle" x="929.25" y="-204.68" font-family="Arial" font-size="9.00">刷新界面</text>
</g>
<!-- admin_mode -->
<g id="node19" class="node">
<title>admin_mode</title>
<polygon fill="lightcoral" stroke="black" points="766.25,-330 701.5,-330 701.5,-294 766.25,-294 766.25,-330"/>
<text xml:space="preserve" text-anchor="middle" x="733.88" y="-310" font-family="Arial" font-size="10.00">管理员模式</text>
</g>
<!-- modal_show -->
<g id="node35" class="node">
<title>modal_show</title>
<polygon fill="lightcyan" stroke="black" points="893.25,-373 838.25,-373 838.25,-337 893.25,-337 893.25,-373"/>
<text xml:space="preserve" text-anchor="middle" x="865.75" y="-353" font-family="Arial" font-size="10.00">弹窗显示</text>
</g>
<!-- admin_mode&#45;&gt;modal_show -->
<g id="edge33" class="edge">
<title>admin_mode&#45;&gt;modal_show</title>
<path fill="none" stroke="black" d="M766.65,-322.52C784.98,-328.59 808.13,-336.25 827.33,-342.61"/>
<polygon fill="black" stroke="black" points="826.09,-345.89 836.69,-345.71 828.29,-339.24 826.09,-345.89"/>
<text xml:space="preserve" text-anchor="middle" x="802.25" y="-344.81" font-family="Arial" font-size="9.00">显示管理</text>
</g>
<!-- editing -->
<g id="node20" class="node">
<title>editing</title>
<polygon fill="lightsteelblue" stroke="black" points="761.38,-168 706.38,-168 706.38,-132 761.38,-132 761.38,-168"/>
<text xml:space="preserve" text-anchor="middle" x="733.88" y="-148" font-family="Arial" font-size="10.00">编辑状态</text>
</g>
<!-- editing&#45;&gt;ui_refresh -->
<g id="edge34" class="edge">
<title>editing&#45;&gt;ui_refresh</title>
<path fill="none" stroke="black" d="M761.78,-161.1C826.27,-187.72 989.78,-255.2 1063.59,-285.66"/>
<polygon fill="black" stroke="black" points="1061.83,-288.72 1072.41,-289.3 1064.5,-282.25 1061.83,-288.72"/>
<text xml:space="preserve" text-anchor="middle" x="929.25" y="-242.6" font-family="Arial" font-size="9.00">更新界面</text>
</g>
<!-- uploading -->
<g id="node21" class="node">
<title>uploading</title>
<polygon fill="lightseagreen" stroke="black" points="761.38,-222 706.38,-222 706.38,-186 761.38,-186 761.38,-222"/>
<text xml:space="preserve" text-anchor="middle" x="733.88" y="-202" font-family="Arial" font-size="10.00">上传状态</text>
</g>
<!-- notification -->
<g id="node33" class="node">
<title>notification</title>
<polygon fill="lightcyan" stroke="black" points="1020.25,-319 965.25,-319 965.25,-283 1020.25,-283 1020.25,-319"/>
<text xml:space="preserve" text-anchor="middle" x="992.75" y="-299" font-family="Arial" font-size="10.00">通知提示</text>
</g>
<!-- uploading&#45;&gt;notification -->
<g id="edge35" class="edge">
<title>uploading&#45;&gt;notification</title>
<path fill="none" stroke="black" d="M761.64,-213.11C793.24,-223.98 847.32,-242.88 893.25,-260.5 913.65,-268.33 936.2,-277.55 954.57,-285.22"/>
<polygon fill="black" stroke="black" points="953.16,-288.43 963.74,-289.07 955.87,-281.97 953.16,-288.43"/>
<text xml:space="preserve" text-anchor="middle" x="865.75" y="-265.45" font-family="Arial" font-size="9.00">显示进度</text>
</g>
<!-- loading -->
<g id="node22" class="node">
<title>loading</title>
<polygon fill="lightyellow" stroke="black" points="761.38,-60 706.38,-60 706.38,-24 761.38,-24 761.38,-60"/>
<text xml:space="preserve" text-anchor="middle" x="733.88" y="-40" font-family="Arial" font-size="10.00">加载状态</text>
</g>
<!-- loading&#45;&gt;ui_refresh -->
<g id="edge36" class="edge">
<title>loading&#45;&gt;ui_refresh</title>
<path fill="none" stroke="black" d="M761.57,-53.65C814.44,-77.51 934.75,-135.73 1020.25,-207 1043.79,-226.63 1066.1,-253.57 1081.23,-273.58"/>
<polygon fill="black" stroke="black" points="1078.38,-275.62 1087.15,-281.57 1084.01,-271.45 1078.38,-275.62"/>
<text xml:space="preserve" text-anchor="middle" x="929.25" y="-156.86" font-family="Arial" font-size="9.00">加载完成</text>
</g>
<!-- error -->
<g id="node23" class="node">
<title>error</title>
<polygon fill="lightcoral" stroke="black" points="761.38,-384 706.38,-384 706.38,-348 761.38,-348 761.38,-384"/>
<text xml:space="preserve" text-anchor="middle" x="733.88" y="-364" font-family="Arial" font-size="10.00">错误状态</text>
</g>
<!-- error&#45;&gt;modal_show -->
<g id="edge37" class="edge">
<title>error&#45;&gt;modal_show</title>
<path fill="none" stroke="black" d="M761.79,-363.72C780.51,-362.14 805.73,-360 826.53,-358.24"/>
<polygon fill="black" stroke="black" points="826.7,-361.74 836.37,-357.4 826.11,-354.76 826.7,-361.74"/>
<text xml:space="preserve" text-anchor="middle" x="802.25" y="-366.76" font-family="Arial" font-size="9.00">显示错误</text>
</g>
<!-- click_action&#45;&gt;api_call -->
<g id="edge27" class="edge">
<title>click_action&#45;&gt;api_call</title>
<path fill="none" stroke="black" d="M638.37,-412.52C654.33,-414.98 675.01,-417.77 693.5,-419 729.31,-421.39 738.42,-420.97 774.25,-419 791.65,-418.04 810.85,-416.05 827.07,-414.1"/>
<polygon fill="black" stroke="black" points="827.29,-417.6 836.78,-412.89 826.42,-410.65 827.29,-417.6"/>
<text xml:space="preserve" text-anchor="middle" x="733.88" y="-425.59" font-family="Arial" font-size="9.00">调用</text>
</g>
<!-- click_action&#45;&gt;api_call -->
<g id="edge50" class="edge">
<title>click_action&#45;&gt;api_call</title>
<path fill="none" stroke="black" d="M638.17,-420.46C653.89,-427.11 674.39,-434.61 693.5,-438 728.84,-444.26 738.79,-443.54 774.25,-438 792.26,-435.18 811.59,-429.4 827.73,-423.73"/>
<polygon fill="black" stroke="black" points="828.73,-427.09 836.93,-420.38 826.33,-420.51 828.73,-427.09"/>
<text xml:space="preserve" text-anchor="middle" x="733.88" y="-447.38" font-family="Arial" font-size="9.00">更新关注</text>
</g>
<!-- scroll_action -->
<g id="node25" class="node">
<title>scroll_action</title>
<polygon fill="lightcyan" stroke="black" points="638,-318 583,-318 583,-282 638,-282 638,-318"/>
<text xml:space="preserve" text-anchor="middle" x="610.5" y="-298" font-family="Arial" font-size="10.00">滚动操作</text>
</g>
<!-- scroll_action&#45;&gt;loading -->
<g id="edge30" class="edge">
<title>scroll_action&#45;&gt;loading</title>
<path fill="none" stroke="black" d="M614.06,-281.67C620.65,-240.03 641.5,-136.65 693.5,-69 694.68,-67.46 695.97,-65.98 697.35,-64.56"/>
<polygon fill="black" stroke="black" points="699.56,-67.28 704.78,-58.06 694.95,-62.01 699.56,-67.28"/>
<text xml:space="preserve" text-anchor="middle" x="674.5" y="-113.09" font-family="Arial" font-size="9.00">触发</text>
</g>
<!-- input_action&#45;&gt;api_call -->
<g id="edge47" class="edge">
<title>input_action&#45;&gt;api_call</title>
<path fill="none" stroke="black" d="M638.49,-465.44C671.18,-468.76 727.67,-471.73 774.25,-460 794.38,-454.93 814.71,-444.11 830.98,-433.73"/>
<polygon fill="black" stroke="black" points="832.89,-436.67 839.29,-428.22 829.02,-430.83 832.89,-436.67"/>
<text xml:space="preserve" text-anchor="middle" x="733.88" y="-473.35" font-family="Arial" font-size="9.00">提交评论</text>
</g>
<!-- input_action&#45;&gt;api_call -->
<g id="edge52" class="edge">
<title>input_action&#45;&gt;api_call</title>
<path fill="none" stroke="black" d="M638.29,-473.12C671.02,-485.09 727.79,-500.57 774.25,-486 802.16,-477.25 826.92,-454.57 843.45,-436.07"/>
<polygon fill="black" stroke="black" points="846.04,-438.43 849.9,-428.56 840.73,-433.87 846.04,-438.43"/>
<text xml:space="preserve" text-anchor="middle" x="733.88" y="-496.86" font-family="Arial" font-size="9.00">执行搜索</text>
</g>
<!-- data_update -->
<g id="node31" class="node">
<title>data_update</title>
<polygon fill="lightcyan" stroke="black" points="1020.25,-427 965.25,-427 965.25,-391 1020.25,-391 1020.25,-427"/>
<text xml:space="preserve" text-anchor="middle" x="992.75" y="-407" font-family="Arial" font-size="10.00">数据更新</text>
</g>
<!-- input_action&#45;&gt;data_update -->
<g id="edge28" class="edge">
<title>input_action&#45;&gt;data_update</title>
<path fill="none" stroke="black" d="M635.85,-480.48C651.42,-491.11 672.57,-503.43 693.5,-509 728.18,-518.23 739.19,-516.67 774.25,-509 841.76,-494.22 913.34,-456.45 955.21,-431.79"/>
<polygon fill="black" stroke="black" points="956.86,-434.89 963.65,-426.75 953.27,-428.88 956.86,-434.89"/>
<text xml:space="preserve" text-anchor="middle" x="802.25" y="-511.09" font-family="Arial" font-size="9.00">更新</text>
</g>
<!-- drag_drop&#45;&gt;uploading -->
<g id="edge29" class="edge">
<title>drag_drop&#45;&gt;uploading</title>
<path fill="none" stroke="black" d="M638.37,-336.19C641.68,-333.35 644.82,-330.26 647.5,-327 677.51,-290.42 662.72,-266.93 693.5,-231 694.72,-229.57 696.04,-228.18 697.42,-226.84"/>
<polygon fill="black" stroke="black" points="699.36,-229.79 704.73,-220.65 694.84,-224.45 699.36,-229.79"/>
<text xml:space="preserve" text-anchor="middle" x="674.5" y="-300.02" font-family="Arial" font-size="9.00">进入</text>
</g>
<!-- swipe_action -->
<g id="node28" class="node">
<title>swipe_action</title>
<polygon fill="lightcyan" stroke="black" points="638,-534 583,-534 583,-498 638,-498 638,-534"/>
<text xml:space="preserve" text-anchor="middle" x="610.5" y="-514" font-family="Arial" font-size="10.00">滑动操作</text>
</g>
<!-- long_press -->
<g id="node29" class="node">
<title>long_press</title>
<polygon fill="lightcyan" stroke="black" points="638,-588 583,-588 583,-552 638,-552 638,-588"/>
<text xml:space="preserve" text-anchor="middle" x="610.5" y="-568" font-family="Arial" font-size="10.00">长按操作</text>
</g>
<!-- api_call&#45;&gt;error -->
<g id="edge39" class="edge">
<title>api_call&#45;&gt;error</title>
<path fill="none" stroke="black" d="M838.32,-400.25C819.41,-393.99 793.69,-385.47 772.62,-378.5"/>
<polygon fill="black" stroke="black" points="773.82,-375.21 763.22,-375.39 771.62,-381.85 773.82,-375.21"/>
<text xml:space="preserve" text-anchor="middle" x="802.25" y="-398.81" font-family="Arial" font-size="9.00">失败</text>
</g>
<!-- api_call&#45;&gt;data_update -->
<g id="edge38" class="edge">
<title>api_call&#45;&gt;data_update</title>
<path fill="none" stroke="black" d="M892.95,-409C910.59,-409 934.11,-409 953.79,-409"/>
<polygon fill="black" stroke="black" points="953.64,-412.5 963.64,-409 953.64,-405.5 953.64,-412.5"/>
<text xml:space="preserve" text-anchor="middle" x="929.25" y="-413.95" font-family="Arial" font-size="9.00">成功</text>
</g>
<!-- api_call&#45;&gt;ui_refresh -->
<g id="edge53" class="edge">
<title>api_call&#45;&gt;ui_refresh</title>
<path fill="none" stroke="black" d="M893.14,-396.82C934.92,-377.54 1016.42,-339.92 1063.93,-317.99"/>
<polygon fill="black" stroke="black" points="1065.11,-321.3 1072.73,-313.93 1062.18,-314.95 1065.11,-321.3"/>
<text xml:space="preserve" text-anchor="middle" x="992.75" y="-367.13" font-family="Arial" font-size="9.00">显示结果</text>
</g>
<!-- data_update&#45;&gt;ui_refresh -->
<g id="edge40" class="edge">
<title>data_update&#45;&gt;ui_refresh</title>
<path fill="none" stroke="black" d="M1020.7,-391.4C1032.28,-383.18 1045.58,-372.83 1056.25,-362 1066.04,-352.06 1075.38,-339.85 1082.96,-328.96"/>
<polygon fill="black" stroke="black" points="1085.84,-330.95 1088.53,-320.7 1080.04,-327.03 1085.84,-330.95"/>
<text xml:space="preserve" text-anchor="middle" x="1047.25" y="-382.71" font-family="Arial" font-size="9.00">触发</text>
</g>
<!-- notification&#45;&gt;ui_refresh -->
<g id="edge41" class="edge">
<title>notification&#45;&gt;ui_refresh</title>
<path fill="none" stroke="black" d="M1020.47,-301C1033.24,-301 1048.75,-301 1062.72,-301"/>
<polygon fill="black" stroke="black" points="1062.48,-304.5 1072.48,-301 1062.48,-297.5 1062.48,-304.5"/>
<text xml:space="preserve" text-anchor="middle" x="1047.25" y="-305.95" font-family="Arial" font-size="9.00">更新</text>
</g>
</g>
</svg>
